<svg width="80" height="80" viewBox="0 0 80 80" fill="none" xmlns="http://www.w3.org/2000/svg">
<path d="M27.4298 7.81974C28.3447 8.21418 29.38 8.16739 30.3549 7.98775C32.3771 7.61529 34.3743 7.20859 36.411 6.9093C36.867 6.8421 43.7287 5.89649 43.7302 5.93449C43.6859 4.58722 43.642 3.23994 43.5977 1.89267C43.5884 1.60594 43.5799 1.31167 43.6706 1.04096C43.8808 0.41192 44.5623 0.0890762 45.1977 0.0196711C46.5092 -0.123536 47.818 0.529374 48.7492 1.50324C49.68 2.47711 50.2796 3.74179 50.7479 5.02752C50.8235 5.2351 50.9063 5.45808 51.0843 5.58056C51.243 5.69016 51.4448 5.69644 51.6348 5.70209C53.6053 5.76082 55.5667 6.1336 57.4299 6.80347C58.7065 7.26261 59.9876 7.90107 60.8115 9.01627C61.6358 10.1318 61.8625 11.8286 61.0187 12.9281C60.7666 13.2569 60.4004 13.5279 59.9966 13.5197C59.7036 13.5138 59.4334 13.3637 59.1726 13.2242C57.7277 12.4517 56.1762 11.8977 54.581 11.5802C52.9427 11.2539 51.8408 10.9536 52.1667 13.1928C52.8117 17.626 52.2332 22.1097 51.6649 26.5148C51.3734 28.7747 51.0744 31.0365 50.9334 33.3137C50.7934 35.5746 50.8036 37.6969 51.6782 39.8224C51.8426 40.2219 52.0417 40.627 52.3775 40.8855C52.9765 41.3468 53.8299 41.2061 54.503 40.8729C55.8576 40.203 56.8152 38.9079 57.6961 37.6426C59.2404 35.4244 60.7151 33.1532 62.3043 30.969C64.1007 28.5003 66.0696 25.2008 68.9336 23.9541C69.9903 23.4937 71.3295 23.5282 72.1553 24.3557C72.8199 25.0222 73.0223 26.0475 73.0434 27.0085C73.091 29.1701 72.389 31.2991 71.3178 33.1504C70.4201 34.7018 69.27 36.0607 68.0512 37.3439C66.9038 38.5521 65.947 39.9455 64.6777 41.0343C62.7335 42.7026 60.5576 44.0765 58.2409 45.1044C56.7116 45.7831 55.099 46.3188 53.4384 46.3892C51.7782 46.4595 50.0565 46.0287 48.7603 44.9442C46.63 43.1617 46.0536 40.0843 45.6193 37.2723C44.8999 32.6149 45.1287 28.1677 44.9721 23.4814C44.8451 19.6824 44.6162 15.8871 44.2858 12.1012C44.2551 11.7516 44.2147 11.3786 43.9988 11.1091C43.5597 10.562 42.4136 10.7636 41.8224 10.7297C40.4326 10.6503 39.0392 10.6836 37.6509 10.7753C34.7791 10.965 31.9317 11.42 29.0722 11.7378C28.0161 11.855 26.9377 11.9523 25.9002 11.7146C24.8628 11.4765 23.856 10.85 23.3895 9.8551C22.5035 7.96577 24.2427 6.35344 25.7063 5.5658C26.3197 5.23542 27.0633 5.09661 27.705 5.36198C28.0854 5.51932 28.4368 5.87168 28.4266 6.29785C28.4115 6.92344 27.693 7.25319 27.4298 7.81974Z" fill="#7500CB"/>
<path d="M30.5266 33.9266C30.5308 34.4329 30.6498 34.9153 30.9961 35.2554C31.4289 35.6806 32.1095 35.7359 32.6714 35.534C33.2337 35.332 33.6986 34.9143 34.1199 34.4765C35.1035 33.4546 38.7815 28.7753 37.4428 27.4516C36.6349 26.6523 33.4168 27.8495 32.7452 28.5281C31.6056 29.6794 30.9771 31.2833 30.6419 32.9006C30.5739 33.2291 30.5239 33.5834 30.5266 33.9266ZM34.6789 39.827C33.2102 41.445 31.4894 42.9044 29.4458 43.5554C27.4025 44.2061 24.9875 43.9163 23.4309 42.39C22.4121 41.391 21.8504 39.9715 21.5947 38.5378C20.5666 32.7678 24.1687 27.0854 28.6411 23.5234C31.8083 21.0006 34.4907 20.7108 38.0798 22.1607C38.5255 17.4525 34.0558 17.2283 31.0587 18.514C29.678 19.1066 27.9265 19.4998 26.8248 18.4487C25.7922 17.4629 25.9497 15.6037 26.8465 14.4822C27.7434 13.3611 29.1558 12.8429 30.5302 12.5656C34.0323 11.8583 38.0358 12.5825 40.3878 15.3791C43.0307 18.5222 42.8877 23.1849 42.5956 27.3542C42.3176 31.3232 42.0396 35.2921 41.7617 39.2611C41.7129 39.9589 41.659 40.6768 41.3608 41.3037C40.7022 42.6883 39.0995 43.2134 37.6648 43.6022C36.5264 43.9103 34.9596 44.0086 34.5373 42.8639C34.1826 41.9023 35.0144 40.7962 34.6789 39.827Z" fill="#7500CB"/>
<path d="M12.405 24.6932C13.7319 24.7004 17.5309 21.3212 17.0099 20.6903C16.2604 19.69 13.1299 22.6798 12.1963 24.3625C12.1436 24.4576 12.1117 24.5333 12.1451 24.6429C12.224 24.6765 12.3111 24.6925 12.405 24.6932ZM8.89088 43.4275C8.87643 43.4282 8.86197 43.4285 8.84752 43.4291C6.02844 43.5161 3.07535 41.9264 2.00295 39.2061C1.44913 37.801 1.41931 36.232 1.53737 34.718C1.95988 29.2975 4.23448 24.0535 7.85914 20.1435C10.4102 17.3912 13.9713 14.8964 17.4653 13.7108C22.1322 12.1274 26.0921 15.1655 24.0496 20.5738C23.0715 23.1631 21.1243 25.2647 18.8801 26.7709C17.268 27.8528 15.5048 28.6414 13.7018 29.31C13.1769 29.5035 8.6331 30.8661 9.63834 32.1173C10.3346 32.9844 15.549 29.9796 16.289 29.642C18.107 28.8123 22.0458 27.7693 21.6522 31.1837C21.2763 34.4404 18.5982 37.6022 16.3576 39.8046C14.3158 41.8117 11.694 43.3264 8.89088 43.4275Z" fill="#7500CB"/>
<path d="M43.4594 52.4012C44.8299 49.8357 47.3018 47.9395 50.0585 47.3387C52.0823 46.8978 54.334 47.1836 55.956 48.5205C57.0726 49.441 59.3442 54.8878 56.5197 54.6212C55.9487 54.5672 55.3784 54.4937 54.8122 54.4011C51.7862 53.9071 48.55 56.5479 46.8991 58.9146C43.7151 63.4799 42.8128 70.2173 43.4597 75.7C43.5687 76.6245 43.7184 77.6062 43.3471 78.4536C42.82 79.6551 41.3673 80.1661 40.1169 79.9528C38.8665 79.7399 37.7782 78.9655 36.7597 78.1797C36.1712 77.7259 35.5614 77.2209 35.3159 76.5017C35.0181 75.6293 35.3283 74.6743 35.6026 73.7937C36.6148 70.5417 37.1488 67.1521 37.6574 63.7745C37.8369 62.583 38.0134 61.3906 38.1531 60.1934C38.4524 57.6308 38.516 55.0738 38.5524 52.4995C38.5566 52.1839 38.4865 51.8343 38.2416 51.6484C37.1804 50.8423 36.1408 52.8245 35.7252 53.5041C35.2795 54.2327 34.5462 54.9607 33.7385 54.7679C32.9097 54.57 32.5586 53.523 32.5731 52.6367C32.611 50.2949 34.1505 48.2655 35.8692 46.7577C36.831 45.9135 37.9592 45.1378 39.2162 45.1259C40.7466 45.1111 42.1181 46.2819 42.7866 47.7175C43.4549 49.153 43.5356 50.8074 43.4594 52.4012Z" fill="#7500CB"/>
<path d="M23.0114 57.4639C22.9804 57.3069 23.4159 56.9752 23.5026 56.8854C23.9146 56.4583 24.3269 56.0133 24.6473 55.5055C25.3387 54.4088 25.923 53.0735 26.2118 51.7956C26.2783 51.5026 26.3241 51.1794 26.1907 50.9125C25.9001 50.3312 25.289 50.7552 24.9936 51.0711C23.4794 52.691 22.5696 55.2191 23.0114 57.4639ZM35.7146 66.2177C35.8573 67.3527 35.5881 68.5313 35.3053 69.6531C34.7684 71.783 34.1682 73.9352 33.0211 75.784C31.874 77.6328 30.0903 79.1654 27.9991 79.4707C25.7558 79.7979 23.4773 78.6485 21.9478 76.9061C20.4182 75.1638 19.5461 72.8985 18.9757 70.6125C17.5395 64.8544 17.8696 58.6322 19.9059 53.0744C20.6456 51.0566 21.6328 49.0847 23.1521 47.6162C24.6708 46.148 26.7942 45.2423 28.8327 45.6236C29.8376 45.8114 30.832 46.349 31.3443 47.2698C31.9689 48.3932 31.7581 49.8067 31.4295 51.0592C30.5842 54.2804 28.9869 57.381 26.6111 59.6541C26.0491 60.1917 25.445 60.682 24.8009 61.1081C24.2428 61.4771 23.218 61.7356 22.7868 62.2243C21.9438 63.179 22.4549 65.2552 22.9458 66.2689C23.5511 67.5192 24.9659 68.4199 26.2536 68.0219C26.7788 67.8599 27.2287 67.5094 27.6663 67.1655C28.8971 66.1986 30.1276 65.2316 31.3584 64.2647C31.7668 63.944 32.1893 63.6158 32.685 63.4855C33.9568 63.151 35.2379 64.2967 35.5956 65.6126C35.6501 65.8126 35.689 66.0145 35.7146 66.2177Z" fill="#7500CB"/>
<path d="M62.7149 52.8883C63.7728 52.1556 65.2861 51.3375 65.5674 51.0935C66.7455 50.0697 68.0401 48.5311 67.6929 46.7992C67.57 46.1868 67.2057 45.7801 66.5624 45.878C66.0986 45.9484 65.708 46.2665 65.3608 46.5947C64.5591 47.3525 63.8593 48.2275 63.288 49.1862C62.5697 50.3916 61.2251 54.0135 61.6693 53.9802C61.5994 53.7456 62.0734 53.3327 62.7149 52.8883ZM61.5037 54.6893C61.2251 56.5259 61.2158 60.1011 62.9007 61.5463C63.7605 62.2834 65.0479 62.4037 66.0938 62.1028C67.352 61.7413 68.4106 60.8607 69.3574 59.9236C71.6154 57.6879 73.4552 54.9381 74.5312 51.8814C75.0729 50.3423 75.4166 48.7252 75.5048 47.0868C75.5975 45.3687 75.135 43.6583 75.4379 41.9493C75.6683 40.6504 76.3872 39.3706 77.5499 38.8449C77.861 38.7042 78.3907 38.6251 78.918 39.2758C78.9975 39.3737 79.4086 39.5355 79.5953 40.5094C80.1976 43.6499 80.0263 45.4512 79.7269 48.2466C79.4448 50.879 78.7952 52.8361 78.0119 55.3507C76.7389 59.4365 74.6643 63.2968 71.6127 66.2257C70.2265 67.5563 68.5425 68.7242 66.6594 68.7968C64.866 68.8656 63.1296 67.8955 61.9415 66.4929C60.7535 65.0901 60.0626 63.2959 59.6591 61.4722C58.4602 56.0542 59.6477 49.8555 63.1681 45.5995C64.5519 43.9268 66.5091 42.6462 68.6271 42.6031C70.7451 42.5604 72.9414 44.0104 73.3904 46.1695C73.6021 47.1861 73.4287 48.2501 73.1374 49.2453C72.3815 51.829 70.8156 54.1476 68.737 55.7603C67.564 56.6701 66.1607 57.3751 64.7004 57.3016C63.2398 57.2281 61.8274 56.2119 61.5037 54.6893Z" fill="#7500CB"/>
<path d="M11.7629 57.867C11.902 57.7728 11.921 57.6397 11.8969 57.4666C11.4364 54.1402 11.1582 50.7695 11.3958 47.4179C11.4181 47.1026 11.4497 46.7732 11.6168 46.5097C11.8126 46.2013 12.1577 46.0396 12.488 45.9061C13.1415 45.6423 13.8134 45.4278 14.4964 45.2648C15.3978 45.0497 16.4461 44.9592 17.1499 45.5848C18.069 46.4023 17.8781 47.9047 17.6404 49.1396C16.2985 56.1175 16.0678 63.3262 16.9607 70.3819C17.0677 71.2267 17.0044 72.374 16.2067 72.5586C15.9049 72.6286 15.5932 72.5159 15.3107 72.3849C13.6201 71.6017 12.3116 70.1442 11.1259 68.6631C5.94643 62.1953 2.15614 54.5249 0.111016 46.3728C0.0125399 45.9805 -0.0775042 45.5437 0.106499 45.1866C0.410662 44.5959 1.21594 44.6097 1.84987 44.7218C3.33816 44.9853 4.91981 45.4071 5.89855 46.6055C6.28462 47.0781 6.54994 47.6431 6.81104 48.2012C8.24783 51.2723 9.76955 54.2683 11.3651 57.1811C11.5373 57.4958 11.4482 57.715 11.7629 57.867Z" fill="#7500CB"/>
<path d="M53.7056 59.725C53.3849 59.7281 53.0587 59.8333 52.7952 60.05C52.2905 60.4661 52.0116 61.1046 51.7511 61.7182C51.6791 61.8869 51.606 62.064 51.6156 62.2484C51.643 62.7804 52.2703 62.9999 52.7729 63.0957C55.33 63.584 57.9217 64.4087 59.8861 66.1843C61.8508 67.96 63.0467 70.8728 62.2526 73.4543C60.5529 78.98 53.1439 81.0675 48.3478 79.4429C47.3016 79.0884 46.281 78.5633 45.5284 77.7266C44.2383 76.2927 43.9462 73.9825 44.8355 72.2487C45.127 71.6802 45.5655 71.1507 46.1578 70.9661C47.2329 70.6307 48.2659 71.5084 49.1561 72.2216C49.7716 72.715 50.4456 73.1651 51.2051 73.3331C51.9649 73.5014 52.8283 73.3419 53.3665 72.758C54.2486 71.8014 53.8896 70.1304 52.9976 69.1845C52.1053 68.2382 50.8489 67.7976 49.6876 67.2553C48.5264 66.7129 47.3377 65.9438 46.8984 64.6986C46.6026 63.8604 46.6963 62.9229 46.9348 62.0649C47.8304 58.8412 50.7362 56.4632 53.898 55.8358C54.7256 55.6712 55.595 55.615 56.4 55.8747C58.3319 56.4984 58.4529 58.3133 57.9798 60.0786C57.8148 60.6938 57.6263 61.3294 57.2107 61.7989C55.1972 64.0758 55.2532 59.7099 53.7056 59.725Z" fill="#7500CB"/>
<path d="M66.663 14.5997C68.6488 14.606 70.7008 17.0706 70.3238 19.0762C70.1265 20.1248 69.5155 21.0484 68.7729 21.7849C68.0254 22.526 66.9961 23.1328 65.9987 22.8589C65.2283 22.6472 64.6733 21.9664 64.1704 21.3219C63.9189 20.9994 63.6635 20.67 63.5214 20.2818C63.2865 19.6405 63.3892 18.922 63.5419 18.2543C63.8138 17.065 64.2791 15.8496 65.2133 15.1107C65.6656 14.753 66.1622 14.5981 66.663 14.5997Z" fill="#7500CB"/>
<path d="M71.1305 21.6491C71.1277 21.5543 71.1335 21.4579 71.1395 21.3636C71.1687 20.9117 71.1982 20.4595 71.2274 20.0076C71.2907 19.0353 71.977 18.0661 72.9319 17.9006C74.1161 17.6952 75.0024 18.9747 75.6544 19.8515C76.6993 21.2566 74.8244 23.7492 73.2463 23.3265C72.6675 23.1713 72.1595 22.8177 71.6635 22.4704C71.4843 22.3444 71.297 22.2094 71.2036 22.0062C71.1524 21.8947 71.1341 21.7732 71.1305 21.6491Z" fill="#7500CB"/>
<path d="M76.0352 29.5023C75.4691 29.5227 74.8905 29.2624 74.5596 28.7838C74.0678 28.0731 74.1898 27.1026 74.3331 26.2393C74.3732 25.9972 74.4156 25.7491 74.5349 25.5374C74.6526 25.3289 74.8366 25.1709 75.0258 25.0309C75.738 24.5039 76.5622 24.0052 77.3503 24.6395C78.0436 25.1973 78.2165 26.484 78.0987 27.3153C78.0442 27.699 77.9255 28.0753 77.7322 28.4066C77.4052 28.9672 76.848 29.3911 76.2249 29.4847C76.1623 29.4941 76.0988 29.5001 76.0352 29.5023Z" fill="#7500CB"/>
<path d="M76.0676 32.0262C76.1098 31.7291 76.2315 31.4411 76.417 31.2109C77.6568 29.6708 80.1663 31.187 79.0635 32.9639C78.6584 33.6168 77.7993 33.8929 77.0904 33.6511C76.7181 33.5242 76.3802 33.2626 76.198 32.9011C76.0631 32.6332 76.0252 32.3251 76.0676 32.0262Z" fill="#7500CB"/>
<path d="M76.4596 36.7821C75.9844 34.4961 79.4636 34.0442 79.235 36.0406C79.1784 36.5346 78.8628 36.9828 78.4499 37.2321C77.1854 37.9965 76.4928 36.9417 76.4596 36.7821Z" fill="#7500CB"/>
</svg>
