<svg width="92" height="92" viewBox="0 0 92 92" fill="none" xmlns="http://www.w3.org/2000/svg">
<ellipse cx="45.6958" cy="45.7875" rx="45.6958" ry="45.7875" fill="url(#paint0_linear_431_169)"/>
<path d="M13.8362 74.7252C13.6228 74.7252 13.4094 74.7093 13.1959 74.6776C12.9825 74.646 12.7717 74.5985 12.5634 74.5351C12.3604 74.4665 12.1704 74.3847 11.9934 74.2897C11.8737 74.2211 11.7904 74.1366 11.7436 74.0363C11.7019 73.9307 11.6889 73.8252 11.7045 73.7196C11.7201 73.614 11.7618 73.5217 11.8294 73.4425C11.8971 73.358 11.983 73.3052 12.0871 73.2841C12.1912 73.2577 12.311 73.2789 12.4463 73.3475C12.6858 73.4742 12.9357 73.5665 13.1959 73.6246C13.4614 73.6774 13.7113 73.7038 13.9456 73.7038C14.2787 73.7038 14.5364 73.6431 14.7186 73.5217C14.906 73.4003 14.9997 73.2445 14.9997 73.0545C14.9997 72.9014 14.9451 72.7748 14.8357 72.6745C14.7264 72.5742 14.5442 72.495 14.2891 72.4369L13.4068 72.2232C13.0215 72.1334 12.7144 71.9672 12.4854 71.7243C12.2615 71.4815 12.1496 71.1675 12.1496 70.7821C12.1496 70.4971 12.2069 70.2437 12.3214 70.022C12.4411 69.7951 12.6051 69.605 12.8133 69.452C13.0268 69.2936 13.2688 69.1749 13.5395 69.0957C13.8154 69.0112 14.1043 68.969 14.4063 68.969C14.6665 68.969 14.9477 69.0033 15.2496 69.0719C15.5567 69.1405 15.8404 69.254 16.1007 69.4124C16.2048 69.4757 16.2777 69.5575 16.3194 69.6578C16.361 69.7528 16.374 69.8531 16.3584 69.9587C16.348 70.059 16.3089 70.1461 16.2413 70.22C16.1788 70.2939 16.0903 70.3414 15.9758 70.3625C15.8665 70.3783 15.7337 70.3493 15.5775 70.2754C15.4058 70.1857 15.2131 70.1171 14.9997 70.0696C14.7915 70.0168 14.5885 69.9904 14.3906 69.9904C14.1824 69.9904 13.9976 70.0194 13.8362 70.0775C13.6801 70.1355 13.5577 70.2147 13.4692 70.315C13.3859 70.4153 13.3443 70.5341 13.3443 70.6713C13.3443 70.8297 13.3938 70.9563 13.4927 71.0513C13.5968 71.1411 13.7503 71.2123 13.9534 71.2651L14.8279 71.4789C15.2756 71.5845 15.614 71.7613 15.843 72.0094C16.0773 72.2575 16.1944 72.5557 16.1944 72.9041C16.1944 73.2102 16.132 73.4768 16.007 73.7038C15.8821 73.9307 15.7077 74.1208 15.4838 74.2738C15.2652 74.4216 15.0127 74.5351 14.7264 74.6143C14.4453 74.6882 14.1486 74.7252 13.8362 74.7252Z" fill="#204897"/>
<path d="M16.8877 74.7093C16.7472 74.7093 16.6274 74.6776 16.5285 74.6143C16.4348 74.5457 16.3802 74.4586 16.3646 74.353C16.3437 74.2422 16.3724 74.1208 16.4505 73.9888L19.2459 69.4045C19.3344 69.2567 19.4307 69.1511 19.5348 69.0878C19.6389 69.0191 19.7717 68.9848 19.9331 68.9848C20.0944 68.9848 20.2272 69.0271 20.3313 69.1115C20.4406 69.196 20.5187 69.3227 20.5656 69.4916L21.8852 73.9651C21.9321 74.1287 21.9399 74.2659 21.9086 74.3768C21.8774 74.4823 21.8175 74.5642 21.729 74.6222C21.6405 74.6803 21.5338 74.7093 21.4089 74.7093C21.2319 74.7093 21.0965 74.6671 21.0028 74.5826C20.9143 74.4929 20.8467 74.3557 20.7998 74.1709L20.5421 73.1733L20.8935 73.4267H17.7232L18.1527 73.197L17.489 74.353C17.4213 74.4691 17.338 74.5589 17.2391 74.6222C17.1454 74.6803 17.0283 74.7093 16.8877 74.7093ZM19.7925 70.3625L18.4494 72.6903L18.2777 72.4686H20.6515L20.4172 72.7141L19.8081 70.3625H19.7925Z" fill="#204897"/>
<path d="M23.1418 74.7093C22.9648 74.7093 22.8295 74.6513 22.7358 74.5351C22.6473 74.4137 22.6187 74.2448 22.6499 74.0284L23.3605 69.5074C23.3917 69.3332 23.4542 69.2039 23.5479 69.1194C23.6468 69.0297 23.7691 68.9848 23.9149 68.9848C24.071 68.9848 24.1882 69.0165 24.2663 69.0798C24.3496 69.1379 24.4328 69.2356 24.5161 69.3728L26.6635 73.0149H26.4527L26.9914 69.5549C27.0227 69.3596 27.0904 69.2171 27.1945 69.1273C27.3038 69.0323 27.4521 68.9848 27.6396 68.9848C27.8165 68.9848 27.9441 69.0455 28.0222 69.1669C28.1055 69.2831 28.1315 69.4467 28.1003 69.6578L27.3975 74.1788C27.3715 74.353 27.3142 74.485 27.2257 74.5747C27.1372 74.6645 27.0201 74.7093 26.8743 74.7093C26.7181 74.7093 26.5932 74.6776 26.4995 74.6143C26.4058 74.551 26.3173 74.4507 26.234 74.3134L24.0867 70.6792H24.2975L23.7587 74.1392C23.7327 74.3293 23.6702 74.4718 23.5713 74.5668C23.4724 74.6618 23.3292 74.7093 23.1418 74.7093Z" fill="#204897"/>
<path d="M30.3566 74.7093C30.1587 74.7093 30.013 74.646 29.9193 74.5193C29.8308 74.3873 29.8048 74.2105 29.8412 73.9888L30.4503 70.0696H29.1697C29.0031 70.0696 28.8729 70.0326 28.7792 69.9587C28.6855 69.8848 28.6387 69.7845 28.6387 69.6578C28.6387 69.4678 28.6907 69.32 28.7948 69.2144C28.9042 69.1089 29.0525 69.0561 29.2399 69.0561H33.1052C33.277 69.0561 33.4071 69.093 33.4956 69.1669C33.5893 69.2356 33.6361 69.3332 33.6361 69.4599C33.6361 69.6499 33.5841 69.8004 33.48 69.9112C33.3759 70.0168 33.2301 70.0696 33.0427 70.0696H31.6684L31.0359 74.0917C31.0047 74.2923 30.9318 74.4454 30.8173 74.551C30.7079 74.6565 30.5544 74.7093 30.3566 74.7093Z" fill="#204897"/>
<path d="M32.9547 74.7093C32.8142 74.7093 32.6944 74.6776 32.5955 74.6143C32.5018 74.5457 32.4472 74.4586 32.4316 74.353C32.4107 74.2422 32.4394 74.1208 32.5175 73.9888L35.3129 69.4045C35.4014 69.2567 35.4977 69.1511 35.6018 69.0878C35.7059 69.0191 35.8387 68.9848 36.0001 68.9848C36.1614 68.9848 36.2942 69.0271 36.3983 69.1115C36.5076 69.196 36.5857 69.3227 36.6326 69.4916L37.9522 73.9651C37.999 74.1287 38.0069 74.2659 37.9756 74.3768C37.9444 74.4823 37.8845 74.5642 37.796 74.6222C37.7075 74.6803 37.6008 74.7093 37.4759 74.7093C37.2989 74.7093 37.1635 74.6671 37.0698 74.5826C36.9813 74.4929 36.9137 74.3557 36.8668 74.1709L36.6091 73.1733L36.9605 73.4267H33.7902L34.2197 73.197L33.556 74.353C33.4883 74.4691 33.405 74.5589 33.3061 74.6222C33.2124 74.6803 33.0953 74.7093 32.9547 74.7093ZM35.8595 70.3625L34.5164 72.6903L34.3447 72.4686H36.7184L36.4842 72.7141L35.8751 70.3625H35.8595Z" fill="#204897"/>
<path d="M41.4912 74.6381C41.2778 74.6381 41.119 74.5774 41.0149 74.456C40.9108 74.3345 40.877 74.1656 40.9134 73.9492L41.5849 69.6499C41.6162 69.4546 41.6891 69.3068 41.8036 69.2065C41.9181 69.1062 42.0717 69.0561 42.2643 69.0561H43.5371C44.4325 69.0561 45.1248 69.2699 45.6141 69.6974C46.1035 70.1197 46.3481 70.7109 46.3481 71.471C46.3481 71.9197 46.2805 72.3367 46.1451 72.722C46.015 73.1073 45.8172 73.4425 45.5517 73.7275C45.2862 74.0126 44.9556 74.2369 44.56 74.4005C44.1644 74.5589 43.7037 74.6381 43.1779 74.6381H41.4912ZM42.1706 73.6325H43.1935C43.5163 73.6325 43.7974 73.5797 44.0368 73.4742C44.2763 73.3686 44.4715 73.2208 44.6225 73.0308C44.7786 72.8407 44.8932 72.6164 44.966 72.3578C45.0441 72.0938 45.0832 71.8035 45.0832 71.4868C45.0832 71.0276 44.953 70.6766 44.6927 70.4338C44.4377 70.1857 44.0524 70.0616 43.5371 70.0616H42.7328L42.1706 73.6325Z" fill="#204897"/>
<path d="M47.5461 74.6381C47.3222 74.6381 47.1609 74.58 47.062 74.4639C46.9631 74.3425 46.9292 74.1709 46.9604 73.9492L47.632 69.6499C47.6632 69.4546 47.7361 69.3068 47.8506 69.2065C47.9651 69.1062 48.1187 69.0561 48.3113 69.0561H50.9975C51.1588 69.0561 51.2812 69.0904 51.3645 69.159C51.453 69.2224 51.4972 69.3174 51.4972 69.4441C51.4972 69.6235 51.4452 69.7634 51.341 69.8637C51.2421 69.964 51.1068 70.0141 50.935 70.0141H48.733L48.53 71.3205H50.4743C50.6357 71.3205 50.758 71.3549 50.8413 71.4235C50.9246 71.4921 50.9662 71.5871 50.9662 71.7085C50.9662 71.888 50.9142 72.0305 50.8101 72.1361C50.7112 72.2364 50.5784 72.2865 50.4118 72.2865H48.3816L48.163 73.68H50.2713C50.4326 73.68 50.555 73.7143 50.6383 73.7829C50.7268 73.8463 50.771 73.9413 50.771 74.068C50.771 74.2475 50.719 74.3873 50.6148 74.4876C50.5159 74.5879 50.3806 74.6381 50.2088 74.6381H47.5461Z" fill="#204897"/>
<path d="M52.2505 74.6381C52.0371 74.6381 51.8809 74.58 51.782 74.4639C51.6831 74.3425 51.6492 74.1762 51.6805 73.9651L52.3754 69.5549C52.4067 69.3649 52.4769 69.2224 52.5863 69.1273C52.6956 69.0323 52.8439 68.9848 53.0313 68.9848C53.2344 68.9848 53.3827 69.0455 53.4764 69.1669C53.5701 69.2831 53.6014 69.4467 53.5701 69.6578L52.9533 73.6008H54.9444C55.1214 73.6008 55.2568 73.6378 55.3505 73.7117C55.4442 73.7856 55.491 73.8885 55.491 74.0205C55.491 74.2158 55.4364 74.3689 55.3271 74.4797C55.2177 74.5853 55.0694 74.6381 54.882 74.6381H52.2505Z" fill="#204897"/>
<path d="M56.6798 74.7093C56.4716 74.7093 56.3232 74.646 56.2347 74.5193C56.1462 74.3873 56.1202 74.2079 56.1567 73.9809L56.8438 69.6024C56.875 69.3965 56.9479 69.2435 57.0624 69.1432C57.177 69.0376 57.3331 68.9848 57.531 68.9848C57.734 68.9848 57.8771 69.0482 57.9604 69.1749C58.0489 69.3015 58.075 69.481 58.0385 69.7133L57.3514 74.0838C57.3201 74.2897 57.2499 74.4454 57.1405 74.551C57.0312 74.6565 56.8776 74.7093 56.6798 74.7093Z" fill="#204897"/>
<path d="M60.6846 74.7093C60.5128 74.7093 60.3723 74.6645 60.263 74.5747C60.1589 74.485 60.0808 74.353 60.0287 74.1788L58.7794 69.8162C58.7377 69.6631 58.7351 69.5312 58.7715 69.4203C58.808 69.3042 58.8731 69.2144 58.9668 69.1511C59.0605 69.0878 59.1724 69.0561 59.3025 69.0561C59.4535 69.0561 59.5784 69.0957 59.6773 69.1749C59.7814 69.2488 59.8595 69.3886 59.9116 69.5945L60.9579 73.5137H60.5753L62.9179 69.4836C63.0064 69.3306 63.1001 69.2224 63.199 69.159C63.2979 69.0904 63.428 69.0561 63.5894 69.0561C63.7508 69.0561 63.8757 69.0957 63.9642 69.1749C64.0579 69.2488 64.11 69.3464 64.1204 69.4678C64.136 69.5892 64.1022 69.7159 64.0189 69.8479L61.3718 74.2818C61.2833 74.4296 61.187 74.5378 61.0829 74.6064C60.9788 74.675 60.846 74.7093 60.6846 74.7093Z" fill="#204897"/>
<path d="M64.7417 74.6381C64.5178 74.6381 64.3564 74.58 64.2575 74.4639C64.1586 74.3425 64.1248 74.1709 64.156 73.9492L64.8276 69.6499C64.8588 69.4546 64.9317 69.3068 65.0462 69.2065C65.1607 69.1062 65.3143 69.0561 65.5069 69.0561H68.193C68.3544 69.0561 68.4767 69.0904 68.56 69.159C68.6485 69.2224 68.6928 69.3174 68.6928 69.4441C68.6928 69.6235 68.6407 69.7634 68.5366 69.8637C68.4377 69.964 68.3024 70.0141 68.1306 70.0141H65.9286L65.7255 71.3205H67.6699C67.8312 71.3205 67.9536 71.3549 68.0369 71.4235C68.1202 71.4921 68.1618 71.5871 68.1618 71.7085C68.1618 71.888 68.1097 72.0305 68.0056 72.1361C67.9067 72.2364 67.774 72.2865 67.6074 72.2865H65.5772L65.3585 73.68H67.4668C67.6282 73.68 67.7506 73.7143 67.8338 73.7829C67.9223 73.8463 67.9666 73.9413 67.9666 74.068C67.9666 74.2475 67.9145 74.3873 67.8104 74.4876C67.7115 74.5879 67.5762 74.6381 67.4044 74.6381H64.7417Z" fill="#204897"/>
<path d="M69.3758 74.7093C69.1884 74.7093 69.0478 74.646 68.9541 74.5193C68.8656 74.3873 68.8396 74.2079 68.876 73.9809L69.5554 69.6658C69.5814 69.4652 69.6543 69.3147 69.774 69.2144C69.8937 69.1089 70.0551 69.0561 70.2582 69.0561H71.9058C72.52 69.0561 72.9885 69.196 73.3113 69.4757C73.6392 69.7555 73.8032 70.1382 73.8032 70.6238C73.8032 71.0461 73.7121 71.3944 73.5299 71.6689C73.3477 71.9381 73.0953 72.1387 72.7725 72.2707C72.4497 72.3974 72.0827 72.4607 71.6715 72.4607V72.3261H71.9214C72.1764 72.3261 72.3847 72.4 72.5461 72.5478C72.7074 72.6903 72.8376 72.8883 72.9365 73.1416L73.2332 73.9176C73.2957 74.0812 73.3165 74.2237 73.2957 74.3451C73.2801 74.4612 73.2254 74.551 73.1317 74.6143C73.038 74.6776 72.9052 74.7093 72.7335 74.7093C72.5669 74.7093 72.4341 74.6671 72.3352 74.5826C72.2363 74.4929 72.153 74.3557 72.0854 74.1709L71.6246 72.9437C71.5674 72.7748 71.4867 72.656 71.3826 72.5874C71.2837 72.5135 71.1457 72.4765 70.9687 72.4765H70.3206L70.0786 74.0917C70.0473 74.2976 69.9718 74.4533 69.8521 74.5589C69.7376 74.6592 69.5788 74.7093 69.3758 74.7093ZM70.4612 71.5897H71.6481C71.9656 71.5897 72.2103 71.5185 72.3821 71.376C72.5539 71.2282 72.6398 71.0118 72.6398 70.7267C72.6398 70.4892 72.5643 70.3124 72.4133 70.1962C72.2675 70.0748 72.0333 70.0141 71.7105 70.0141H70.711L70.4612 71.5897Z" fill="#204897"/>
<path d="M76.297 74.7252C76.0835 74.7252 75.8701 74.7093 75.6567 74.6776C75.4432 74.646 75.2324 74.5985 75.0242 74.5351C74.8211 74.4665 74.6311 74.3847 74.4541 74.2897C74.3344 74.2211 74.2511 74.1366 74.2043 74.0363C74.1626 73.9307 74.1496 73.8252 74.1652 73.7196C74.1808 73.614 74.2225 73.5217 74.2902 73.4425C74.3578 73.358 74.4437 73.3052 74.5478 73.2841C74.652 73.2577 74.7717 73.2789 74.907 73.3475C75.1465 73.4742 75.3964 73.5665 75.6567 73.6246C75.9221 73.6774 76.172 73.7038 76.4063 73.7038C76.7394 73.7038 76.9971 73.6431 77.1793 73.5217C77.3667 73.4003 77.4604 73.2445 77.4604 73.0545C77.4604 72.9014 77.4058 72.7748 77.2965 72.6745C77.1871 72.5742 77.0049 72.495 76.7499 72.4369L75.8675 72.2232C75.4823 72.1334 75.1751 71.9672 74.9461 71.7243C74.7222 71.4815 74.6103 71.1675 74.6103 70.7821C74.6103 70.4971 74.6676 70.2437 74.7821 70.022C74.9018 69.7951 75.0658 69.605 75.274 69.452C75.4875 69.2936 75.7295 69.1749 76.0002 69.0957C76.2761 69.0112 76.5651 68.969 76.867 68.969C77.1273 68.969 77.4084 69.0033 77.7103 69.0719C78.0174 69.1405 78.3012 69.254 78.5614 69.4124C78.6656 69.4757 78.7384 69.5575 78.7801 69.6578C78.8217 69.7528 78.8347 69.8531 78.8191 69.9587C78.8087 70.059 78.7697 70.1461 78.702 70.22C78.6395 70.2939 78.551 70.3414 78.4365 70.3625C78.3272 70.3783 78.1944 70.3493 78.0383 70.2754C77.8665 70.1857 77.6739 70.1171 77.4604 70.0696C77.2522 70.0168 77.0492 69.9904 76.8514 69.9904C76.6431 69.9904 76.4583 70.0194 76.297 70.0775C76.1408 70.1355 76.0185 70.2147 75.93 70.315C75.8467 70.4153 75.805 70.5341 75.805 70.6713C75.805 70.8297 75.8545 70.9563 75.9534 71.0513C76.0575 71.1411 76.2111 71.2123 76.4141 71.2651L77.2887 71.4789C77.7363 71.5845 78.0747 71.7613 78.3038 72.0094C78.538 72.2575 78.6551 72.5557 78.6551 72.9041C78.6551 73.2102 78.5927 73.4768 78.4677 73.7038C78.3428 73.9307 78.1684 74.1208 77.9446 74.2738C77.7259 74.4216 77.4734 74.5351 77.1871 74.6143C76.906 74.6882 76.6093 74.7252 76.297 74.7252Z" fill="#204897"/>
<path d="M65.153 43.5366C65.2333 43.1325 65.272 42.7013 65.272 42.2444C65.272 38.0557 61.9382 34.6617 57.7939 34.6617C57.6481 34.6617 57.489 34.6617 57.3419 34.6888C56.815 33.1294 55.792 31.8046 54.4654 30.8975H46.1474C45.7569 31.1646 45.3918 31.4697 45.0575 31.806C44.8074 31.49 44.5413 31.1876 44.2645 30.8975H26.4437C24.2612 33.1701 22.9159 36.2739 22.9159 39.7114C22.9159 41.4755 23.2609 43.1461 23.9122 44.6811C21.7739 46.4994 20.4192 49.2467 20.4192 52.3302C20.4192 57.906 24.8817 62.4309 30.3807 62.4309H60.2652C65.7642 62.4309 70.2267 57.906 70.2267 52.3302C70.2535 48.5592 68.182 45.2601 65.153 43.5366Z" fill="#204897"/>
<path d="M22.8083 24.816L23.5986 26.5503L22.4793 27.0791L21.689 25.3394C21.2437 25.3638 20.7756 25.2241 20.3343 24.9475C19.683 24.5394 19.0839 23.8451 18.6801 22.9596C18.2775 22.0728 18.1452 21.1602 18.2628 20.3928C18.3725 19.6619 18.7175 19.0598 19.2765 18.7602C19.3006 18.7452 19.326 18.7303 19.3541 18.7168H19.3554C19.3808 18.7032 19.4089 18.6937 19.4356 18.6856C20.0227 18.4483 20.6994 18.5744 21.3199 18.9635C21.9712 19.3703 22.5703 20.0633 22.9741 20.9487C23.3766 21.8355 23.509 22.7481 23.3914 23.5156C23.3111 24.0349 23.1145 24.4878 22.8083 24.816Z" fill="#204897"/>
<path d="M35.5632 62.4323H55.7524L55.7764 58.7874L53.5178 48.0683L33.4155 31.3639L25.4078 31.8398L23.2294 36.9017L31.0124 52.9742L30.5056 62.4309H35.5632V62.4323Z" fill="#E52928"/>
<path d="M30.5083 33.6389L23.2294 36.9028C21.9884 37.4533 20.5294 36.8743 19.9865 35.616L19.8514 35.3041C19.3085 34.0457 19.8795 32.5663 21.1205 32.0158L28.2737 28.8428C29.3061 28.3845 30.4883 28.7086 31.1703 29.5533L30.5083 33.6389Z" fill="#204897"/>
<path d="M30.8294 36.659C30.6194 35.7152 30.5084 34.7348 30.5084 33.7273C30.5084 26.3955 36.3698 20.4522 43.6005 20.4522H66.5806L69.4999 23.5072C69.0412 28.2871 66.6943 37.1539 55.7218 38.7553L30.8294 36.659Z" fill="#E52928"/>
<path d="M49.4847 40.3624C53.2151 36.5799 53.2151 30.4472 49.4847 26.6647C45.7543 22.8822 39.7062 22.8822 35.9759 26.6647C32.2455 30.4472 32.2455 36.5799 35.9759 40.3624C39.7062 44.1449 45.7544 44.1449 49.4847 40.3624Z" fill="#FBBB96"/>
<path d="M34.8515 35.2541C34.6536 34.9598 34.5372 34.6032 34.5372 34.2208C34.5372 33.2066 35.3476 32.3848 36.3479 32.3848C37.3482 32.3848 38.1586 33.2066 38.1586 34.2208C38.1586 34.3225 38.1506 34.4215 38.1346 34.5178" fill="#FED6B6"/>
<path d="M50.7856 35.2473C50.9809 34.9544 51.0945 34.6005 51.0945 34.2208C51.0945 33.2066 50.2841 32.3848 49.2838 32.3848C48.2835 32.3848 47.4731 33.2066 47.4731 34.2208C47.4731 34.3158 47.4798 34.408 47.4932 34.4988" fill="#FED6B6"/>
<path d="M71.7389 22.618C72.9192 21.4212 72.9192 19.4809 71.7389 18.2841C70.5587 17.0874 68.6451 17.0874 67.4648 18.2841C66.2846 19.4809 66.2846 21.4212 67.4648 22.618C68.6451 23.8147 70.5587 23.8147 71.7389 22.618Z" fill="#204897"/>
<path d="M45.7986 25.1086C49.3076 26.3561 51.8231 29.7434 51.8231 33.7259C51.8231 34.3103 51.7682 34.8826 51.6653 35.4358L53.3048 35.8779C53.4425 35.1822 53.5161 34.4622 53.5161 33.7246C53.5161 28.6708 50.1073 24.4238 45.4923 23.2197L45.7986 25.1086Z" fill="#204897"/>
<path d="M39.84 25.1085C36.3322 26.356 33.8168 29.7433 33.8168 33.7258C33.8168 34.3563 33.8796 34.972 34 35.5659L32.3418 35.9117C32.1987 35.2052 32.1238 34.4743 32.1238 33.7258C32.1238 28.6842 35.5165 24.4454 40.1141 23.2305L39.84 25.1085Z" fill="#204897"/>
<path d="M45.7621 25.2914C46.1419 23.6432 45.132 21.995 43.5066 21.61C41.8812 21.2249 40.2557 22.2489 39.8759 23.897C39.4962 25.5452 40.506 27.1934 42.1315 27.5785C43.7569 27.9635 45.3824 26.9395 45.7621 25.2914Z" fill="white"/>
<path d="M47.4169 31.8397C47.4169 32.1394 47.1762 32.3835 46.8806 32.3835C46.5851 32.3835 46.3444 32.1394 46.3444 31.8397C46.3444 31.54 46.5851 31.296 46.8806 31.296C47.1775 31.296 47.4169 31.54 47.4169 31.8397Z" fill="#204897"/>
<path d="M39.2953 31.8397C39.2953 32.1394 39.0546 32.3835 38.759 32.3835C38.4635 32.3835 38.2228 32.1394 38.2228 31.8397C38.2228 31.54 38.4635 31.296 38.759 31.296C39.0559 31.296 39.2953 31.54 39.2953 31.8397Z" fill="#204897"/>
<path d="M22.5876 31.3638L21.8267 29.643C21.3065 28.4647 21.8267 27.0816 22.9888 26.5541C24.1509 26.0266 25.5149 26.5541 26.0351 27.7325L26.8121 29.4912" fill="#FBBB96"/>
<path d="M54.4378 48.4504C56.8115 49.0945 58.5593 51.2912 58.5593 53.9015C58.5593 57.0176 56.0679 59.5438 52.9948 59.5438L49.0258 48.1684L54.4378 48.4504Z" fill="#E52928"/>
<path d="M48.6496 60.1025C49.1792 60.3059 49.7529 60.4171 50.3533 60.4171C53.0065 60.4171 55.1569 58.2367 55.1569 55.5464C55.1569 52.9754 53.1924 50.8696 50.701 50.6879L46.9044 54.3952L48.6496 60.1025Z" fill="#204897"/>
<path d="M49.57 52.6663C50.3336 51.9382 50.811 50.9035 50.811 49.7564L50.8217 49.6926C51.0504 49.7347 51.2844 49.7564 51.5251 49.7564C53.7009 49.7564 55.4648 47.9678 55.4648 45.7616C55.4648 44.3826 54.7761 43.1663 53.7276 42.449L53.7557 42.5073C54.9432 41.9323 55.763 40.7024 55.763 39.28C55.763 37.7044 54.7587 36.3674 53.3639 35.8914L53.3866 35.8236L44.8279 33.9008H40.8842L32.3256 35.8236C30.8157 36.2277 29.7018 37.623 29.7018 39.2814C29.7018 40.7621 30.5897 42.0327 31.8562 42.5764L31.8294 42.5398C30.8519 43.2666 30.2166 44.4395 30.2166 45.763C30.2166 47.9692 31.9805 49.7577 34.1563 49.7577C34.7367 49.7577 35.289 49.6303 35.7851 49.4011L35.7651 49.355C35.7651 51.5612 37.529 53.3497 39.7047 53.3497C41.2226 53.3497 42.5411 52.4792 43.1991 51.2032H43.1978C43.627 52.3219 44.5377 53.1965 45.6718 53.5626L49.57 52.6663Z" fill="white"/>
<path d="M52.0202 57.0976C52.4638 55.0287 51.1695 52.9869 49.1292 52.537C47.0889 52.0871 45.0752 53.3995 44.6315 55.4684C44.1878 57.5372 45.4821 59.5791 47.5225 60.0289C49.5628 60.4788 51.5765 59.1664 52.0202 57.0976Z" fill="#FBBB96"/>
<path d="M48.9415 52.5032V49.6014C49.8308 49.3397 50.4888 48.5274 50.5329 47.5511C50.5342 47.5335 50.5383 47.5159 50.5383 47.4969V43.1848C50.5383 42.8391 50.2614 42.5584 49.9204 42.5584C49.5794 42.5584 49.3026 42.8391 49.3026 43.1848V47.1986V47.4969V47.4996V47.5172C49.3026 47.6189 49.2224 47.7003 49.1221 47.7003C49.0218 47.7003 48.9415 47.6189 48.9415 47.5172V47.4955V47.1986V43.1835C48.9415 42.8377 48.6647 42.557 48.3237 42.557C47.9827 42.557 47.7059 42.8377 47.7059 43.1835V47.1972V47.4955L47.7072 47.5023V47.5172C47.7072 47.6189 47.6256 47.7003 47.5267 47.7003C47.4264 47.7003 47.3461 47.6189 47.3461 47.5172V47.1986V43.1835C47.3461 42.8377 47.0693 42.557 46.7283 42.557C46.3873 42.557 46.1105 42.8377 46.1105 43.1835V47.4955C46.1105 47.5131 46.1145 47.5308 46.1158 47.5484C46.16 48.5247 46.8166 49.3383 47.7072 49.6V52.5018" fill="#204897"/>
<path d="M42.8204 34.8649C44.172 34.8649 45.2677 33.754 45.2677 32.3835C45.2677 31.013 44.172 29.902 42.8204 29.902C41.4688 29.902 40.3732 31.013 40.3732 32.3835C40.3732 33.754 41.4688 34.8649 42.8204 34.8649Z" fill="#FED6B6"/>
<path d="M46.8703 36.1325C46.8703 38.3997 45.0569 40.2384 42.8209 40.2384C40.585 40.2384 38.7716 38.3997 38.7716 36.1325H46.8703Z" fill="#FBBB96"/>
<path d="M70.5211 50.7597H69.0086C68.4617 50.7597 68.0137 50.3054 68.0137 49.7508C68.0137 49.1962 68.4617 48.7419 69.0086 48.7419H70.5211C71.0681 48.7419 71.516 49.1962 71.516 49.7508C71.516 50.3054 71.0681 50.7597 70.5211 50.7597Z" fill="#204897"/>
<path d="M75.1097 59.8367H74.7459C74.199 59.8367 73.751 59.3825 73.751 58.8279C73.751 58.2733 74.199 57.819 74.7459 57.819H75.1097C75.6566 57.819 76.1046 58.2733 76.1046 58.8279C76.106 59.3825 75.658 59.8367 75.1097 59.8367Z" fill="#204897"/>
<path d="M77.7297 55.2983H75.5272C74.9802 55.2983 74.5322 54.8441 74.5322 54.2895C74.5322 53.7349 74.9802 53.2806 75.5272 53.2806H77.7297C78.2766 53.2806 78.7246 53.7349 78.7246 54.2895C78.7246 54.8441 78.2766 55.2983 77.7297 55.2983Z" fill="#204897"/>
<path d="M78.942 50.7597H73.062C72.515 50.7597 72.067 50.3054 72.067 49.7508C72.067 49.1962 72.515 48.7419 73.062 48.7419H78.942C79.489 48.7419 79.937 49.1962 79.937 49.7508C79.937 50.3054 79.489 50.7597 78.942 50.7597Z" fill="#204897"/>
<path d="M72.7931 55.2983H68.7518C68.2048 55.2983 67.7568 54.8441 67.7568 54.2895C67.7568 53.7349 68.2048 53.2806 68.7518 53.2806H72.7931C73.34 53.2806 73.788 53.7349 73.788 54.2895C73.788 54.8441 73.3414 55.2983 72.7931 55.2983Z" fill="#204897"/>
<path d="M72.1246 59.8367H61.6483C61.1013 59.8367 60.6533 59.3825 60.6533 58.8279C60.6533 58.2733 61.1013 57.819 61.6483 57.819H72.1246C72.6716 57.819 73.1196 58.2733 73.1196 58.8279C73.1196 59.3825 72.6716 59.8367 72.1246 59.8367Z" fill="#204897"/>
<defs>
<linearGradient id="paint0_linear_431_169" x1="45.6958" y1="0" x2="45.6958" y2="91.5751" gradientUnits="userSpaceOnUse">
<stop stop-color="#E6ECF1"/>
<stop offset="1" stop-color="#E6ECF1"/>
</linearGradient>
</defs>
</svg>
