<svg width="68" height="68" viewBox="0 0 68 68" fill="none" xmlns="http://www.w3.org/2000/svg">
<g filter="url(#filter0_dddd_254_84)">
<path d="M24.4969 9.67151C25.1886 9.96971 25.9713 9.93434 26.7083 9.79853C28.2371 9.51695 29.747 9.20949 31.2867 8.98322C31.6314 8.93241 36.8189 8.21754 36.8201 8.24626C36.7866 7.22772 36.7534 6.20918 36.7199 5.19064C36.7128 4.97387 36.7065 4.7514 36.775 4.54674C36.9339 4.07119 37.4491 3.82712 37.9295 3.77465C38.921 3.66638 39.9105 4.15998 40.6144 4.89623C41.3182 5.63248 41.7715 6.58858 42.1255 7.56059C42.1826 7.71752 42.2452 7.88609 42.3798 7.97869C42.4998 8.06155 42.6523 8.0663 42.796 8.07057C44.2856 8.11497 45.7685 8.39679 47.1771 8.90321C48.1422 9.25032 49.1107 9.733 49.7336 10.5761C50.3567 11.4194 50.5281 12.7022 49.8902 13.5334C49.6997 13.782 49.4228 13.9869 49.1175 13.9807C48.896 13.9762 48.6918 13.8627 48.4946 13.7573C47.4022 13.1733 46.2293 12.7544 45.0233 12.5144C43.7848 12.2677 42.9517 12.0408 43.198 13.7336C43.6857 17.085 43.2484 20.4747 42.8187 23.805C42.5984 25.5135 42.3723 27.2235 42.2657 28.945C42.1599 30.6542 42.1676 32.2587 42.8288 33.8656C42.9531 34.1676 43.1036 34.4739 43.3574 34.6693C43.8103 35.018 44.4555 34.9117 44.9643 34.6598C45.9884 34.1534 46.7124 33.1742 47.3783 32.2176C48.5458 30.5407 49.6607 28.8237 50.8621 27.1724C52.2202 25.306 53.7087 22.8117 55.8739 21.8691C56.6728 21.521 57.6852 21.5472 58.3095 22.1728C58.812 22.6766 58.965 23.4518 58.9809 24.1783C59.0169 25.8125 58.4862 27.4219 57.6763 28.8215C56.9977 29.9944 56.1282 31.0217 55.2068 31.9919C54.3394 32.9052 53.6161 33.9587 52.6564 34.7818C51.1866 36.043 49.5416 37.0817 47.7902 37.8588C46.6341 38.3719 45.4149 38.7769 44.1595 38.8301C42.9044 38.8833 41.6028 38.5575 40.6229 37.7377C39.0123 36.3901 38.5765 34.0636 38.2482 31.9377C37.7043 28.4167 37.8774 25.0546 37.759 21.5118C37.6629 18.6397 37.4899 15.7704 37.2401 12.9083C37.2169 12.644 37.1864 12.362 37.0231 12.1583C36.6912 11.7447 35.8247 11.8971 35.3778 11.8715C34.3271 11.8114 33.2736 11.8366 32.2241 11.9059C30.053 12.0493 27.9004 12.3933 25.7386 12.6336C24.9402 12.7222 24.1249 12.7958 23.3406 12.616C22.5562 12.4361 21.7951 11.9624 21.4425 11.2102C20.7727 9.78191 22.0875 8.56299 23.1939 7.96753C23.6577 7.71776 24.2198 7.61282 24.705 7.81344C24.9925 7.93239 25.2582 8.19878 25.2505 8.52096C25.2391 8.99391 24.6959 9.2432 24.4969 9.67151Z" fill="#7500CB"/>
<path d="M26.8382 29.4084C26.8413 29.7911 26.9313 30.1558 27.1931 30.4129C27.5203 30.7344 28.0348 30.7762 28.4596 30.6235C28.8847 30.4708 29.2362 30.1551 29.5547 29.8241C30.2983 29.0515 33.0788 25.5139 32.0668 24.5132C31.456 23.9089 29.0231 24.814 28.5154 25.3271C27.6539 26.1975 27.1787 27.41 26.9253 28.6327C26.8739 28.881 26.8361 29.1489 26.8382 29.4084ZM29.9773 33.8691C28.8669 35.0923 27.566 36.1956 26.021 36.6877C24.4763 37.1797 22.6506 36.9605 21.4738 35.8067C20.7035 35.0514 20.2789 33.9783 20.0856 32.8944C19.3084 28.5323 22.0316 24.2363 25.4127 21.5435C27.8071 19.6363 29.835 19.4171 32.5484 20.5133C32.8853 16.9539 29.5062 16.7844 27.2404 17.7564C26.1966 18.2044 24.8724 18.5016 24.0396 17.707C23.2589 16.9617 23.378 15.5562 24.056 14.7083C24.734 13.8607 25.8018 13.469 26.8409 13.2593C29.4885 12.7247 32.5151 13.2722 34.2932 15.3864C36.2913 17.7625 36.1831 21.2876 35.9623 24.4396C35.7522 27.4401 35.542 30.4407 35.3319 33.4412C35.295 33.9688 35.2542 34.5115 35.0289 34.9854C34.5309 36.0322 33.3193 36.4292 32.2346 36.7231C31.374 36.956 30.1895 37.0303 29.8703 36.1649C29.6021 35.4379 30.2309 34.6017 29.9773 33.8691Z" fill="#7500CB"/>
<path d="M13.1381 22.4279C14.1413 22.4333 17.0133 19.8786 16.6195 19.4017C16.0528 18.6455 13.6861 20.9057 12.9804 22.1778C12.9405 22.2498 12.9164 22.307 12.9417 22.3899C13.0013 22.4153 13.0671 22.4274 13.1381 22.4279ZM10.4815 36.5911C10.4705 36.5915 10.4596 36.5918 10.4487 36.5923C8.31744 36.658 6.08489 35.4562 5.27416 33.3996C4.85547 32.3374 4.83293 31.1512 4.92218 30.0066C5.2416 25.9087 6.9612 21.9442 9.70145 18.9883C11.6301 16.9075 14.3223 15.0215 16.9637 14.1252C20.4919 12.9281 23.4856 15.2249 21.9415 19.3136C21.202 21.2711 19.7299 22.86 18.0333 23.9986C16.8146 24.8166 15.4816 25.4127 14.1185 25.9182C13.7217 26.0645 10.2866 27.0946 11.0465 28.0405C11.5729 28.696 15.515 26.4244 16.0744 26.1692C17.4489 25.5419 20.4266 24.7534 20.129 27.3347C19.8449 29.7967 17.8202 32.1871 16.1263 33.8522C14.5827 35.3695 12.6006 36.5146 10.4815 36.5911Z" fill="#7500CB"/>
<path d="M36.6153 43.3752C37.6515 41.4357 39.5202 40.0021 41.6043 39.5479C43.1342 39.2146 44.8365 39.4306 46.0628 40.4414C46.907 41.1372 48.6243 45.2551 46.489 45.0535C46.0573 45.0127 45.6261 44.9571 45.1981 44.8871C42.9104 44.5136 40.4639 46.5101 39.2158 48.2993C36.8086 51.7507 36.1265 56.8442 36.6156 60.9891C36.698 61.6881 36.8111 62.4303 36.5304 63.0708C36.132 63.9792 35.0337 64.3655 34.0884 64.2043C33.1431 64.0433 32.3203 63.4578 31.5503 62.8638C31.1055 62.5207 30.6444 62.1389 30.4589 61.5952C30.2337 60.9357 30.4682 60.2137 30.6756 59.5479C31.4408 57.0894 31.8445 54.5269 32.229 51.9734C32.3647 51.0727 32.4981 50.1712 32.6038 49.2661C32.8301 47.3287 32.8781 45.3957 32.9057 43.4495C32.9088 43.2109 32.8558 42.9466 32.6707 42.8061C31.8684 42.1966 31.0825 43.6952 30.7683 44.209C30.4313 44.7598 29.8769 45.3102 29.2663 45.1644C28.6398 45.0148 28.3743 44.2233 28.3852 43.5533C28.4139 41.7828 29.5778 40.2486 30.8771 39.1087C31.6043 38.4705 32.4571 37.8841 33.4074 37.8751C34.5645 37.8639 35.6013 38.749 36.1067 39.8343C36.6119 40.9195 36.6729 42.1703 36.6153 43.3752Z" fill="#7500CB"/>
<path d="M21.1566 47.2026C21.1332 47.0839 21.4624 46.8331 21.528 46.7652C21.8394 46.4423 22.1511 46.1059 22.3934 45.722C22.9161 44.8929 23.3578 43.8834 23.5761 42.9173C23.6264 42.6958 23.661 42.4515 23.5602 42.2497C23.3405 41.8102 22.8785 42.1307 22.6552 42.3696C21.5104 43.5942 20.8227 45.5055 21.1566 47.2026ZM30.7603 53.8205C30.8682 54.6785 30.6647 55.5696 30.4509 56.4177C30.0449 58.0279 29.5912 59.6549 28.724 61.0526C27.8568 62.4503 26.5083 63.609 24.9273 63.8397C23.2314 64.0871 21.5089 63.2182 20.3525 61.9009C19.1962 60.5837 18.5368 58.8712 18.1056 57.143C17.0199 52.7898 17.2694 48.0858 18.8089 43.8841C19.3681 42.3587 20.1144 40.8679 21.263 39.7577C22.4111 38.6478 24.0164 37.963 25.5575 38.2513C26.3173 38.3932 27.069 38.7997 27.4563 39.4958C27.9285 40.3451 27.7691 41.4137 27.5207 42.3606C26.8817 44.7958 25.6741 47.1399 23.878 48.8584C23.4532 49.2648 22.9965 49.6354 22.5095 49.9576C22.0876 50.2366 21.3128 50.432 20.9868 50.8014C20.3496 51.5232 20.7359 53.0928 21.107 53.8592C21.5646 54.8044 22.6342 55.4853 23.6078 55.1845C24.0048 55.062 24.345 54.797 24.6758 54.537C25.6063 53.806 26.5365 53.075 27.467 52.344C27.7757 52.1016 28.0952 51.8534 28.4699 51.7549C29.4314 51.5021 30.3999 52.3682 30.6703 53.363C30.7116 53.5142 30.7409 53.6669 30.7603 53.8205Z" fill="#7500CB"/>
<path d="M51.1725 43.7434C51.9723 43.1895 53.1164 42.571 53.329 42.3866C54.2197 41.6126 55.1984 40.4494 54.9359 39.1401C54.8431 38.6771 54.5676 38.3696 54.0813 38.4437C53.7307 38.4969 53.4354 38.7374 53.1729 38.9855C52.5668 39.5584 52.0377 40.2199 51.6058 40.9447C51.0628 41.8559 50.0462 44.5941 50.3821 44.569C50.3292 44.3916 50.6876 44.0794 51.1725 43.7434ZM50.2568 45.1051C50.0462 46.4935 50.0392 49.1963 51.313 50.2889C51.963 50.8462 52.9363 50.9371 53.727 50.7097C54.6782 50.4364 55.4785 49.7707 56.1943 49.0622C57.9014 47.372 59.2922 45.2931 60.1057 42.9823C60.5153 41.8187 60.775 40.5962 60.8417 39.3575C60.9119 38.0586 60.5622 36.7656 60.7912 35.4735C60.9654 34.4916 61.5088 33.5241 62.3879 33.1266C62.623 33.0202 63.0235 32.9604 63.4222 33.4524C63.4823 33.5264 63.793 33.6487 63.9342 34.385C64.3895 36.7592 64.26 38.121 64.0337 40.2343C63.8204 42.2244 63.3293 43.704 62.7371 45.6051C61.7747 48.6939 60.2063 51.6123 57.8993 53.8265C56.8513 54.8325 55.5782 55.7155 54.1546 55.7703C52.7988 55.8223 51.486 55.0889 50.5879 54.0286C49.6897 52.968 49.1674 51.6116 48.8624 50.2329C47.956 46.1369 48.8537 41.4507 51.5152 38.2331C52.5613 36.9686 54.041 36.0004 55.6422 35.9679C57.2434 35.9356 58.9038 37.0317 59.2433 38.664C59.4033 39.4326 59.2722 40.2369 59.052 40.9893C58.4806 42.9426 57.2967 44.6955 55.7253 45.9147C54.8385 46.6025 53.7776 47.1355 52.6736 47.0799C51.5694 47.0244 50.5016 46.2561 50.2568 45.1051Z" fill="#7500CB"/>
<path d="M12.6527 47.5074C12.7579 47.4361 12.7722 47.3355 12.754 47.2047C12.4059 44.6899 12.1955 42.1416 12.3752 39.6078C12.392 39.3695 12.4159 39.1204 12.5423 38.9212C12.6903 38.6881 12.9512 38.5658 13.2009 38.4649C13.695 38.2654 14.2029 38.1033 14.7193 37.9801C15.4007 37.8174 16.1932 37.7491 16.7253 38.222C17.4201 38.84 17.2758 39.9758 17.0962 40.9094C16.0817 46.1847 15.9073 51.6345 16.5823 56.9687C16.6631 57.6073 16.6153 58.4746 16.0122 58.6142C15.7841 58.6672 15.5485 58.5819 15.3349 58.4829C14.0568 57.8908 13.0675 56.7889 12.1712 55.6692C8.25546 50.7795 5.38999 44.9807 3.84388 38.8177C3.76943 38.5212 3.70136 38.1909 3.84046 37.9209C4.07041 37.4744 4.6792 37.4848 5.15845 37.5696C6.2836 37.7688 7.47933 38.0876 8.21926 38.9936C8.51114 39.3509 8.71172 39.7781 8.90911 40.2C9.99533 42.5217 11.1458 44.7867 12.352 46.9888C12.4822 47.2267 12.4148 47.3925 12.6527 47.5074Z" fill="#7500CB"/>
<path d="M44.3615 48.9119C44.119 48.9143 43.8725 48.9939 43.6732 49.1577C43.2917 49.4723 43.0808 49.9549 42.8839 50.4189C42.8295 50.5464 42.7742 50.6803 42.7815 50.8196C42.8022 51.2218 43.2764 51.3878 43.6564 51.4602C45.5896 51.8294 47.5489 52.4529 49.034 53.7952C50.5193 55.1376 51.4234 57.3397 50.823 59.2913C49.5381 63.4688 43.9369 65.0469 40.311 63.8188C39.5201 63.5507 38.7485 63.1537 38.1795 62.5212C37.2042 61.4372 36.9834 59.6907 37.6557 58.3799C37.8761 57.9501 38.2075 57.5499 38.6554 57.4102C39.4682 57.1567 40.2491 57.8203 40.9221 58.3595C41.3874 58.7325 41.897 59.0727 42.4711 59.1997C43.0456 59.327 43.6983 59.2063 44.1051 58.765C44.772 58.0418 44.5006 56.7785 43.8262 56.0633C43.1516 55.348 42.2018 55.0149 41.3239 54.6049C40.446 54.1948 39.5474 53.6134 39.2152 52.672C38.9916 52.0383 39.0624 51.3296 39.2428 50.681C39.9199 48.2438 42.1167 46.4461 44.507 45.9717C45.1326 45.8473 45.7899 45.8048 46.3985 46.0011C47.859 46.4727 47.9505 47.8447 47.5928 49.1793C47.4681 49.6444 47.3255 50.1249 47.0114 50.4799C45.4891 52.2012 45.5315 48.9005 44.3615 48.9119Z" fill="#7500CB"/>
<path d="M54.1573 14.7971C55.6586 14.8019 57.21 16.6652 56.9249 18.1814C56.7758 18.9741 56.3138 19.6724 55.7524 20.2291C55.1873 20.7894 54.4091 21.2481 53.6551 21.0411C53.0727 20.8811 52.6531 20.3664 52.2729 19.8792C52.0828 19.6353 51.8897 19.3863 51.7823 19.0928C51.6047 18.608 51.6823 18.0648 51.7978 17.56C52.0033 16.6609 52.3551 15.7421 53.0613 15.1834C53.4033 14.913 53.7787 14.796 54.1573 14.7971Z" fill="#7500CB"/>
<path d="M57.5347 20.1266C57.5327 20.0549 57.537 19.982 57.5415 19.9107C57.5636 19.5691 57.5859 19.2272 57.608 18.8855C57.6558 18.1505 58.1747 17.4178 58.8966 17.2927C59.7918 17.1374 60.4619 18.1047 60.9548 18.7676C61.7448 19.8298 60.3273 21.7142 59.1343 21.3946C58.6967 21.2773 58.3127 21.01 57.9377 20.7474C57.8022 20.6522 57.6606 20.5501 57.59 20.3965C57.5513 20.3122 57.5374 20.2203 57.5347 20.1266Z" fill="#7500CB"/>
<path d="M61.2427 26.0636C60.8147 26.079 60.3774 25.8822 60.1271 25.5204C59.7554 24.9831 59.8476 24.2494 59.9559 23.5968C59.9862 23.4137 60.0183 23.2261 60.1085 23.0661C60.1975 22.9085 60.3366 22.789 60.4796 22.6832C61.018 22.2848 61.6412 21.9077 62.237 22.3873C62.7611 22.809 62.8918 23.7817 62.8027 24.4102C62.7615 24.7003 62.6718 24.9847 62.5257 25.2352C62.2784 25.659 61.8572 25.9795 61.3862 26.0503C61.3388 26.0574 61.2908 26.0619 61.2427 26.0636Z" fill="#7500CB"/>
<path d="M61.2673 27.9716C61.2991 27.747 61.3911 27.5293 61.5314 27.3552C62.4687 26.1909 64.3659 27.3372 63.5321 28.6805C63.2259 29.1741 62.5764 29.3828 62.0404 29.2C61.759 29.1041 61.5036 28.9063 61.3658 28.6331C61.2638 28.4305 61.2352 28.1976 61.2673 27.9716Z" fill="#7500CB"/>
<path d="M61.5636 31.5671C61.2043 29.8389 63.8346 29.4972 63.6618 31.0065C63.619 31.38 63.3804 31.7188 63.0683 31.9073C62.1123 32.4852 61.5887 31.6877 61.5636 31.5671Z" fill="#7500CB"/>
</g>
<defs>
<filter id="filter0_dddd_254_84" x="0.759949" y="0.759766" width="66.4797" height="66.4802" filterUnits="userSpaceOnUse" color-interpolation-filters="sRGB">
<feFlood flood-opacity="0" result="BackgroundImageFix"/>
<feColorMatrix in="SourceAlpha" type="matrix" values="0 0 0 0 0 0 0 0 0 0 0 0 0 0 0 0 0 0 127 0" result="hardAlpha"/>
<feOffset dx="1" dy="1"/>
<feGaussianBlur stdDeviation="1"/>
<feComposite in2="hardAlpha" operator="out"/>
<feColorMatrix type="matrix" values="0 0 0 0 0.692222 0 0 0 0 0.716944 0 0 0 0 0.741667 0 0 0 1 0"/>
<feBlend mode="normal" in2="BackgroundImageFix" result="effect1_dropShadow_254_84"/>
<feColorMatrix in="SourceAlpha" type="matrix" values="0 0 0 0 0 0 0 0 0 0 0 0 0 0 0 0 0 0 127 0" result="hardAlpha"/>
<feOffset dx="-1" dy="-1"/>
<feGaussianBlur stdDeviation="1"/>
<feComposite in2="hardAlpha" operator="out"/>
<feColorMatrix type="matrix" values="0 0 0 0 1 0 0 0 0 1 0 0 0 0 1 0 0 0 1 0"/>
<feBlend mode="normal" in2="effect1_dropShadow_254_84" result="effect2_dropShadow_254_84"/>
<feColorMatrix in="SourceAlpha" type="matrix" values="0 0 0 0 0 0 0 0 0 0 0 0 0 0 0 0 0 0 127 0" result="hardAlpha"/>
<feOffset dx="1" dy="1"/>
<feGaussianBlur stdDeviation="1"/>
<feComposite in2="hardAlpha" operator="out"/>
<feColorMatrix type="matrix" values="0 0 0 0 0.692222 0 0 0 0 0.716944 0 0 0 0 0.741667 0 0 0 1 0"/>
<feBlend mode="normal" in2="effect2_dropShadow_254_84" result="effect3_dropShadow_254_84"/>
<feColorMatrix in="SourceAlpha" type="matrix" values="0 0 0 0 0 0 0 0 0 0 0 0 0 0 0 0 0 0 127 0" result="hardAlpha"/>
<feOffset dx="-1" dy="-1"/>
<feGaussianBlur stdDeviation="1"/>
<feComposite in2="hardAlpha" operator="out"/>
<feColorMatrix type="matrix" values="0 0 0 0 1 0 0 0 0 1 0 0 0 0 1 0 0 0 1 0"/>
<feBlend mode="normal" in2="effect3_dropShadow_254_84" result="effect4_dropShadow_254_84"/>
<feBlend mode="normal" in="SourceGraphic" in2="effect4_dropShadow_254_84" result="shape"/>
</filter>
</defs>
</svg>
