<svg width="70" height="70" viewBox="0 0 70 70" fill="none" xmlns="http://www.w3.org/2000/svg">
<ellipse cx="35" cy="35" rx="35" ry="35" fill="url(#paint0_linear_461_57)"/>
<g filter="url(#filter0_dddd_461_57)">
<path d="M25.4969 10.6715C26.1886 10.9697 26.9713 10.9343 27.7083 10.7985C29.2371 10.517 30.747 10.2095 32.2867 9.98322C32.6314 9.93241 37.8189 9.21754 37.8201 9.24626C37.7866 8.22772 37.7534 7.20918 37.7199 6.19064C37.7128 5.97387 37.7065 5.7514 37.775 5.54674C37.9339 5.07119 38.4491 4.82712 38.9295 4.77465C39.921 4.66638 40.9105 5.15998 41.6144 5.89623C42.3182 6.63248 42.7715 7.58858 43.1255 8.56059C43.1826 8.71752 43.2452 8.88609 43.3798 8.97869C43.4998 9.06155 43.6523 9.0663 43.796 9.07057C45.2856 9.11497 46.7685 9.39679 48.1771 9.90321C49.1422 10.2503 50.1107 10.733 50.7336 11.5761C51.3567 12.4194 51.5281 13.7022 50.8902 14.5334C50.6997 14.782 50.4228 14.9869 50.1175 14.9807C49.896 14.9762 49.6918 14.8627 49.4946 14.7573C48.4022 14.1733 47.2293 13.7544 46.0233 13.5144C44.7848 13.2677 43.9517 13.0408 44.198 14.7336C44.6857 18.085 44.2484 21.4747 43.8187 24.805C43.5984 26.5135 43.3723 28.2235 43.2657 29.945C43.1599 31.6542 43.1676 33.2587 43.8288 34.8656C43.9531 35.1676 44.1036 35.4739 44.3574 35.6693C44.8103 36.018 45.4555 35.9117 45.9643 35.6598C46.9884 35.1534 47.7124 34.1742 48.3783 33.2176C49.5458 31.5407 50.6607 29.8237 51.8621 28.1724C53.2202 26.306 54.7087 23.8117 56.8739 22.8691C57.6728 22.521 58.6852 22.5472 59.3095 23.1728C59.812 23.6766 59.965 24.4518 59.9809 25.1783C60.0169 26.8125 59.4862 28.4219 58.6763 29.8215C57.9977 30.9944 57.1282 32.0217 56.2068 32.9919C55.3394 33.9052 54.6161 34.9587 53.6564 35.7818C52.1866 37.043 50.5416 38.0817 48.7902 38.8588C47.6341 39.3719 46.4149 39.7769 45.1595 39.8301C43.9044 39.8833 42.6028 39.5575 41.6229 38.7377C40.0123 37.3901 39.5765 35.0636 39.2482 32.9377C38.7043 29.4167 38.8774 26.0546 38.759 22.5118C38.6629 19.6397 38.4899 16.7704 38.2401 13.9083C38.2169 13.644 38.1864 13.362 38.0231 13.1583C37.6912 12.7447 36.8247 12.8971 36.3778 12.8715C35.3271 12.8114 34.2736 12.8366 33.2241 12.9059C31.053 13.0493 28.9004 13.3933 26.7386 13.6336C25.9402 13.7222 25.1249 13.7958 24.3406 13.616C23.5562 13.4361 22.7951 12.9624 22.4425 12.2102C21.7727 10.7819 23.0875 9.56299 24.1939 8.96753C24.6577 8.71776 25.2198 8.61282 25.705 8.81344C25.9925 8.93239 26.2582 9.19878 26.2505 9.52096C26.2391 9.99391 25.6959 10.2432 25.4969 10.6715Z" fill="#7500CB"/>
<path d="M27.8382 30.4084C27.8413 30.7911 27.9313 31.1558 28.1931 31.4129C28.5203 31.7344 29.0348 31.7762 29.4596 31.6235C29.8847 31.4708 30.2362 31.1551 30.5547 30.8241C31.2983 30.0515 34.0788 26.5139 33.0668 25.5132C32.456 24.9089 30.0231 25.814 29.5154 26.3271C28.6539 27.1975 28.1787 28.41 27.9253 29.6327C27.8739 29.881 27.8361 30.1489 27.8382 30.4084ZM30.9773 34.8691C29.8669 36.0923 28.566 37.1956 27.021 37.6877C25.4763 38.1797 23.6506 37.9605 22.4738 36.8067C21.7035 36.0514 21.2789 34.9783 21.0856 33.8944C20.3084 29.5323 23.0316 25.2363 26.4127 22.5435C28.8071 20.6363 30.835 20.4171 33.5484 21.5133C33.8853 17.9539 30.5062 17.7844 28.2404 18.7564C27.1966 19.2044 25.8724 19.5016 25.0396 18.707C24.2589 17.9617 24.378 16.5562 25.056 15.7083C25.734 14.8607 26.8018 14.469 27.8409 14.2593C30.4885 13.7247 33.5151 14.2722 35.2932 16.3864C37.2913 18.7625 37.1831 22.2876 36.9623 25.4396C36.7522 28.4401 36.542 31.4407 36.3319 34.4412C36.295 34.9688 36.2542 35.5115 36.0289 35.9854C35.5309 37.0322 34.3193 37.4292 33.2346 37.7231C32.374 37.956 31.1895 38.0303 30.8703 37.1649C30.6021 36.4379 31.2309 35.6017 30.9773 34.8691Z" fill="#7500CB"/>
<path d="M14.1381 23.4279C15.1413 23.4333 18.0133 20.8786 17.6195 20.4017C17.0528 19.6455 14.6861 21.9057 13.9804 23.1778C13.9405 23.2498 13.9164 23.307 13.9417 23.3899C14.0013 23.4153 14.0671 23.4274 14.1381 23.4279ZM11.4815 37.5911C11.4705 37.5915 11.4596 37.5918 11.4487 37.5923C9.31744 37.658 7.08489 36.4562 6.27416 34.3996C5.85547 33.3374 5.83293 32.1512 5.92218 31.0066C6.2416 26.9087 7.9612 22.9442 10.7014 19.9883C12.6301 17.9075 15.3223 16.0215 17.9637 15.1252C21.4919 13.9281 24.4856 16.2249 22.9415 20.3136C22.202 22.2711 20.7299 23.86 19.0333 24.9986C17.8146 25.8166 16.4816 26.4127 15.1185 26.9182C14.7217 27.0645 11.2866 28.0946 12.0465 29.0405C12.5729 29.696 16.515 27.4244 17.0744 27.1692C18.4489 26.5419 21.4266 25.7534 21.129 28.3347C20.8449 30.7967 18.8202 33.1871 17.1263 34.8522C15.5827 36.3695 13.6006 37.5146 11.4815 37.5911Z" fill="#7500CB"/>
<path d="M37.6153 44.3752C38.6515 42.4357 40.5202 41.0021 42.6043 40.5479C44.1342 40.2146 45.8365 40.4306 47.0628 41.4414C47.907 42.1372 49.6243 46.2551 47.489 46.0535C47.0573 46.0127 46.6261 45.9571 46.1981 45.8871C43.9104 45.5136 41.4639 47.5101 40.2158 49.2993C37.8086 52.7507 37.1265 57.8442 37.6156 61.9891C37.698 62.6881 37.8111 63.4303 37.5304 64.0708C37.132 64.9792 36.0337 65.3655 35.0884 65.2043C34.1431 65.0433 33.3203 64.4578 32.5503 63.8638C32.1055 63.5207 31.6444 63.1389 31.4589 62.5952C31.2337 61.9357 31.4682 61.2137 31.6756 60.5479C32.4408 58.0894 32.8445 55.5269 33.229 52.9734C33.3647 52.0727 33.4981 51.1712 33.6038 50.2661C33.8301 48.3287 33.8781 46.3957 33.9057 44.4495C33.9088 44.2109 33.8558 43.9466 33.6707 43.8061C32.8684 43.1966 32.0825 44.6952 31.7683 45.209C31.4313 45.7598 30.8769 46.3102 30.2663 46.1644C29.6398 46.0148 29.3743 45.2233 29.3852 44.5533C29.4139 42.7828 30.5778 41.2486 31.8771 40.1087C32.6043 39.4705 33.4571 38.8841 34.4074 38.8751C35.5645 38.8639 36.6013 39.749 37.1067 40.8343C37.6119 41.9195 37.6729 43.1703 37.6153 44.3752Z" fill="#7500CB"/>
<path d="M22.1566 48.2026C22.1332 48.0839 22.4624 47.8331 22.528 47.7652C22.8394 47.4423 23.1511 47.1059 23.3934 46.722C23.9161 45.8929 24.3578 44.8834 24.5761 43.9173C24.6264 43.6958 24.661 43.4515 24.5602 43.2497C24.3405 42.8102 23.8785 43.1307 23.6552 43.3696C22.5104 44.5942 21.8227 46.5055 22.1566 48.2026ZM31.7603 54.8205C31.8682 55.6785 31.6647 56.5696 31.4509 57.4177C31.0449 59.0279 30.5912 60.6549 29.724 62.0526C28.8568 63.4503 27.5083 64.609 25.9273 64.8397C24.2314 65.0871 22.5089 64.2182 21.3525 62.9009C20.1962 61.5837 19.5368 59.8712 19.1056 58.143C18.0199 53.7898 18.2694 49.0858 19.8089 44.8841C20.3681 43.3587 21.1144 41.8679 22.263 40.7577C23.4111 39.6478 25.0164 38.963 26.5575 39.2513C27.3173 39.3932 28.069 39.7997 28.4563 40.4958C28.9285 41.3451 28.7691 42.4137 28.5207 43.3606C27.8817 45.7958 26.6741 48.1399 24.878 49.8584C24.4532 50.2648 23.9965 50.6354 23.5095 50.9576C23.0876 51.2366 22.3128 51.432 21.9868 51.8014C21.3496 52.5232 21.7359 54.0928 22.107 54.8592C22.5646 55.8044 23.6342 56.4853 24.6078 56.1845C25.0048 56.062 25.345 55.797 25.6758 55.537C26.6063 54.806 27.5365 54.075 28.467 53.344C28.7757 53.1016 29.0952 52.8534 29.4699 52.7549C30.4314 52.5021 31.3999 53.3682 31.6703 54.363C31.7116 54.5142 31.7409 54.6669 31.7603 54.8205Z" fill="#7500CB"/>
<path d="M52.1725 44.7434C52.9723 44.1895 54.1164 43.571 54.329 43.3866C55.2197 42.6126 56.1984 41.4494 55.9359 40.1401C55.843 39.6771 55.5676 39.3696 55.0813 39.4437C54.7306 39.4969 54.4353 39.7374 54.1728 39.9855C53.5668 40.5584 53.0377 41.2199 52.6058 41.9447C52.0628 42.8559 51.0462 45.5941 51.382 45.569C51.3292 45.3916 51.6876 45.0794 52.1725 44.7434ZM51.2568 46.1051C51.0462 47.4935 51.0392 50.1963 52.313 51.2889C52.963 51.8462 53.9363 51.9371 54.727 51.7097C55.6782 51.4364 56.4785 50.7707 57.1943 50.0622C58.9013 48.372 60.2922 46.2931 61.1057 43.9823C61.5152 42.8187 61.775 41.5962 61.8417 40.3575C61.9118 39.0586 61.5621 37.7656 61.7912 36.4735C61.9653 35.4916 62.5088 34.5241 63.3878 34.1266C63.623 34.0202 64.0235 33.9604 64.4221 34.4524C64.4822 34.5264 64.793 34.6487 64.9342 35.385C65.3895 37.7592 65.26 39.121 65.0337 41.2343C64.8203 43.2244 64.3293 44.704 63.7371 46.6051C62.7747 49.6939 61.2063 52.6123 58.8993 54.8265C57.8513 55.8325 56.5782 56.7155 55.1546 56.7703C53.7988 56.8223 52.486 56.0889 51.5879 55.0286C50.6897 53.968 50.1674 52.6116 49.8623 51.2329C48.956 47.1369 49.8537 42.4507 52.5152 39.2331C53.5613 37.9686 55.041 37.0004 56.6422 36.9679C58.2434 36.9356 59.9038 38.0317 60.2432 39.664C60.4033 40.4326 60.2722 41.2369 60.052 41.9893C59.4805 43.9426 58.2967 45.6955 56.7253 46.9147C55.8385 47.6025 54.7775 48.1355 53.6736 48.0799C52.5694 48.0244 51.5016 47.2561 51.2568 46.1051Z" fill="#7500CB"/>
<path d="M13.6527 48.5074C13.7579 48.4361 13.7722 48.3355 13.754 48.2047C13.4059 45.6899 13.1955 43.1416 13.3752 40.6078C13.392 40.3695 13.4159 40.1204 13.5423 39.9212C13.6903 39.6881 13.9512 39.5658 14.2009 39.4649C14.695 39.2654 15.2029 39.1033 15.7193 38.9801C16.4007 38.8174 17.1932 38.7491 17.7253 39.222C18.4201 39.84 18.2758 40.9758 18.0962 41.9094C17.0817 47.1847 16.9073 52.6345 17.5823 57.9687C17.6631 58.6073 17.6153 59.4746 17.0122 59.6142C16.7841 59.6672 16.5485 59.5819 16.3349 59.4829C15.0568 58.8908 14.0675 57.7889 13.1712 56.6692C9.25546 51.7795 6.38999 45.9807 4.84388 39.8177C4.76943 39.5212 4.70136 39.1909 4.84046 38.9209C5.07041 38.4744 5.6792 38.4848 6.15845 38.5696C7.2836 38.7688 8.47933 39.0876 9.21926 39.9936C9.51114 40.3509 9.71172 40.7781 9.90911 41.2C10.9953 43.5217 12.1458 45.7867 13.352 47.9888C13.4822 48.2267 13.4148 48.3925 13.6527 48.5074Z" fill="#7500CB"/>
<path d="M45.3615 49.9119C45.119 49.9143 44.8725 49.9939 44.6732 50.1577C44.2917 50.4723 44.0808 50.9549 43.8839 51.4189C43.8295 51.5464 43.7742 51.6803 43.7815 51.8196C43.8022 52.2218 44.2764 52.3878 44.6564 52.4602C46.5896 52.8294 48.5489 53.4529 50.034 54.7952C51.5193 56.1376 52.4234 58.3397 51.823 60.2913C50.5381 64.4688 44.9369 66.0469 41.311 64.8188C40.5201 64.5507 39.7485 64.1537 39.1795 63.5212C38.2042 62.4372 37.9834 60.6907 38.6557 59.3799C38.8761 58.9501 39.2075 58.5499 39.6554 58.4102C40.4682 58.1567 41.2491 58.8203 41.9221 59.3595C42.3874 59.7325 42.897 60.0727 43.4711 60.1997C44.0456 60.327 44.6983 60.2063 45.1051 59.765C45.772 59.0418 45.5006 57.7785 44.8262 57.0633C44.1516 56.348 43.2018 56.0149 42.3239 55.6049C41.446 55.1948 40.5474 54.6134 40.2152 53.672C39.9916 53.0383 40.0624 52.3296 40.2428 51.681C40.9199 49.2438 43.1167 47.4461 45.507 46.9717C46.1326 46.8473 46.7899 46.8048 47.3985 47.0011C48.859 47.4727 48.9505 48.8447 48.5928 50.1793C48.4681 50.6444 48.3255 51.1249 48.0114 51.4799C46.4891 53.2012 46.5315 49.9005 45.3615 49.9119Z" fill="#7500CB"/>
<path d="M55.1574 15.7972C56.6586 15.8019 58.21 17.6652 57.9249 19.1814C57.7758 19.9741 57.3139 20.6724 56.7524 21.2292C56.1873 21.7895 55.4092 22.2482 54.6551 22.0411C54.0727 21.8811 53.6531 21.3664 53.2729 20.8792C53.0828 20.6354 52.8897 20.3863 52.7823 20.0929C52.6047 19.608 52.6823 19.0648 52.7978 18.5601C53.0034 17.6609 53.3551 16.7421 54.0613 16.1835C54.4033 15.913 54.7787 15.796 55.1574 15.7972Z" fill="#7500CB"/>
<path d="M58.5347 21.1266C58.5327 21.0549 58.537 20.982 58.5415 20.9108C58.5636 20.5691 58.5859 20.2272 58.608 19.8856C58.6558 19.1505 59.1747 18.4178 59.8966 18.2927C60.7918 18.1374 61.4619 19.1047 61.9548 19.7676C62.7448 20.8298 61.3273 22.7142 60.1343 22.3947C59.6968 22.2774 59.3127 22.01 58.9377 21.7474C58.8022 21.6522 58.6606 21.5502 58.59 21.3965C58.5513 21.3123 58.5375 21.2204 58.5347 21.1266Z" fill="#7500CB"/>
<path d="M62.2427 27.0636C61.8147 27.079 61.3774 26.8822 61.1272 26.5204C60.7554 25.9831 60.8476 25.2495 60.956 24.5968C60.9862 24.4137 61.0183 24.2262 61.1085 24.0661C61.1975 23.9085 61.3366 23.7891 61.4796 23.6832C62.018 23.2848 62.6412 22.9078 63.237 23.3874C63.7611 23.809 63.8918 24.7817 63.8028 25.4102C63.7615 25.7003 63.6718 25.9848 63.5257 26.2352C63.2784 26.659 62.8572 26.9796 62.3862 27.0503C62.3388 27.0574 62.2908 27.0619 62.2427 27.0636Z" fill="#7500CB"/>
<path d="M62.2673 28.9716C62.2991 28.747 62.3911 28.5293 62.5314 28.3553C63.4687 27.191 65.3659 28.3372 64.5321 29.6806C64.2259 30.1742 63.5764 30.3829 63.0404 30.2001C62.759 30.1041 62.5036 29.9064 62.3659 29.6331C62.2639 29.4306 62.2352 29.1977 62.2673 28.9716Z" fill="#7500CB"/>
<path d="M62.5636 32.5671C62.2044 30.8389 64.8346 30.4973 64.6618 32.0066C64.619 32.38 64.3804 32.7188 64.0683 32.9073C63.1123 33.4852 62.5887 32.6877 62.5636 32.5671Z" fill="#7500CB"/>
</g>
<defs>
<filter id="filter0_dddd_461_57" x="1.75995" y="1.75977" width="66.4797" height="66.4802" filterUnits="userSpaceOnUse" color-interpolation-filters="sRGB">
<feFlood flood-opacity="0" result="BackgroundImageFix"/>
<feColorMatrix in="SourceAlpha" type="matrix" values="0 0 0 0 0 0 0 0 0 0 0 0 0 0 0 0 0 0 127 0" result="hardAlpha"/>
<feOffset dx="1" dy="1"/>
<feGaussianBlur stdDeviation="1"/>
<feComposite in2="hardAlpha" operator="out"/>
<feColorMatrix type="matrix" values="0 0 0 0 0.692222 0 0 0 0 0.716944 0 0 0 0 0.741667 0 0 0 1 0"/>
<feBlend mode="normal" in2="BackgroundImageFix" result="effect1_dropShadow_461_57"/>
<feColorMatrix in="SourceAlpha" type="matrix" values="0 0 0 0 0 0 0 0 0 0 0 0 0 0 0 0 0 0 127 0" result="hardAlpha"/>
<feOffset dx="-1" dy="-1"/>
<feGaussianBlur stdDeviation="1"/>
<feComposite in2="hardAlpha" operator="out"/>
<feColorMatrix type="matrix" values="0 0 0 0 1 0 0 0 0 1 0 0 0 0 1 0 0 0 1 0"/>
<feBlend mode="normal" in2="effect1_dropShadow_461_57" result="effect2_dropShadow_461_57"/>
<feColorMatrix in="SourceAlpha" type="matrix" values="0 0 0 0 0 0 0 0 0 0 0 0 0 0 0 0 0 0 127 0" result="hardAlpha"/>
<feOffset dx="1" dy="1"/>
<feGaussianBlur stdDeviation="1"/>
<feComposite in2="hardAlpha" operator="out"/>
<feColorMatrix type="matrix" values="0 0 0 0 0.692222 0 0 0 0 0.716944 0 0 0 0 0.741667 0 0 0 1 0"/>
<feBlend mode="normal" in2="effect2_dropShadow_461_57" result="effect3_dropShadow_461_57"/>
<feColorMatrix in="SourceAlpha" type="matrix" values="0 0 0 0 0 0 0 0 0 0 0 0 0 0 0 0 0 0 127 0" result="hardAlpha"/>
<feOffset dx="-1" dy="-1"/>
<feGaussianBlur stdDeviation="1"/>
<feComposite in2="hardAlpha" operator="out"/>
<feColorMatrix type="matrix" values="0 0 0 0 1 0 0 0 0 1 0 0 0 0 1 0 0 0 1 0"/>
<feBlend mode="normal" in2="effect3_dropShadow_461_57" result="effect4_dropShadow_461_57"/>
<feBlend mode="normal" in="SourceGraphic" in2="effect4_dropShadow_461_57" result="shape"/>
</filter>
<linearGradient id="paint0_linear_461_57" x1="35" y1="0" x2="35" y2="70" gradientUnits="userSpaceOnUse">
<stop stop-color="#E6ECF1"/>
<stop offset="1" stop-color="#E6ECF1"/>
</linearGradient>
</defs>
</svg>
