<svg width="1280" height="724" viewBox="0 0 1280 724" fill="none" xmlns="http://www.w3.org/2000/svg">
<path d="M1719.3 753.5C1719.3 1186.22 1327.1 1537 843.299 1537C359.497 1537 -32.7012 1186.22 -32.7012 753.5C-81.2011 412 413.497 0 897.299 0C1381.1 0 1719.3 320.785 1719.3 753.5Z" fill="url(#paint0_radial_299_824)" style="mix-blend-mode:screen"/>
<g filter="url(#filter0_dddd_299_824)">
<path d="M714.253 242.027C714.425 243.233 714.597 244.524 714.769 245.816C717.18 268.718 718.127 291.448 717.696 314.092C717.582 321.611 717.295 329.13 716.836 336.649C716.434 344.169 715.86 351.659 715.114 359.121C713.679 374.045 711.727 388.882 709.259 403.634C707.996 411.038 706.619 418.414 705.126 425.761C682.568 457.273 672.839 491.196 679.555 520.383C675.336 533.126 670.773 545.696 666.037 558.267C662.766 566.819 659.408 575.343 655.964 583.838C653.84 589.061 651.688 594.284 649.507 599.508C642.877 615.091 635.903 630.589 628.671 645.915C559.878 791.938 462.845 921.085 356.514 1041.54C322.247 1080.28 288.496 1119.03 256.209 1158.72C241.859 1133.86 228.198 1108.75 215.226 1083.38C210.864 1074.89 206.616 1066.39 202.484 1057.9C244.241 1033.79 291.94 979.546 328.962 908.773C387.337 797.276 396.98 687.07 350.487 662.79C303.994 638.424 219.015 709.197 160.64 820.781C148.758 843.424 138.943 866.068 131.194 887.937C127.693 878.122 124.306 868.307 121.035 858.492C117.705 848.619 114.491 838.718 111.392 828.788C105.192 808.928 99.3952 789.01 93.9997 769.035C137.307 730.377 177.687 688.964 216.776 644.623C280.575 572.215 339.208 495.07 386.218 410.694C426.512 338.63 454.752 262.346 475.157 182.964C541.711 149.644 611.193 124.331 682.224 107.025C684.405 112.593 686.471 118.218 688.423 123.9C701.596 162.386 709.775 202.766 714.253 242.027Z" fill="url(#paint1_linear_299_824)"/>
<path d="M512.115 1130.7C637.216 1014.64 774.543 911.326 883.544 778.906C982.643 658.627 1053.67 518.114 1094.83 367.959C1118.68 280.999 1126.43 189.563 1112.39 102.001C1207.7 122.32 1300.6 157.018 1387.65 205.921V490.649C1385.35 489.099 1383.03 487.578 1380.68 486.086C1376.03 483.158 1371.35 480.374 1366.64 477.734C1364.29 476.471 1361.96 475.208 1359.67 473.946C1354.96 471.535 1350.28 469.268 1345.63 467.144C1315.5 453.54 1286.14 447.083 1260.57 448.547C1258.56 448.661 1256.61 448.834 1254.71 449.063C1250.81 449.465 1247.05 450.068 1243.44 450.871C1237.92 452.077 1232.67 453.713 1227.68 455.779C1224.35 457.156 1221.16 458.735 1218.12 460.514C1210.37 464.905 1203.57 470.502 1197.63 477.476C1150.62 532.751 1183.68 648.209 1271.59 735.34C1287.69 751.441 1304.65 765.389 1321.78 777.098C1338.83 788.894 1356.22 798.451 1373.19 805.597C1378.06 807.663 1382.89 809.557 1387.65 811.279V1031.26C1370.43 1042.02 1352.87 1052.18 1334.96 1061.65C1287.26 1086.88 1238.27 1109.27 1188.93 1131.13C1199.61 1055.02 1175.68 975.038 1117.13 916.491C1018.03 817.392 857.37 817.392 758.271 916.491C659.86 1014.9 659.257 1174.01 756.29 1273.28H371C415.599 1222.83 463.814 1175.48 512.115 1130.7Z" fill="url(#paint2_linear_299_824)"/>
</g>
<g filter="url(#filter1_dddd_299_824)">
<path d="M215.176 645.746C176.087 690.087 135.707 731.5 92.3998 770.158C76.0411 709.545 63.2986 648.157 53.9999 586.338C55.5497 583.497 57.0133 580.656 58.6492 577.9C59.1658 576.982 59.6824 576.064 60.199 575.145C67.173 563.005 74.4052 551.038 81.8958 539.07C86.8895 531.235 91.8832 523.486 97.0491 515.737C98.0249 514.36 99.0006 512.954 99.9764 511.519C106.979 501.244 114.183 491.056 121.587 480.954C127.786 472.516 134.158 464.164 140.701 455.899C142.021 454.177 143.399 452.455 144.834 450.733C151.894 441.865 159.04 433.083 166.531 424.387C166.531 424.33 166.559 424.272 166.617 424.215C174.021 415.605 181.684 407.167 189.347 398.73C191.126 396.778 192.934 394.827 194.771 392.875C202.52 384.523 210.441 376.258 218.62 368.165C221.461 365.237 224.389 362.482 227.23 359.641C167.219 421.46 134.846 486.12 154.649 505.922C174.968 526.241 242.9 491.372 306.268 428.003C369.723 364.635 404.507 296.703 384.187 276.384C367.656 259.853 319.872 279.656 268.557 321.499C269.131 321.04 269.705 320.552 270.279 320.036C272.087 318.486 273.895 316.936 275.703 315.386C281.328 310.565 286.982 305.83 292.665 301.18C292.952 300.893 293.267 300.635 293.612 300.405C299.294 295.756 305.034 291.193 310.831 286.716C312.84 285.166 314.849 283.616 316.858 282.066C320.934 278.967 324.98 275.896 328.998 272.854C331.294 271.189 333.561 269.553 335.8 267.946C339.875 264.961 343.951 262.034 348.026 259.164C350.15 257.672 352.245 256.208 354.311 254.773C360.051 250.755 365.791 246.852 371.531 243.064C372.277 242.547 373.023 242.059 373.769 241.6C379.624 237.754 385.507 233.966 391.419 230.235C393.486 228.972 395.552 227.681 397.619 226.361C401.981 223.72 406.343 221.08 410.706 218.44C412.944 217.119 415.211 215.771 417.507 214.393C421.984 211.81 426.462 209.256 430.939 206.73C432.948 205.582 434.957 204.463 436.966 203.372C449.077 196.599 461.274 190.142 473.557 184C473.557 184 473.557 184.029 473.557 184.086C453.152 263.469 424.912 339.752 384.618 411.817C337.608 496.193 278.975 573.337 215.176 645.746Z" fill="url(#paint3_linear_299_824)"/>
</g>
<g filter="url(#filter2_dd_299_824)">
<path d="M764.098 91.2756C761.429 92.567 759.104 93.8585 757.038 95.15C748.6 100.402 743.865 106.257 744.209 112.111C744.898 122.96 762.634 131.484 789.066 135.444C794.318 136.305 800.001 136.908 805.855 137.338C811.796 137.769 817.995 137.941 824.366 137.941C830.738 137.941 837.367 137.769 844.169 137.338C854.329 136.735 864.058 135.53 873.184 134.067C888.424 131.57 901.941 127.953 912.79 123.649C917.181 122.013 921.055 120.205 924.499 118.224C929.579 115.383 933.625 112.37 936.294 109.27C936.639 108.754 936.897 108.323 937.242 107.893C937.672 107.29 938.189 106.687 938.447 106.085C939.652 103.932 940.169 101.78 940.083 99.6272C939.824 95.8389 937.5 92.3949 933.539 89.2954C929.407 86.0237 923.294 83.1824 915.717 80.7716C919.218 80.829 922.748 80.8864 926.307 80.9437C931.53 81.0586 936.725 81.202 941.891 81.3743C945.335 81.4603 948.693 81.5465 952.137 81.7186C958.25 81.9769 964.363 82.3213 970.475 82.7518C972.972 82.924 975.383 83.0101 977.794 83.1823C986.231 83.8137 994.669 84.5311 1003.11 85.3347C1005.78 85.593 1008.44 85.8513 1011.03 86.1958C1016.97 86.7985 1022.91 87.4011 1028.85 88.176C1032.12 88.6066 1035.39 89.037 1038.67 89.4675C1044 90.1564 1049.31 90.9025 1054.59 91.7061C1058.04 92.2227 1061.45 92.7679 1064.84 93.3419C1070.06 94.1455 1075.31 95.0352 1080.6 96.011C1083.92 96.585 1087.22 97.1876 1090.5 97.8191C1096.06 98.8522 1101.63 99.9429 1107.2 101.091C1109.35 101.521 1111.59 101.952 1113.74 102.382C1113.74 102.382 1113.74 102.411 1113.74 102.468C1127.78 190.03 1120.03 281.467 1096.18 368.426C1055.02 518.582 983.993 659.095 884.894 779.374C775.893 911.793 638.566 1015.11 513.465 1131.17C465.164 1175.94 416.949 1223.3 372.35 1273.75H321.121C295.378 1236.73 271.357 1198.85 248.971 1160.19C281.258 1120.5 315.008 1081.75 349.276 1043.01C455.607 922.556 552.64 793.408 621.433 647.385C628.665 632.06 635.639 616.562 642.268 600.978C644.45 595.755 646.602 590.531 648.726 585.308C652.17 576.813 655.528 568.289 658.799 559.737C663.535 547.167 668.098 534.596 672.317 521.854C673.867 528.397 676.191 534.768 679.377 540.709C679.377 540.767 679.377 540.795 679.377 540.795C682.046 545.703 685.232 550.18 688.848 554.313C689.077 554.657 689.336 554.973 689.622 555.26C695.563 561.889 702.71 567.572 710.803 572.135C712.066 572.881 713.328 573.57 714.591 574.201C757.812 596.415 825.658 591.593 889.113 557.24C915.803 542.862 938.533 524.953 956.355 505.495C958.651 502.969 960.861 500.415 962.985 497.832C966.831 493.183 970.418 488.448 973.747 483.626C976.789 479.149 979.602 474.643 982.185 470.109C982.587 469.42 982.988 468.702 983.39 467.956C991.053 453.922 996.133 439.63 998.285 425.768C998.974 421.291 999.405 416.9 999.491 412.509C999.548 410.328 999.519 408.175 999.405 406.051C998.802 394.342 995.875 383.149 990.278 372.817C980.549 354.909 964.19 341.994 943.527 334.331C940.829 333.356 938.074 332.437 935.261 331.576C930.153 330.084 924.815 328.878 919.247 327.96C912.818 326.927 906.131 326.267 899.186 325.98C896.775 325.922 894.336 325.894 891.868 325.894C884.463 325.894 876.8 326.41 869.052 327.357C861.303 328.305 853.382 329.682 845.375 331.576C824.022 336.57 802.067 344.749 780.629 356.373C771.76 361.108 763.409 366.274 755.574 371.698C743.692 379.877 732.844 388.746 723.201 398.044C713.558 407.343 705.12 417.158 697.888 427.232C699.38 419.884 700.758 412.509 702.021 405.104C704.489 390.353 706.44 375.515 707.875 360.591C708.622 353.13 709.196 345.639 709.597 338.12C710.057 330.6 710.344 323.081 710.458 315.562C710.889 292.918 709.942 270.188 707.531 247.286C707.359 245.995 707.187 244.703 707.014 243.498C702.537 204.237 694.358 163.856 681.185 125.37C679.233 119.688 677.167 114.063 674.986 108.495C676.363 108.151 677.741 107.893 679.032 107.634C685.92 105.97 692.837 104.391 699.782 102.899C702.71 102.21 705.637 101.693 708.65 101.091C714.161 99.9429 719.7 98.8235 725.267 97.7329C728.539 97.1589 731.839 96.5563 735.169 95.9249C740.392 95.0065 745.644 94.1168 750.925 93.2559C754.311 92.7393 757.698 92.2227 761.084 91.7061C762.06 91.5338 763.064 91.3904 764.098 91.2756Z" fill="url(#paint4_linear_299_824)"/>
</g>
<g filter="url(#filter3_dddd_299_824)">
<path fill-rule="evenodd" clip-rule="evenodd" d="M1370.94 805.253C1375.82 807.319 1380.64 809.214 1385.41 810.936V654.15C1376.54 646.918 1367.58 638.911 1358.63 630.043C1321 592.762 1295.69 552.554 1291.04 526.208C1290.98 526.208 1290.96 526.208 1290.96 526.208C1290.87 525.95 1290.87 525.692 1290.87 525.519C1290.61 523.883 1290.44 522.334 1290.35 520.784C1290.27 520.095 1290.18 519.406 1290.18 518.804C1290.18 517.34 1290.27 515.962 1290.44 514.585C1290.44 513.982 1290.44 513.379 1290.61 512.863C1290.78 511.485 1291.21 510.28 1291.64 509.075C1291.73 508.644 1291.82 508.127 1291.99 507.697C1292.1 507.525 1292.19 507.381 1292.25 507.266C1292.85 505.889 1293.62 504.684 1294.57 503.564C1307.4 488.497 1344.77 502.014 1385.41 533.957V490.305C1383.11 488.755 1380.78 487.234 1378.43 485.742C1373.78 482.815 1369.1 480.031 1364.4 477.39C1362.04 476.128 1359.72 474.865 1357.42 473.602C1352.72 471.191 1348.04 468.924 1343.39 466.8C1313.26 453.197 1283.9 446.739 1258.32 448.203C1256.32 448.318 1254.36 448.49 1252.47 448.72C1248.57 449.121 1244.81 449.724 1241.19 450.528C1235.68 451.733 1230.43 453.369 1225.43 455.435C1222.11 456.813 1218.92 458.391 1215.88 460.171C1208.13 464.562 1201.33 470.158 1195.39 477.132C1148.38 532.407 1181.44 647.865 1269.34 734.997C1285.45 751.097 1302.41 765.045 1319.54 776.754C1336.59 788.55 1353.98 798.107 1370.94 805.253ZM1234.73 625.996C1226.64 623.844 1218.29 616.095 1211.06 604.041C1207.1 597.325 1203.48 589.318 1200.47 580.278C1191.51 552.899 1190.91 523.539 1197.62 504.942C1199.86 498.829 1202.88 493.835 1206.75 490.563C1209.59 488.153 1212.78 486.775 1215.96 486.517C1217.05 486.402 1218.15 486.402 1219.24 486.517C1229.83 487.722 1241.19 499.001 1249.89 517.168C1251.26 520.009 1252.56 523.022 1253.85 526.208C1254.65 528.332 1255.43 530.542 1256.17 532.838C1257.64 537.401 1258.93 541.964 1259.96 546.613C1260.99 551.177 1261.77 555.826 1262.37 560.389C1262.97 564.952 1263.32 569.43 1263.49 573.734C1263.55 575.916 1263.58 578.068 1263.58 580.192C1263.58 580.307 1263.58 580.393 1263.58 580.45C1263.32 590.954 1261.85 600.425 1259.1 608.088C1257.98 611.187 1256.6 613.942 1255.05 616.353C1253.59 618.764 1251.87 620.83 1249.89 622.466C1245.32 626.427 1240.07 627.374 1234.73 625.996ZM1239.04 675.761C1234.04 670.681 1235.77 659.488 1242.74 649.243C1243.72 647.75 1244.81 646.315 1246.01 644.938C1252.04 637.878 1259.19 633.401 1265.04 632.54C1266.25 632.31 1267.39 632.253 1268.48 632.367C1270.55 632.626 1272.44 633.401 1273.91 634.778C1275.29 636.242 1276.23 638.136 1276.58 640.461C1276.75 641.609 1276.81 642.814 1276.75 644.077C1276.41 650.534 1272.96 658.541 1266.93 665.601C1257.29 676.966 1244.81 681.444 1239.04 675.761Z" fill="#F2F2F2"/>
<g filter="url(#filter4_dd_299_824)">
<path d="M1231.64 628.565C1223.54 626.412 1215.19 618.663 1207.96 606.61C1204 599.894 1200.38 591.887 1197.37 582.846C1188.41 555.467 1187.81 526.108 1194.53 507.51C1196.77 501.397 1199.78 496.404 1203.65 493.132C1206.49 490.721 1209.68 489.344 1212.87 489.085C1213.96 488.971 1215.05 488.971 1216.14 489.085C1226.73 490.291 1238.09 501.57 1246.79 519.736C1248.17 522.578 1249.46 525.591 1250.75 528.777C1251.55 530.9 1252.33 533.11 1253.07 535.406C1254.54 539.97 1255.83 544.533 1256.86 549.182C1257.9 553.745 1258.67 558.395 1259.27 562.958C1259.88 567.521 1260.22 571.998 1260.39 576.303C1260.45 578.484 1260.48 580.637 1260.48 582.76C1260.48 582.875 1260.48 582.961 1260.48 583.019C1260.22 593.523 1258.76 602.994 1256 610.656C1254.88 613.756 1253.5 616.511 1251.95 618.922C1250.49 621.333 1248.77 623.399 1246.79 625.035C1242.23 628.995 1236.97 629.942 1231.64 628.565Z" fill="white"/>
</g>
<g filter="url(#filter5_dd_299_824)">
<path d="M1189.45 261.677C1185.08 260.51 1180.58 256.308 1176.68 249.772C1174.55 246.131 1172.6 241.789 1170.97 236.887C1166.14 222.041 1165.82 206.121 1169.44 196.037C1170.65 192.723 1172.27 190.015 1174.36 188.241C1175.89 186.934 1177.61 186.187 1179.33 186.047C1179.92 185.984 1180.5 185.984 1181.09 186.047C1186.8 186.7 1192.93 192.816 1197.62 202.667C1198.36 204.207 1199.06 205.841 1199.75 207.569C1200.19 208.72 1200.61 209.919 1201.01 211.163C1201.8 213.638 1202.49 216.112 1203.05 218.633C1203.61 221.107 1204.03 223.629 1204.35 226.103C1204.68 228.577 1204.86 231.005 1204.95 233.339C1204.98 234.522 1205 235.689 1205 236.84C1205 236.903 1205 236.949 1205 236.981C1204.86 242.676 1204.07 247.812 1202.59 251.967C1201.98 253.647 1201.24 255.141 1200.4 256.448C1199.62 257.756 1198.69 258.876 1197.62 259.763C1195.16 261.911 1192.33 262.424 1189.45 261.677Z" fill="white"/>
</g>
<g filter="url(#filter6_dd_299_824)">
<path d="M1243.57 648.932C1244.54 647.44 1245.63 646.005 1246.84 644.627C1252.87 637.567 1260.01 633.09 1265.87 632.229C1267.07 632 1268.22 631.942 1269.31 632.057C1271.38 632.315 1273.27 633.09 1274.74 634.468C1276.11 635.931 1277.06 637.826 1277.4 640.15C1277.58 641.298 1277.63 642.503 1277.58 643.766C1277.23 650.224 1273.79 658.231 1267.76 665.291C1258.12 676.656 1245.63 681.133 1239.87 675.451C1234.87 670.371 1236.59 659.178 1243.57 648.932Z" fill="white"/>
</g>
<g filter="url(#filter7_dd_299_824)">
<path d="M1025.57 675.932C1026.54 674.44 1027.63 673.005 1028.84 671.627C1034.87 664.567 1042.01 660.09 1047.87 659.229C1049.07 659 1050.22 658.942 1051.31 659.057C1053.38 659.315 1055.27 660.09 1056.74 661.468C1058.11 662.931 1059.06 664.826 1059.4 667.15C1059.58 668.298 1059.63 669.503 1059.58 670.766C1059.23 677.224 1055.79 685.231 1049.76 692.291C1040.12 703.656 1027.63 708.133 1021.87 702.451C1016.87 697.371 1018.59 686.178 1025.57 675.932Z" fill="white"/>
</g>
</g>
<g filter="url(#filter8_dddd_299_824)">
<path d="M906.074 372.042C906.074 372.214 906.102 372.358 906.16 372.473C906.074 372.3 905.988 372.214 905.988 372.042C905.988 372.042 906.016 372.042 906.074 372.042Z" fill="#9F9F9F"/>
<path d="M725.267 470.195C725.152 470.081 725.038 469.966 724.923 469.851C724.923 469.851 724.951 469.851 725.009 469.851C725.095 469.937 725.095 470.109 725.267 470.195Z" fill="#9F9F9F"/>
<path d="M810.591 411.992C847.355 392.104 883.344 383.235 904.094 387.282C896.086 406.826 868.965 432.139 832.201 451.942C795.523 471.831 759.534 480.613 738.785 476.566C746.792 457.022 773.913 431.795 810.591 411.992Z" fill="#9F9F9F"/>
<path fill-rule="evenodd" clip-rule="evenodd" d="M672.317 521.854C673.866 528.398 676.191 534.769 679.377 540.71C679.377 540.767 679.377 540.796 679.377 540.796C682.046 545.704 685.231 550.181 688.848 554.314C689.077 554.658 689.335 554.974 689.622 555.261C695.563 561.89 702.709 567.573 710.803 572.136C712.065 572.882 713.328 573.571 714.591 574.202C757.812 596.416 825.658 591.594 889.112 557.241C915.803 542.862 938.533 524.954 956.355 505.496C958.651 502.97 960.861 500.416 962.985 497.833C966.831 493.184 970.418 488.448 973.747 483.627C976.789 479.15 979.602 474.644 982.185 470.109C982.587 469.42 982.988 468.703 983.39 467.957C991.053 453.923 996.133 439.63 998.285 425.769C998.974 421.291 999.404 416.9 999.491 412.509C999.548 410.328 999.519 408.176 999.404 406.052C998.802 394.343 995.874 383.15 990.278 372.818C980.549 354.91 964.19 341.995 943.527 334.332C940.829 333.356 938.074 332.438 935.261 331.577C930.153 330.085 924.815 328.879 919.247 327.961C912.818 326.928 906.131 326.268 899.186 325.98C896.775 325.923 894.336 325.894 891.868 325.894C884.463 325.894 876.8 326.411 869.052 327.358C861.303 328.305 853.382 329.683 845.374 331.577C824.022 336.571 802.067 344.75 780.628 356.373C771.76 361.109 763.409 366.275 755.574 371.699C743.692 379.878 732.844 388.746 723.201 398.045C713.558 407.344 705.12 417.159 697.888 427.232C675.33 458.744 665.601 492.667 672.317 521.854ZM904.696 368.513C905.213 369.46 905.557 370.493 905.816 371.527C905.902 371.699 905.988 371.871 906.074 372.043C906.074 372.215 906.103 372.359 906.16 372.474C906.246 372.818 906.246 373.249 906.246 373.679C906.418 374.712 906.59 375.745 906.504 376.865C906.504 377.295 906.418 377.812 906.418 378.328C906.332 379.362 906.16 380.481 905.902 381.686C905.816 382.203 905.643 382.719 905.471 383.236C905.127 384.355 904.782 385.561 904.352 386.766C904.266 386.938 904.18 387.11 904.18 387.283C904.122 387.283 904.094 387.283 904.094 387.283C896.086 406.827 868.965 432.14 832.201 451.942C795.523 471.831 759.534 480.613 738.785 476.567C738.727 476.624 738.699 476.653 738.699 476.653C738.526 476.567 738.354 476.567 738.182 476.481C736.89 476.222 735.685 475.878 734.566 475.533C734.049 475.361 733.533 475.189 733.016 475.017C731.897 474.586 730.95 474.156 729.917 473.553C729.572 473.381 729.056 473.209 728.711 472.951C727.764 472.348 726.903 471.659 726.128 470.97C725.87 470.712 725.525 470.454 725.267 470.195C725.152 470.081 725.038 469.966 724.923 469.851C724.837 469.765 724.751 469.593 724.578 469.42C723.89 468.559 723.201 467.785 722.684 466.838C712.525 447.896 744.898 410.529 795.179 383.408C845.461 356.201 894.451 349.571 904.696 368.513ZM922.691 473.553C912.101 459.347 916.147 427.06 931.645 401.317C947.143 375.659 968.323 366.361 978.913 380.567C989.417 394.773 985.457 427.146 969.959 452.803C954.461 478.461 933.281 487.759 922.691 473.553ZM907.279 508.079C904.266 502.396 906.332 495.422 912.015 492.323C917.611 489.309 924.671 491.376 927.771 497.058C930.784 502.654 928.718 509.715 923.035 512.728C917.439 515.827 910.379 513.675 907.279 508.079Z" fill="#F2F2F2"/>
<path d="M904.696 368.513C905.213 369.46 905.557 370.493 905.816 371.526C905.873 371.698 905.93 371.871 905.988 372.043C905.988 372.215 906.074 372.301 906.16 372.473C906.246 372.818 906.246 373.248 906.246 373.679C906.418 374.712 906.59 375.745 906.504 376.864C906.504 377.295 906.418 377.811 906.418 378.328C906.332 379.361 906.16 380.48 905.902 381.686C905.816 382.202 905.643 382.719 905.471 383.236C905.127 384.355 904.782 385.56 904.352 386.766C904.266 386.938 904.18 387.11 904.18 387.282C904.122 387.282 904.094 387.282 904.094 387.282C883.344 383.236 847.355 392.104 810.591 411.992C773.913 431.795 746.792 457.022 738.785 476.566C738.727 476.624 738.699 476.652 738.699 476.652C738.526 476.566 738.354 476.566 738.182 476.48C736.89 476.222 735.685 475.877 734.566 475.533C734.049 475.361 733.533 475.189 733.016 475.016C731.897 474.586 730.95 474.155 729.917 473.553C729.572 473.381 729.056 473.208 728.711 472.95C727.764 472.347 726.903 471.659 726.128 470.97C725.87 470.712 725.525 470.453 725.267 470.195C725.095 470.109 725.095 469.937 725.009 469.851C724.837 469.678 724.693 469.535 724.578 469.42C723.89 468.559 723.201 467.784 722.684 466.837C712.525 447.895 744.898 410.529 795.179 383.408C845.461 356.201 894.451 349.571 904.696 368.513Z" fill="#CCCCCC"/>
<g filter="url(#filter9_dd_299_824)">
<path d="M922.691 473.553C912.101 459.347 916.147 427.06 931.645 401.317C947.143 375.659 968.323 366.361 978.913 380.567C989.417 394.773 985.457 427.146 969.959 452.804C954.461 478.461 933.281 487.759 922.691 473.553Z" fill="white"/>
</g>
<g filter="url(#filter10_dddd_299_824)">
<path d="M525.907 464.638C515.317 450.432 519.364 418.145 534.861 392.402C550.359 366.744 571.539 357.446 582.129 371.652C592.633 385.858 588.673 418.231 573.175 443.888C557.678 469.546 536.497 478.844 525.907 464.638Z" fill="white"/>
</g>
<g filter="url(#filter11_dddd_299_824)">
<path d="M574.528 235.737C563.938 221.53 564.892 209.994 580.389 184.25C595.887 158.593 617.067 149.294 627.657 163.5C638.161 177.707 634.201 210.079 618.703 235.737C603.205 261.394 585.118 249.943 574.528 235.737Z" fill="white"/>
</g>
<g filter="url(#filter12_dd_299_824)">
<path d="M912.015 492.322C917.611 489.308 924.671 491.375 927.771 497.057C930.784 502.654 928.718 509.714 923.035 512.727C917.439 515.827 910.379 513.674 907.279 508.078C904.266 502.395 906.332 495.421 912.015 492.322Z" fill="white"/>
</g>
<g filter="url(#filter13_dd_299_824)">
<path d="M582.117 577.381C587.713 574.368 594.773 576.434 597.873 582.117C600.886 587.713 598.82 594.773 593.138 597.787C587.541 600.886 580.481 598.734 577.382 593.137C574.368 587.455 576.435 580.481 582.117 577.381Z" fill="white"/>
</g>
<g filter="url(#filter14_dd_299_824)">
<path d="M433.117 683.381C438.713 680.368 445.773 682.434 448.873 688.117C451.886 693.713 449.82 700.773 444.138 703.787C438.541 706.886 431.481 704.734 428.382 699.137C425.368 693.455 427.435 686.481 433.117 683.381Z" fill="white"/>
</g>
</g>
<g filter="url(#filter15_dd_299_824)">
<path fill-rule="evenodd" clip-rule="evenodd" d="M153.574 966.724C166.403 997.978 180.35 1028.8 195.246 1059.37C237.003 1035.26 284.702 981.017 321.724 910.244C380.099 798.746 389.742 688.54 343.249 664.261C296.756 639.895 211.776 710.668 153.402 822.251C141.52 844.895 131.705 867.539 123.956 889.408C128.72 903.012 133.714 916.529 138.937 929.96C138.937 929.96 138.937 929.989 138.937 930.046C144.017 904.992 157.018 870.466 176.046 834.047C210.227 768.784 250.779 722.549 266.621 730.815C267.568 731.331 268.343 732.02 269.118 732.881C269.175 732.938 269.233 732.996 269.29 733.053C269.979 733.914 270.496 734.861 271.012 735.895C271.069 736.124 271.156 736.354 271.27 736.583C271.672 737.616 271.988 738.793 272.217 740.113C272.332 740.458 272.418 740.831 272.476 741.233C272.705 742.495 272.849 743.873 272.906 745.365C272.906 745.882 272.935 746.37 272.992 746.829C272.992 747.173 272.992 747.518 272.992 747.862C272.992 747.862 272.964 747.862 272.906 747.862C273.078 771.711 258.442 816.397 233.473 864.095C208.505 911.88 180.178 949.246 160.462 962.764C160.462 962.821 160.462 962.85 160.462 962.85C160.203 963.022 159.945 963.194 159.687 963.367C159.228 963.653 158.797 963.94 158.395 964.227C157.133 964.974 155.927 965.634 154.779 966.208C154.377 966.38 154.033 966.523 153.746 966.638C153.689 966.696 153.631 966.724 153.574 966.724ZM320.691 808.734C306.226 804.859 297.961 773.089 302.18 737.616C306.485 702.23 321.638 676.573 336.102 680.447C350.481 684.322 358.746 716.092 354.528 751.564C350.309 786.951 335.155 812.608 320.691 808.734ZM313.286 851.955C303.816 847.048 299.252 837.06 303.041 829.742C306.915 822.423 317.677 820.443 327.148 825.437C336.705 830.431 341.268 840.418 337.394 847.736C333.606 855.055 322.757 856.949 313.286 851.955Z" fill="#F2F2F2"/>
<g filter="url(#filter16_dd_299_824)">
<path d="M302.18 737.617C306.485 702.23 321.638 676.573 336.102 680.447C350.481 684.322 358.746 716.092 354.528 751.565C350.309 786.951 335.155 812.609 320.691 808.734C306.226 804.86 297.961 773.089 302.18 737.617Z" fill="white"/>
</g>
</g>
<g filter="url(#filter17_dd_299_824)">
<path d="M317.419 311.429C317.476 311.487 317.505 311.573 317.505 311.688C317.505 311.601 317.419 311.515 317.419 311.429Z" fill="#9F9F9F"/>
<path d="M183.967 445.227C183.852 445.227 183.766 445.198 183.708 445.14C183.708 445.14 183.737 445.14 183.794 445.14C183.794 445.14 183.88 445.227 183.967 445.227Z" fill="#9F9F9F"/>
<path d="M315.697 321.331C309.412 336.226 289.093 362.572 261.972 389.693C234.851 416.814 208.505 437.133 193.609 443.418C199.895 428.437 220.214 402.091 247.249 374.97C274.37 347.935 300.716 327.616 315.697 321.331Z" fill="#9F9F9F"/>
<path fill-rule="evenodd" clip-rule="evenodd" d="M262.919 321.847C250.951 331.663 238.811 342.597 226.843 354.565C225.035 356.373 223.4 358.181 221.591 359.989C161.581 421.808 129.208 486.467 149.01 506.27C169.33 526.589 237.261 491.719 300.63 428.351C364.084 364.983 398.868 297.051 378.549 276.732C362.018 260.201 314.233 280.004 262.919 321.847ZM311.306 390.984C307.173 386.765 307.173 380.05 311.306 375.831C315.439 371.698 322.24 371.698 326.373 375.831C330.506 380.05 330.506 386.765 326.373 390.984C322.24 395.117 315.439 395.117 311.306 390.984ZM316.558 309.88C316.989 310.31 317.247 310.827 317.419 311.429C317.476 311.487 317.505 311.573 317.505 311.688C317.591 311.86 317.505 312.118 317.591 312.29C317.677 312.893 317.763 313.41 317.677 314.098C317.677 314.357 317.591 314.701 317.591 315.046C317.419 315.734 317.333 316.423 317.161 317.198C316.989 317.542 316.902 317.973 316.73 318.317C316.472 319.092 316.214 319.953 315.869 320.9C315.783 321.072 315.783 321.158 315.697 321.245C315.697 321.302 315.697 321.331 315.697 321.331C309.412 336.226 289.093 362.572 261.972 389.693C234.851 416.814 208.505 437.133 193.609 443.418C193.609 443.418 193.581 443.418 193.523 443.418C193.437 443.504 193.351 443.504 193.179 443.59C192.232 443.935 191.371 444.193 190.596 444.451C190.252 444.624 189.821 444.71 189.477 444.796C188.702 445.054 188.013 445.14 187.324 445.226C186.98 445.312 186.636 445.399 186.377 445.399C185.688 445.485 185.172 445.399 184.569 445.312C184.397 445.226 184.139 445.312 183.967 445.226C183.852 445.226 183.766 445.198 183.708 445.14C183.105 444.968 182.589 444.71 182.158 444.279C175.27 437.305 199.722 401.574 236.745 364.466C273.853 327.358 309.584 302.992 316.558 309.88ZM370.025 286.03C377.344 290.077 373.727 310.913 361.846 332.61C349.964 354.306 334.38 368.685 327.062 364.724C319.744 360.678 323.446 339.842 335.327 318.145C347.209 296.448 362.707 282.07 370.025 286.03Z" fill="#F2F2F2"/>
<path d="M317.419 311.429C317.419 311.515 317.505 311.601 317.505 311.687C317.591 311.859 317.505 312.118 317.591 312.29C317.677 312.893 317.763 313.409 317.677 314.098C317.677 314.356 317.591 314.701 317.591 315.045C317.419 315.734 317.333 316.423 317.161 317.197C316.988 317.542 316.902 317.972 316.73 318.317C316.472 319.092 316.213 319.953 315.869 320.9C315.783 321.072 315.783 321.158 315.697 321.244C315.697 321.301 315.697 321.33 315.697 321.33C300.716 327.615 274.37 347.935 247.249 374.969C220.214 402.09 199.895 428.437 193.609 443.418C193.609 443.418 193.581 443.418 193.523 443.418C193.437 443.504 193.351 443.504 193.179 443.59C192.232 443.934 191.371 444.193 190.596 444.451C190.252 444.623 189.821 444.709 189.477 444.795C188.702 445.054 188.013 445.14 187.324 445.226C186.98 445.312 186.635 445.398 186.377 445.398C185.688 445.484 185.172 445.398 184.569 445.312C184.397 445.226 184.139 445.312 183.966 445.226C183.88 445.226 183.794 445.14 183.794 445.14C183.191 444.967 182.589 444.709 182.158 444.279C175.27 437.305 199.722 401.574 236.745 364.465C273.853 327.357 309.584 302.991 316.558 309.879C316.988 310.31 317.247 310.912 317.419 311.429Z" fill="#CCCCCC"/>
<g filter="url(#filter18_dd_299_824)">
<path d="M361.846 332.609C349.964 354.306 334.38 368.684 327.062 364.724C319.744 360.677 323.446 339.841 335.327 318.145C347.209 296.448 362.707 282.069 370.025 286.03C377.343 290.077 373.727 310.912 361.846 332.609Z" fill="white"/>
</g>
<g filter="url(#filter19_dd_299_824)">
<path d="M311.306 375.831C315.439 371.698 322.24 371.698 326.373 375.831C330.506 380.05 330.506 386.766 326.373 390.984C322.24 395.117 315.439 395.117 311.306 390.984C307.173 386.766 307.173 380.05 311.306 375.831Z" fill="white"/>
</g>
</g>
<g filter="url(#filter20_dddd_299_824)">
<path d="M893.762 94.7204C884.894 99.0253 865.177 102.9 842.016 104.363C818.856 105.827 798.881 104.536 789.583 101.35C798.365 97.1312 818.081 93.2567 841.242 91.793C864.316 90.3293 884.377 91.6208 893.762 94.7204Z" fill="#9F9F9F"/>
<path d="M898.497 90.9322C898.44 90.9896 898.411 91.0471 898.411 91.1045C898.411 91.0184 898.411 91.0183 898.411 90.9322C898.411 90.9322 898.44 90.9322 898.497 90.9322Z" fill="#9F9F9F"/>
<path d="M784.417 98.3369C784.417 98.3369 784.388 98.3081 784.331 98.2507C784.388 98.2507 784.417 98.2507 784.417 98.2507C784.417 98.3368 784.417 98.3369 784.417 98.3369Z" fill="#9F9F9F"/>
<path fill-rule="evenodd" clip-rule="evenodd" d="M840.122 74.4017C809.041 76.382 781.662 82.8394 764.184 91.1909C764.126 91.2483 764.097 91.277 764.097 91.277C761.428 92.5685 759.104 93.8599 757.037 95.1514C748.6 100.403 743.864 106.258 744.209 112.113C744.898 122.961 762.634 131.485 789.066 135.446C794.318 136.306 800 136.909 805.855 137.34C811.796 137.77 817.995 137.942 824.366 137.942C830.738 137.942 837.367 137.77 844.169 137.34C854.329 136.737 864.058 135.532 873.184 134.068C888.424 131.571 901.941 127.955 912.789 123.65C917.18 122.014 921.055 120.206 924.499 118.226C929.579 115.385 933.625 112.371 936.294 109.272C936.639 108.755 936.897 108.325 937.241 107.894C937.672 107.291 938.188 106.689 938.447 106.086C939.652 103.934 940.169 101.781 940.083 99.6286C939.824 95.8403 937.5 92.3963 933.539 89.2968C929.406 86.0251 923.293 83.1838 915.717 80.773C897.292 75.0905 870.171 72.4215 840.122 74.4017ZM881.536 119.001C879.814 114.265 889.801 106.258 903.921 101.092C917.955 96.0124 930.784 95.7542 932.506 100.49C934.228 105.225 924.241 113.232 910.12 118.312C896.086 123.392 883.258 123.736 881.536 119.001ZM869.912 117.795C873.529 117.537 876.542 120.206 876.8 123.736C877.059 127.352 874.303 130.366 870.773 130.624C867.243 130.882 864.144 128.127 863.886 124.597C863.713 121.067 866.382 117.968 869.912 117.795ZM898.669 89.8994C898.669 90.2438 898.612 90.5882 898.497 90.9326C898.44 90.99 898.411 91.0474 898.411 91.1048C898.325 91.1909 898.239 91.2771 898.153 91.4492C897.98 91.7075 897.808 91.9658 897.55 92.3102C897.378 92.3963 897.206 92.4823 897.119 92.6545C896.775 92.9128 896.431 93.1712 896 93.4294C895.828 93.6016 895.656 93.6878 895.398 93.7739C894.996 94.0609 894.508 94.3479 893.934 94.6348C893.876 94.6348 893.819 94.6635 893.762 94.7209C884.894 99.0258 865.177 102.9 842.017 104.364C818.856 105.828 798.881 104.536 789.583 101.351C789.525 101.408 789.496 101.437 789.496 101.437C789.439 101.379 789.382 101.351 789.324 101.351C788.75 101.121 788.234 100.891 787.775 100.662C787.516 100.576 787.258 100.489 787.086 100.403C786.655 100.231 786.311 99.973 785.966 99.7147C785.794 99.6286 785.622 99.5424 785.45 99.4563C785.106 99.198 784.933 98.9397 784.675 98.6814C784.589 98.5953 784.503 98.5093 784.417 98.3371C784.417 98.3371 784.388 98.3083 784.331 98.2509C784.158 97.9065 784.044 97.5622 783.986 97.2178C783.642 91.277 809.041 84.9058 840.639 82.8394C872.323 80.8591 898.325 83.9586 898.669 89.8994Z" fill="#F2F2F2"/>
<path d="M898.669 89.8993C898.669 90.2437 898.583 90.5881 898.411 90.9325C898.411 91.0186 898.411 91.0186 898.411 91.1047C898.325 91.1908 898.239 91.2769 898.153 91.4491C897.98 91.7074 897.808 91.9657 897.55 92.3101C897.378 92.3962 897.206 92.4822 897.119 92.6544C896.775 92.9127 896.431 93.171 896 93.4293C895.828 93.6015 895.656 93.6876 895.398 93.7737C894.996 94.0607 894.508 94.3477 893.934 94.6347C893.877 94.6347 893.819 94.6634 893.762 94.7208C884.377 91.6213 864.316 90.3298 841.242 91.7934C818.081 93.2571 798.365 97.1316 789.583 101.35C789.525 101.408 789.497 101.437 789.497 101.437C789.439 101.379 789.382 101.35 789.324 101.35C788.75 101.121 788.234 100.891 787.775 100.662C787.516 100.576 787.258 100.489 787.086 100.403C786.655 100.231 786.311 99.9729 785.966 99.7146C785.794 99.6285 785.622 99.5423 785.45 99.4562C785.106 99.1979 784.933 98.9396 784.675 98.6813C784.589 98.5952 784.503 98.5092 784.417 98.337C784.417 98.337 784.417 98.3369 784.417 98.2508C784.158 97.9064 784.072 97.5621 783.986 97.2177C783.642 91.2769 809.041 84.9057 840.639 82.8393C872.323 80.859 898.325 83.9585 898.669 89.8993Z" fill="#CCCCCC"/>
<g filter="url(#filter21_dd_299_824)">
<path d="M881.536 119.001C879.814 114.266 889.801 106.259 903.921 101.093C917.955 96.0129 930.784 95.7546 932.506 100.49C934.228 105.225 924.241 113.233 910.12 118.312C896.086 123.392 883.258 123.737 881.536 119.001Z" fill="white"/>
</g>
<g filter="url(#filter22_dd_299_824)">
<path d="M869.912 117.795C873.529 117.537 876.542 120.206 876.8 123.736C877.059 127.352 874.303 130.366 870.773 130.624C867.243 130.882 864.144 128.127 863.886 124.597C863.713 121.067 866.382 117.967 869.912 117.795Z" fill="white"/>
</g>
</g>
<g filter="url(#filter23_dddd_299_824)">
<path d="M1234.97 124.905C1229.45 126.026 1217.98 125.364 1204.95 122.877C1191.91 120.39 1181.04 116.831 1176.34 113.744C1181.81 112.658 1193.28 113.32 1206.31 115.807C1219.29 118.282 1230.22 121.853 1234.97 124.905Z" fill="#9F9F9F"/>
<path d="M1238.13 123.482C1238.09 123.505 1238.07 123.533 1238.06 123.565C1238.07 123.517 1238.07 123.517 1238.09 123.47C1238.09 123.47 1238.1 123.474 1238.13 123.482Z" fill="#9F9F9F"/>
<path d="M1173.91 111.34C1173.91 111.34 1173.9 111.32 1173.88 111.28C1173.91 111.288 1173.92 111.292 1173.92 111.292C1173.91 111.34 1173.91 111.34 1173.91 111.34Z" fill="#9F9F9F"/>
<path fill-rule="evenodd" clip-rule="evenodd" d="M1208.16 106.017C1190.67 102.689 1174.59 102.366 1163.73 104.502C1163.69 104.526 1163.67 104.537 1163.67 104.537C1162 104.872 1160.53 105.257 1159.21 105.677C1153.79 107.384 1150.33 109.952 1149.69 113.243C1148.52 119.348 1157.13 126.592 1171.2 132.549C1173.99 133.773 1177.05 134.916 1180.23 135.988C1183.46 137.072 1186.87 138.05 1190.39 138.957C1193.92 139.864 1197.62 140.713 1201.44 141.443C1207.16 142.556 1212.71 143.273 1217.98 143.762C1226.77 144.549 1234.77 144.472 1241.39 143.633C1244.05 143.352 1246.46 142.902 1248.64 142.296C1251.86 141.446 1254.53 140.354 1256.45 139.018C1256.71 138.781 1256.92 138.579 1257.17 138.39C1257.5 138.117 1257.87 137.857 1258.1 137.56C1259.07 136.54 1259.66 135.422 1259.92 134.218C1260.32 132.083 1259.52 129.845 1257.77 127.565C1255.95 125.165 1252.97 122.722 1249.11 120.308C1239.72 114.538 1225.08 109.199 1208.16 106.017ZM1224.75 136.609C1224.47 133.741 1231.14 130.73 1239.69 129.88C1248.18 129.065 1255.32 130.748 1255.6 133.616C1255.88 136.483 1249.21 139.495 1240.67 140.297C1232.18 141.111 1225.02 139.476 1224.75 136.609ZM1218.48 134.286C1220.52 134.658 1221.81 136.565 1221.45 138.556C1221.08 140.595 1219.12 141.872 1217.13 141.512C1215.14 141.153 1213.82 139.186 1214.18 137.194C1214.58 135.215 1216.5 133.879 1218.48 134.286ZM1238.38 122.934C1238.33 123.125 1238.25 123.308 1238.13 123.482C1238.09 123.505 1238.07 123.533 1238.06 123.565C1238 123.6 1237.94 123.636 1237.87 123.719C1237.74 123.837 1237.6 123.956 1237.41 124.11C1237.31 124.133 1237.2 124.156 1237.13 124.239C1236.9 124.333 1236.67 124.427 1236.4 124.509C1236.28 124.58 1236.17 124.603 1236.01 124.614C1235.75 124.716 1235.44 124.805 1235.08 124.882C1235.05 124.874 1235.01 124.882 1234.97 124.905C1229.45 126.026 1217.98 125.365 1204.95 122.877C1191.91 120.39 1181.04 116.831 1176.34 113.744C1176.3 113.767 1176.28 113.779 1176.28 113.779C1176.26 113.739 1176.23 113.715 1176.2 113.707C1175.92 113.498 1175.66 113.297 1175.44 113.105C1175.31 113.02 1175.18 112.936 1175.1 112.864C1174.88 112.707 1174.73 112.515 1174.57 112.323C1174.49 112.251 1174.41 112.179 1174.32 112.106C1174.17 111.914 1174.11 111.747 1174.01 111.567C1173.97 111.507 1173.94 111.447 1173.91 111.34C1173.91 111.34 1173.9 111.32 1173.88 111.28C1173.83 111.064 1173.82 110.857 1173.83 110.658C1174.49 107.32 1189.46 107.408 1207.25 110.763C1225.07 114.178 1239.03 119.596 1238.38 122.934Z" fill="#F2F2F2"/>
<path d="M1238.38 122.934C1238.33 123.125 1238.23 123.303 1238.09 123.469C1238.07 123.517 1238.07 123.517 1238.06 123.565C1238 123.6 1237.94 123.636 1237.87 123.719C1237.74 123.837 1237.6 123.956 1237.41 124.11C1237.31 124.133 1237.2 124.156 1237.13 124.239C1236.9 124.333 1236.67 124.427 1236.4 124.509C1236.28 124.579 1236.17 124.603 1236.01 124.614C1235.75 124.715 1235.44 124.805 1235.08 124.882C1235.05 124.874 1235.01 124.881 1234.97 124.905C1230.22 121.853 1219.29 118.281 1206.31 115.807C1193.28 113.319 1181.81 112.658 1176.34 113.743C1176.3 113.767 1176.28 113.779 1176.28 113.779C1176.26 113.739 1176.23 113.715 1176.2 113.707C1175.92 113.498 1175.66 113.297 1175.44 113.104C1175.31 113.02 1175.18 112.936 1175.1 112.863C1174.88 112.707 1174.73 112.515 1174.57 112.323C1174.49 112.25 1174.41 112.178 1174.32 112.106C1174.17 111.914 1174.11 111.746 1174.01 111.567C1173.97 111.507 1173.94 111.447 1173.91 111.339C1173.91 111.339 1173.91 111.339 1173.92 111.292C1173.83 111.064 1173.83 110.861 1173.83 110.658C1174.49 107.32 1189.46 107.408 1207.25 110.763C1225.07 114.177 1239.03 119.596 1238.38 122.934Z" fill="#CCCCCC"/>
<g filter="url(#filter24_dd_299_824)">
<path d="M1224.75 136.609C1224.47 133.742 1231.14 130.73 1239.69 129.88C1248.18 129.065 1255.32 130.749 1255.6 133.616C1255.88 136.483 1249.21 139.495 1240.67 140.297C1232.18 141.112 1225.02 139.476 1224.75 136.609Z" fill="white"/>
</g>
<g filter="url(#filter25_dd_299_824)">
<path d="M1218.48 134.286C1220.52 134.658 1221.81 136.565 1221.45 138.556C1221.08 140.595 1219.12 141.872 1217.13 141.512C1215.14 141.152 1213.82 139.186 1214.18 137.194C1214.58 135.215 1216.5 133.879 1218.48 134.286Z" fill="white"/>
</g>
</g>
<g filter="url(#filter26_dddd_299_824)">
<path d="M55.4178 583.173C64.7164 644.991 77.4589 706.379 93.8176 766.993C64.0276 793.511 32.9461 818.738 -0.1157 842.501C-12.0834 851.111 -24.1372 859.548 -36.1909 868.158C-41.1273 871.602 -46.0636 875.075 -50.9999 878.576C-49.7372 871.803 -48.3882 865.03 -46.9532 858.257C-46.4941 856.191 -46.0349 854.124 -45.5757 852.058C-44.5425 847.294 -43.4807 842.53 -42.3901 837.766C-41.8735 835.47 -41.3569 833.174 -40.8403 830.878C-39.6923 826.056 -38.487 821.263 -37.2242 816.499C-36.765 814.49 -36.2771 812.481 -35.7605 810.472C-33.9811 803.814 -32.1443 797.156 -30.2501 790.497C-30.2501 790.497 -30.2501 790.469 -30.2501 790.411C-28.2412 783.294 -26.1462 776.205 -23.965 769.145C-23.1614 766.562 -22.3291 763.979 -21.4681 761.396C-19.0574 753.647 -16.5605 745.985 -13.8914 738.322C-13.834 738.207 -13.8054 738.092 -13.8054 737.977C-13.748 737.805 -13.6619 737.604 -13.5471 737.375C-10.505 728.535 -7.31927 719.696 -3.99013 710.856C-3.87534 710.569 -3.76062 710.282 -3.64582 709.995C-0.43148 701.558 2.89774 693.178 6.34167 684.855C6.97307 683.42 7.57573 681.985 8.14972 680.55C11.5937 672.284 15.1237 664.105 18.8259 655.926C18.8833 655.754 18.9407 655.61 18.9981 655.495C19.1129 655.208 19.2277 654.921 19.3425 654.634C21.6959 649.411 24.1066 644.216 26.5748 639.05C26.6322 638.993 26.6609 638.936 26.6609 638.878C26.7757 638.649 26.8905 638.419 27.0053 638.189C27.1201 637.902 27.2348 637.644 27.3496 637.415C27.3496 637.415 27.3496 637.386 27.3496 637.328C30.9083 629.867 34.5819 622.433 38.3702 615.029C38.3702 614.972 38.3989 614.943 38.4563 614.943C39.2312 613.307 40.1783 611.671 41.0393 610.035C42.7038 606.821 44.3684 603.607 46.033 600.392C47.4106 597.895 48.702 595.312 49.9935 592.816C50.0509 592.816 50.0796 592.816 50.0796 592.816C50.9406 591.208 51.8016 589.601 52.6626 587.994C53.5235 586.272 54.4707 584.636 55.4178 583C55.4178 583.058 55.4178 583.115 55.4178 583.173Z" fill="url(#paint5_linear_299_824)"/>
</g>
<g filter="url(#filter27_dd_299_824)">
<path d="M78.54 672.235C66.6584 693.932 51.0746 708.31 43.7562 704.35C36.4378 700.303 40.1401 679.467 52.0216 657.771C63.9032 636.074 79.401 621.695 86.7193 625.656C94.0377 629.703 90.4216 650.538 78.54 672.235Z" fill="white"/>
</g>
<g filter="url(#filter28_dd_299_824)">
<path d="M1173.19 421.898C1171.47 417.162 1181.46 409.155 1195.58 403.989C1209.61 398.909 1222.44 398.651 1224.16 403.387C1225.89 408.122 1215.9 416.129 1201.78 421.209C1187.74 426.289 1174.92 426.633 1173.19 421.898Z" fill="white"/>
</g>
<g filter="url(#filter29_dd_299_824)">
<path d="M766.1 227.1C770.232 222.967 777.034 222.967 781.167 227.1C785.299 231.319 785.299 238.034 781.167 242.253C777.034 246.386 770.232 246.386 766.1 242.253C761.967 238.034 761.967 231.319 766.1 227.1Z" fill="white"/>
</g>
<g filter="url(#filter30_dd_299_824)">
<path d="M698.54 649.235C686.658 670.932 671.075 685.31 663.756 681.35C656.438 677.303 660.14 656.467 672.022 634.771C683.903 613.074 699.401 598.695 706.719 602.656C714.038 606.703 710.422 627.538 698.54 649.235Z" fill="white"/>
</g>
<g filter="url(#filter31_dd_299_824)">
<path d="M418.362 490.154C418.389 490.181 418.402 490.222 418.402 490.276C418.402 490.236 418.362 490.195 418.362 490.154Z" fill="#9F9F9F"/>
<path d="M355.275 553.404C355.22 553.404 355.18 553.391 355.152 553.364C355.152 553.364 355.166 553.364 355.193 553.364C355.193 553.364 355.234 553.404 355.275 553.404Z" fill="#9F9F9F"/>
<path d="M417.548 494.834C414.576 501.876 404.971 514.33 392.15 527.151C379.329 539.972 366.874 549.578 359.833 552.549C362.804 545.467 372.41 533.012 385.19 520.191C398.011 507.411 410.465 497.806 417.548 494.834Z" fill="#9F9F9F"/>
<path fill-rule="evenodd" clip-rule="evenodd" d="M392.598 495.079C386.94 499.719 381.201 504.888 375.544 510.546C374.689 511.4 373.916 512.255 373.061 513.11C344.692 542.333 329.389 572.9 338.75 582.261C348.355 591.867 380.469 575.383 410.425 545.427C440.422 515.47 456.865 483.357 447.259 473.752C439.445 465.937 416.856 475.298 392.598 495.079ZM415.472 527.762C413.518 525.768 413.518 522.593 415.472 520.599C417.425 518.645 420.641 518.645 422.594 520.599C424.548 522.593 424.548 525.768 422.594 527.762C420.641 529.716 417.425 529.716 415.472 527.762ZM417.955 489.422C418.158 489.625 418.28 489.869 418.362 490.154C418.389 490.181 418.402 490.222 418.402 490.276C418.443 490.358 418.402 490.48 418.443 490.561C418.484 490.846 418.524 491.09 418.484 491.416C418.484 491.538 418.443 491.701 418.443 491.864C418.362 492.189 418.321 492.515 418.239 492.881C418.158 493.044 418.117 493.248 418.036 493.41C417.914 493.777 417.792 494.184 417.629 494.631C417.588 494.713 417.588 494.753 417.548 494.794C417.548 494.821 417.548 494.835 417.548 494.835C414.576 501.876 404.971 514.331 392.15 527.152C379.329 539.973 366.874 549.578 359.833 552.549C359.833 552.549 359.82 552.549 359.792 552.549C359.752 552.59 359.711 552.59 359.63 552.631C359.182 552.793 358.775 552.916 358.409 553.038C358.246 553.119 358.042 553.16 357.879 553.2C357.513 553.323 357.188 553.363 356.862 553.404C356.699 553.445 356.536 553.485 356.414 553.485C356.089 553.526 355.844 553.485 355.559 553.445C355.478 553.404 355.356 553.445 355.275 553.404C355.22 553.404 355.18 553.39 355.152 553.363C354.868 553.282 354.623 553.16 354.42 552.956C351.164 549.659 362.723 532.768 380.224 515.226C397.767 497.684 414.658 486.165 417.955 489.422ZM443.23 478.147C446.69 480.06 444.98 489.91 439.363 500.167C433.747 510.423 426.38 517.221 422.92 515.348C419.46 513.435 421.211 503.586 426.827 493.329C432.444 483.072 439.77 476.275 443.23 478.147Z" fill="#F2F2F2"/>
<path d="M418.361 490.154C418.361 490.195 418.402 490.235 418.402 490.276C418.443 490.357 418.402 490.48 418.443 490.561C418.484 490.846 418.524 491.09 418.484 491.416C418.484 491.538 418.443 491.701 418.443 491.863C418.361 492.189 418.321 492.515 418.239 492.881C418.158 493.044 418.117 493.247 418.036 493.41C417.914 493.776 417.792 494.183 417.629 494.631C417.588 494.712 417.588 494.753 417.547 494.794C417.547 494.821 417.547 494.835 417.547 494.835C410.465 497.806 398.011 507.411 385.19 520.191C372.41 533.012 362.804 545.467 359.833 552.549C359.833 552.549 359.819 552.549 359.792 552.549C359.752 552.59 359.711 552.59 359.63 552.63C359.182 552.793 358.775 552.915 358.409 553.037C358.246 553.119 358.042 553.159 357.879 553.2C357.513 553.322 357.187 553.363 356.862 553.404C356.699 553.444 356.536 553.485 356.414 553.485C356.089 553.526 355.844 553.485 355.559 553.444C355.478 553.404 355.356 553.444 355.275 553.404C355.234 553.404 355.193 553.363 355.193 553.363C354.908 553.282 354.623 553.159 354.42 552.956C351.164 549.659 362.723 532.768 380.224 515.226C397.767 497.684 414.658 486.165 417.954 489.421C418.158 489.625 418.28 489.91 418.361 490.154Z" fill="#CCCCCC"/>
<g filter="url(#filter32_dd_299_824)">
<path d="M439.363 500.167C433.747 510.423 426.38 517.22 422.92 515.348C419.46 513.435 421.211 503.585 426.827 493.329C432.444 483.072 439.77 476.275 443.23 478.147C446.69 480.06 444.98 489.91 439.363 500.167Z" fill="white"/>
</g>
<g filter="url(#filter33_dd_299_824)">
<path d="M415.472 520.599C417.425 518.645 420.641 518.645 422.594 520.599C424.548 522.593 424.548 525.768 422.594 527.762C420.641 529.716 417.425 529.716 415.472 527.762C413.518 525.768 413.518 522.593 415.472 520.599Z" fill="white"/>
</g>
</g>
<defs>
<filter id="filter0_dddd_299_824" x="33.9997" y="42.001" width="1413.65" height="1291.28" filterUnits="userSpaceOnUse" color-interpolation-filters="sRGB">
<feFlood flood-opacity="0" result="BackgroundImageFix"/>
<feColorMatrix in="SourceAlpha" type="matrix" values="0 0 0 0 0 0 0 0 0 0 0 0 0 0 0 0 0 0 127 0" result="hardAlpha"/>
<feOffset dx="20" dy="20"/>
<feGaussianBlur stdDeviation="20"/>
<feComposite in2="hardAlpha" operator="out"/>
<feColorMatrix type="matrix" values="0 0 0 0 0.692222 0 0 0 0 0.716944 0 0 0 0 0.741667 0 0 0 1 0"/>
<feBlend mode="normal" in2="BackgroundImageFix" result="effect1_dropShadow_299_824"/>
<feColorMatrix in="SourceAlpha" type="matrix" values="0 0 0 0 0 0 0 0 0 0 0 0 0 0 0 0 0 0 127 0" result="hardAlpha"/>
<feOffset dx="-20" dy="-20"/>
<feGaussianBlur stdDeviation="20"/>
<feComposite in2="hardAlpha" operator="out"/>
<feColorMatrix type="matrix" values="0 0 0 0 1 0 0 0 0 1 0 0 0 0 1 0 0 0 1 0"/>
<feBlend mode="normal" in2="effect1_dropShadow_299_824" result="effect2_dropShadow_299_824"/>
<feColorMatrix in="SourceAlpha" type="matrix" values="0 0 0 0 0 0 0 0 0 0 0 0 0 0 0 0 0 0 127 0" result="hardAlpha"/>
<feOffset dx="20" dy="20"/>
<feGaussianBlur stdDeviation="20"/>
<feComposite in2="hardAlpha" operator="out"/>
<feColorMatrix type="matrix" values="0 0 0 0 0.692222 0 0 0 0 0.716944 0 0 0 0 0.741667 0 0 0 1 0"/>
<feBlend mode="normal" in2="effect2_dropShadow_299_824" result="effect3_dropShadow_299_824"/>
<feColorMatrix in="SourceAlpha" type="matrix" values="0 0 0 0 0 0 0 0 0 0 0 0 0 0 0 0 0 0 127 0" result="hardAlpha"/>
<feOffset dx="-20" dy="-20"/>
<feGaussianBlur stdDeviation="20"/>
<feComposite in2="hardAlpha" operator="out"/>
<feColorMatrix type="matrix" values="0 0 0 0 1 0 0 0 0 1 0 0 0 0 1 0 0 0 1 0"/>
<feBlend mode="normal" in2="effect3_dropShadow_299_824" result="effect4_dropShadow_299_824"/>
<feBlend mode="normal" in="SourceGraphic" in2="effect4_dropShadow_299_824" result="shape"/>
</filter>
<filter id="filter1_dddd_299_824" x="23.9999" y="154" width="479.557" height="646.158" filterUnits="userSpaceOnUse" color-interpolation-filters="sRGB">
<feFlood flood-opacity="0" result="BackgroundImageFix"/>
<feColorMatrix in="SourceAlpha" type="matrix" values="0 0 0 0 0 0 0 0 0 0 0 0 0 0 0 0 0 0 127 0" result="hardAlpha"/>
<feOffset dx="10" dy="10"/>
<feGaussianBlur stdDeviation="10"/>
<feComposite in2="hardAlpha" operator="out"/>
<feColorMatrix type="matrix" values="0 0 0 0 0.692222 0 0 0 0 0.716944 0 0 0 0 0.741667 0 0 0 1 0"/>
<feBlend mode="normal" in2="BackgroundImageFix" result="effect1_dropShadow_299_824"/>
<feColorMatrix in="SourceAlpha" type="matrix" values="0 0 0 0 0 0 0 0 0 0 0 0 0 0 0 0 0 0 127 0" result="hardAlpha"/>
<feOffset dx="-10" dy="-10"/>
<feGaussianBlur stdDeviation="10"/>
<feComposite in2="hardAlpha" operator="out"/>
<feColorMatrix type="matrix" values="0 0 0 0 1 0 0 0 0 1 0 0 0 0 1 0 0 0 1 0"/>
<feBlend mode="normal" in2="effect1_dropShadow_299_824" result="effect2_dropShadow_299_824"/>
<feColorMatrix in="SourceAlpha" type="matrix" values="0 0 0 0 0 0 0 0 0 0 0 0 0 0 0 0 0 0 127 0" result="hardAlpha"/>
<feOffset dx="10" dy="10"/>
<feGaussianBlur stdDeviation="10"/>
<feComposite in2="hardAlpha" operator="out"/>
<feColorMatrix type="matrix" values="0 0 0 0 0.692222 0 0 0 0 0.716944 0 0 0 0 0.741667 0 0 0 1 0"/>
<feBlend mode="normal" in2="effect2_dropShadow_299_824" result="effect3_dropShadow_299_824"/>
<feColorMatrix in="SourceAlpha" type="matrix" values="0 0 0 0 0 0 0 0 0 0 0 0 0 0 0 0 0 0 127 0" result="hardAlpha"/>
<feOffset dx="-10" dy="-10"/>
<feGaussianBlur stdDeviation="10"/>
<feComposite in2="hardAlpha" operator="out"/>
<feColorMatrix type="matrix" values="0 0 0 0 1 0 0 0 0 1 0 0 0 0 1 0 0 0 1 0"/>
<feBlend mode="normal" in2="effect3_dropShadow_299_824" result="effect4_dropShadow_299_824"/>
<feBlend mode="normal" in="SourceGraphic" in2="effect4_dropShadow_299_824" result="shape"/>
</filter>
<filter id="filter2_dd_299_824" x="218.971" y="50.7715" width="931.757" height="1252.98" filterUnits="userSpaceOnUse" color-interpolation-filters="sRGB">
<feFlood flood-opacity="0" result="BackgroundImageFix"/>
<feColorMatrix in="SourceAlpha" type="matrix" values="0 0 0 0 0 0 0 0 0 0 0 0 0 0 0 0 0 0 127 0" result="hardAlpha"/>
<feOffset dx="10" dy="10"/>
<feGaussianBlur stdDeviation="10"/>
<feComposite in2="hardAlpha" operator="out"/>
<feColorMatrix type="matrix" values="0 0 0 0 0.692222 0 0 0 0 0.716944 0 0 0 0 0.741667 0 0 0 1 0"/>
<feBlend mode="normal" in2="BackgroundImageFix" result="effect1_dropShadow_299_824"/>
<feColorMatrix in="SourceAlpha" type="matrix" values="0 0 0 0 0 0 0 0 0 0 0 0 0 0 0 0 0 0 127 0" result="hardAlpha"/>
<feOffset dx="-10" dy="-10"/>
<feGaussianBlur stdDeviation="10"/>
<feComposite in2="hardAlpha" operator="out"/>
<feColorMatrix type="matrix" values="0 0 0 0 1 0 0 0 0 1 0 0 0 0 1 0 0 0 1 0"/>
<feBlend mode="normal" in2="effect1_dropShadow_299_824" result="effect2_dropShadow_299_824"/>
<feBlend mode="normal" in="SourceGraphic" in2="effect2_dropShadow_299_824" result="shape"/>
</filter>
<filter id="filter3_dddd_299_824" x="989" y="156" width="430" height="684.936" filterUnits="userSpaceOnUse" color-interpolation-filters="sRGB">
<feFlood flood-opacity="0" result="BackgroundImageFix"/>
<feColorMatrix in="SourceAlpha" type="matrix" values="0 0 0 0 0 0 0 0 0 0 0 0 0 0 0 0 0 0 127 0" result="hardAlpha"/>
<feOffset dx="10" dy="10"/>
<feGaussianBlur stdDeviation="10"/>
<feComposite in2="hardAlpha" operator="out"/>
<feColorMatrix type="matrix" values="0 0 0 0 0.692222 0 0 0 0 0.716944 0 0 0 0 0.741667 0 0 0 1 0"/>
<feBlend mode="normal" in2="BackgroundImageFix" result="effect1_dropShadow_299_824"/>
<feColorMatrix in="SourceAlpha" type="matrix" values="0 0 0 0 0 0 0 0 0 0 0 0 0 0 0 0 0 0 127 0" result="hardAlpha"/>
<feOffset dx="-10" dy="-10"/>
<feGaussianBlur stdDeviation="10"/>
<feComposite in2="hardAlpha" operator="out"/>
<feColorMatrix type="matrix" values="0 0 0 0 1 0 0 0 0 1 0 0 0 0 1 0 0 0 1 0"/>
<feBlend mode="normal" in2="effect1_dropShadow_299_824" result="effect2_dropShadow_299_824"/>
<feColorMatrix in="SourceAlpha" type="matrix" values="0 0 0 0 0 0 0 0 0 0 0 0 0 0 0 0 0 0 127 0" result="hardAlpha"/>
<feOffset dx="10" dy="10"/>
<feGaussianBlur stdDeviation="10"/>
<feComposite in2="hardAlpha" operator="out"/>
<feColorMatrix type="matrix" values="0 0 0 0 0.692222 0 0 0 0 0.716944 0 0 0 0 0.741667 0 0 0 1 0"/>
<feBlend mode="normal" in2="effect2_dropShadow_299_824" result="effect3_dropShadow_299_824"/>
<feColorMatrix in="SourceAlpha" type="matrix" values="0 0 0 0 0 0 0 0 0 0 0 0 0 0 0 0 0 0 127 0" result="hardAlpha"/>
<feOffset dx="-10" dy="-10"/>
<feGaussianBlur stdDeviation="10"/>
<feComposite in2="hardAlpha" operator="out"/>
<feColorMatrix type="matrix" values="0 0 0 0 1 0 0 0 0 1 0 0 0 0 1 0 0 0 1 0"/>
<feBlend mode="normal" in2="effect3_dropShadow_299_824" result="effect4_dropShadow_299_824"/>
<feBlend mode="normal" in="SourceGraphic" in2="effect4_dropShadow_299_824" result="shape"/>
</filter>
<filter id="filter4_dd_299_824" x="1175" y="473.999" width="100.478" height="170.161" filterUnits="userSpaceOnUse" color-interpolation-filters="sRGB">
<feFlood flood-opacity="0" result="BackgroundImageFix"/>
<feColorMatrix in="SourceAlpha" type="matrix" values="0 0 0 0 0 0 0 0 0 0 0 0 0 0 0 0 0 0 127 0" result="hardAlpha"/>
<feOffset dx="5" dy="5"/>
<feGaussianBlur stdDeviation="5"/>
<feComposite in2="hardAlpha" operator="out"/>
<feColorMatrix type="matrix" values="0 0 0 0 0.692222 0 0 0 0 0.716944 0 0 0 0 0.741667 0 0 0 1 0"/>
<feBlend mode="normal" in2="BackgroundImageFix" result="effect1_dropShadow_299_824"/>
<feColorMatrix in="SourceAlpha" type="matrix" values="0 0 0 0 0 0 0 0 0 0 0 0 0 0 0 0 0 0 127 0" result="hardAlpha"/>
<feOffset dx="-5" dy="-5"/>
<feGaussianBlur stdDeviation="5"/>
<feComposite in2="hardAlpha" operator="out"/>
<feColorMatrix type="matrix" values="0 0 0 0 1 0 0 0 0 1 0 0 0 0 1 0 0 0 1 0"/>
<feBlend mode="normal" in2="effect1_dropShadow_299_824" result="effect2_dropShadow_299_824"/>
<feBlend mode="normal" in="SourceGraphic" in2="effect2_dropShadow_299_824" result="shape"/>
</filter>
<filter id="filter5_dd_299_824" x="1152" y="171" width="68" height="106" filterUnits="userSpaceOnUse" color-interpolation-filters="sRGB">
<feFlood flood-opacity="0" result="BackgroundImageFix"/>
<feColorMatrix in="SourceAlpha" type="matrix" values="0 0 0 0 0 0 0 0 0 0 0 0 0 0 0 0 0 0 127 0" result="hardAlpha"/>
<feOffset dx="5" dy="5"/>
<feGaussianBlur stdDeviation="5"/>
<feComposite in2="hardAlpha" operator="out"/>
<feColorMatrix type="matrix" values="0 0 0 0 0.692222 0 0 0 0 0.716944 0 0 0 0 0.741667 0 0 0 1 0"/>
<feBlend mode="normal" in2="BackgroundImageFix" result="effect1_dropShadow_299_824"/>
<feColorMatrix in="SourceAlpha" type="matrix" values="0 0 0 0 0 0 0 0 0 0 0 0 0 0 0 0 0 0 127 0" result="hardAlpha"/>
<feOffset dx="-5" dy="-5"/>
<feGaussianBlur stdDeviation="5"/>
<feComposite in2="hardAlpha" operator="out"/>
<feColorMatrix type="matrix" values="0 0 0 0 1 0 0 0 0 1 0 0 0 0 1 0 0 0 1 0"/>
<feBlend mode="normal" in2="effect1_dropShadow_299_824" result="effect2_dropShadow_299_824"/>
<feBlend mode="normal" in="SourceGraphic" in2="effect2_dropShadow_299_824" result="shape"/>
</filter>
<filter id="filter6_dd_299_824" x="1222" y="616.999" width="70.5978" height="75.9121" filterUnits="userSpaceOnUse" color-interpolation-filters="sRGB">
<feFlood flood-opacity="0" result="BackgroundImageFix"/>
<feColorMatrix in="SourceAlpha" type="matrix" values="0 0 0 0 0 0 0 0 0 0 0 0 0 0 0 0 0 0 127 0" result="hardAlpha"/>
<feOffset dx="5" dy="5"/>
<feGaussianBlur stdDeviation="5"/>
<feComposite in2="hardAlpha" operator="out"/>
<feColorMatrix type="matrix" values="0 0 0 0 0.692222 0 0 0 0 0.716944 0 0 0 0 0.741667 0 0 0 1 0"/>
<feBlend mode="normal" in2="BackgroundImageFix" result="effect1_dropShadow_299_824"/>
<feColorMatrix in="SourceAlpha" type="matrix" values="0 0 0 0 0 0 0 0 0 0 0 0 0 0 0 0 0 0 127 0" result="hardAlpha"/>
<feOffset dx="-5" dy="-5"/>
<feGaussianBlur stdDeviation="5"/>
<feComposite in2="hardAlpha" operator="out"/>
<feColorMatrix type="matrix" values="0 0 0 0 1 0 0 0 0 1 0 0 0 0 1 0 0 0 1 0"/>
<feBlend mode="normal" in2="effect1_dropShadow_299_824" result="effect2_dropShadow_299_824"/>
<feBlend mode="normal" in="SourceGraphic" in2="effect2_dropShadow_299_824" result="shape"/>
</filter>
<filter id="filter7_dd_299_824" x="1004" y="643.999" width="70.5978" height="75.9121" filterUnits="userSpaceOnUse" color-interpolation-filters="sRGB">
<feFlood flood-opacity="0" result="BackgroundImageFix"/>
<feColorMatrix in="SourceAlpha" type="matrix" values="0 0 0 0 0 0 0 0 0 0 0 0 0 0 0 0 0 0 127 0" result="hardAlpha"/>
<feOffset dx="5" dy="5"/>
<feGaussianBlur stdDeviation="5"/>
<feComposite in2="hardAlpha" operator="out"/>
<feColorMatrix type="matrix" values="0 0 0 0 0.692222 0 0 0 0 0.716944 0 0 0 0 0.741667 0 0 0 1 0"/>
<feBlend mode="normal" in2="BackgroundImageFix" result="effect1_dropShadow_299_824"/>
<feColorMatrix in="SourceAlpha" type="matrix" values="0 0 0 0 0 0 0 0 0 0 0 0 0 0 0 0 0 0 127 0" result="hardAlpha"/>
<feOffset dx="-5" dy="-5"/>
<feGaussianBlur stdDeviation="5"/>
<feComposite in2="hardAlpha" operator="out"/>
<feColorMatrix type="matrix" values="0 0 0 0 1 0 0 0 0 1 0 0 0 0 1 0 0 0 1 0"/>
<feBlend mode="normal" in2="effect1_dropShadow_299_824" result="effect2_dropShadow_299_824"/>
<feBlend mode="normal" in="SourceGraphic" in2="effect2_dropShadow_299_824" result="shape"/>
</filter>
<filter id="filter8_dddd_299_824" x="397" y="126.849" width="632.519" height="608.36" filterUnits="userSpaceOnUse" color-interpolation-filters="sRGB">
<feFlood flood-opacity="0" result="BackgroundImageFix"/>
<feColorMatrix in="SourceAlpha" type="matrix" values="0 0 0 0 0 0 0 0 0 0 0 0 0 0 0 0 0 0 127 0" result="hardAlpha"/>
<feOffset dx="10" dy="10"/>
<feGaussianBlur stdDeviation="10"/>
<feComposite in2="hardAlpha" operator="out"/>
<feColorMatrix type="matrix" values="0 0 0 0 0.692222 0 0 0 0 0.716944 0 0 0 0 0.741667 0 0 0 1 0"/>
<feBlend mode="normal" in2="BackgroundImageFix" result="effect1_dropShadow_299_824"/>
<feColorMatrix in="SourceAlpha" type="matrix" values="0 0 0 0 0 0 0 0 0 0 0 0 0 0 0 0 0 0 127 0" result="hardAlpha"/>
<feOffset dx="-10" dy="-10"/>
<feGaussianBlur stdDeviation="10"/>
<feComposite in2="hardAlpha" operator="out"/>
<feColorMatrix type="matrix" values="0 0 0 0 1 0 0 0 0 1 0 0 0 0 1 0 0 0 1 0"/>
<feBlend mode="normal" in2="effect1_dropShadow_299_824" result="effect2_dropShadow_299_824"/>
<feColorMatrix in="SourceAlpha" type="matrix" values="0 0 0 0 0 0 0 0 0 0 0 0 0 0 0 0 0 0 127 0" result="hardAlpha"/>
<feOffset dx="10" dy="10"/>
<feGaussianBlur stdDeviation="10"/>
<feComposite in2="hardAlpha" operator="out"/>
<feColorMatrix type="matrix" values="0 0 0 0 0.692222 0 0 0 0 0.716944 0 0 0 0 0.741667 0 0 0 1 0"/>
<feBlend mode="normal" in2="effect2_dropShadow_299_824" result="effect3_dropShadow_299_824"/>
<feColorMatrix in="SourceAlpha" type="matrix" values="0 0 0 0 0 0 0 0 0 0 0 0 0 0 0 0 0 0 127 0" result="hardAlpha"/>
<feOffset dx="-10" dy="-10"/>
<feGaussianBlur stdDeviation="10"/>
<feComposite in2="hardAlpha" operator="out"/>
<feColorMatrix type="matrix" values="0 0 0 0 1 0 0 0 0 1 0 0 0 0 1 0 0 0 1 0"/>
<feBlend mode="normal" in2="effect3_dropShadow_299_824" result="effect4_dropShadow_299_824"/>
<feBlend mode="normal" in="SourceGraphic" in2="effect4_dropShadow_299_824" result="shape"/>
</filter>
<filter id="filter9_dd_299_824" x="901.784" y="358.915" width="97.9989" height="136.29" filterUnits="userSpaceOnUse" color-interpolation-filters="sRGB">
<feFlood flood-opacity="0" result="BackgroundImageFix"/>
<feColorMatrix in="SourceAlpha" type="matrix" values="0 0 0 0 0 0 0 0 0 0 0 0 0 0 0 0 0 0 127 0" result="hardAlpha"/>
<feOffset dx="5" dy="5"/>
<feGaussianBlur stdDeviation="5"/>
<feComposite in2="hardAlpha" operator="out"/>
<feColorMatrix type="matrix" values="0 0 0 0 0.692222 0 0 0 0 0.716944 0 0 0 0 0.741667 0 0 0 1 0"/>
<feBlend mode="normal" in2="BackgroundImageFix" result="effect1_dropShadow_299_824"/>
<feColorMatrix in="SourceAlpha" type="matrix" values="0 0 0 0 0 0 0 0 0 0 0 0 0 0 0 0 0 0 127 0" result="hardAlpha"/>
<feOffset dx="-5" dy="-5"/>
<feGaussianBlur stdDeviation="5"/>
<feComposite in2="hardAlpha" operator="out"/>
<feColorMatrix type="matrix" values="0 0 0 0 1 0 0 0 0 1 0 0 0 0 1 0 0 0 1 0"/>
<feBlend mode="normal" in2="effect1_dropShadow_299_824" result="effect2_dropShadow_299_824"/>
<feBlend mode="normal" in="SourceGraphic" in2="effect2_dropShadow_299_824" result="shape"/>
</filter>
<filter id="filter10_dddd_299_824" x="505" y="350" width="97.9989" height="136.29" filterUnits="userSpaceOnUse" color-interpolation-filters="sRGB">
<feFlood flood-opacity="0" result="BackgroundImageFix"/>
<feColorMatrix in="SourceAlpha" type="matrix" values="0 0 0 0 0 0 0 0 0 0 0 0 0 0 0 0 0 0 127 0" result="hardAlpha"/>
<feOffset dx="5" dy="5"/>
<feGaussianBlur stdDeviation="5"/>
<feComposite in2="hardAlpha" operator="out"/>
<feColorMatrix type="matrix" values="0 0 0 0 0.692222 0 0 0 0 0.716944 0 0 0 0 0.741667 0 0 0 1 0"/>
<feBlend mode="normal" in2="BackgroundImageFix" result="effect1_dropShadow_299_824"/>
<feColorMatrix in="SourceAlpha" type="matrix" values="0 0 0 0 0 0 0 0 0 0 0 0 0 0 0 0 0 0 127 0" result="hardAlpha"/>
<feOffset dx="-5" dy="-5"/>
<feGaussianBlur stdDeviation="5"/>
<feComposite in2="hardAlpha" operator="out"/>
<feColorMatrix type="matrix" values="0 0 0 0 1 0 0 0 0 1 0 0 0 0 1 0 0 0 1 0"/>
<feBlend mode="normal" in2="effect1_dropShadow_299_824" result="effect2_dropShadow_299_824"/>
<feColorMatrix in="SourceAlpha" type="matrix" values="0 0 0 0 0 0 0 0 0 0 0 0 0 0 0 0 0 0 127 0" result="hardAlpha"/>
<feOffset dx="5" dy="5"/>
<feGaussianBlur stdDeviation="5"/>
<feComposite in2="hardAlpha" operator="out"/>
<feColorMatrix type="matrix" values="0 0 0 0 0.692222 0 0 0 0 0.716944 0 0 0 0 0.741667 0 0 0 1 0"/>
<feBlend mode="normal" in2="effect2_dropShadow_299_824" result="effect3_dropShadow_299_824"/>
<feColorMatrix in="SourceAlpha" type="matrix" values="0 0 0 0 0 0 0 0 0 0 0 0 0 0 0 0 0 0 127 0" result="hardAlpha"/>
<feOffset dx="-5" dy="-5"/>
<feGaussianBlur stdDeviation="5"/>
<feComposite in2="hardAlpha" operator="out"/>
<feColorMatrix type="matrix" values="0 0 0 0 1 0 0 0 0 1 0 0 0 0 1 0 0 0 1 0"/>
<feBlend mode="normal" in2="effect3_dropShadow_299_824" result="effect4_dropShadow_299_824"/>
<feBlend mode="normal" in="SourceGraphic" in2="effect4_dropShadow_299_824" result="shape"/>
</filter>
<filter id="filter11_dddd_299_824" x="552.508" y="141.849" width="96.0188" height="124.134" filterUnits="userSpaceOnUse" color-interpolation-filters="sRGB">
<feFlood flood-opacity="0" result="BackgroundImageFix"/>
<feColorMatrix in="SourceAlpha" type="matrix" values="0 0 0 0 0 0 0 0 0 0 0 0 0 0 0 0 0 0 127 0" result="hardAlpha"/>
<feOffset dx="5" dy="5"/>
<feGaussianBlur stdDeviation="5"/>
<feComposite in2="hardAlpha" operator="out"/>
<feColorMatrix type="matrix" values="0 0 0 0 0.692222 0 0 0 0 0.716944 0 0 0 0 0.741667 0 0 0 1 0"/>
<feBlend mode="normal" in2="BackgroundImageFix" result="effect1_dropShadow_299_824"/>
<feColorMatrix in="SourceAlpha" type="matrix" values="0 0 0 0 0 0 0 0 0 0 0 0 0 0 0 0 0 0 127 0" result="hardAlpha"/>
<feOffset dx="-5" dy="-5"/>
<feGaussianBlur stdDeviation="5"/>
<feComposite in2="hardAlpha" operator="out"/>
<feColorMatrix type="matrix" values="0 0 0 0 1 0 0 0 0 1 0 0 0 0 1 0 0 0 1 0"/>
<feBlend mode="normal" in2="effect1_dropShadow_299_824" result="effect2_dropShadow_299_824"/>
<feColorMatrix in="SourceAlpha" type="matrix" values="0 0 0 0 0 0 0 0 0 0 0 0 0 0 0 0 0 0 127 0" result="hardAlpha"/>
<feOffset dx="5" dy="5"/>
<feGaussianBlur stdDeviation="5"/>
<feComposite in2="hardAlpha" operator="out"/>
<feColorMatrix type="matrix" values="0 0 0 0 0.692222 0 0 0 0 0.716944 0 0 0 0 0.741667 0 0 0 1 0"/>
<feBlend mode="normal" in2="effect2_dropShadow_299_824" result="effect3_dropShadow_299_824"/>
<feColorMatrix in="SourceAlpha" type="matrix" values="0 0 0 0 0 0 0 0 0 0 0 0 0 0 0 0 0 0 127 0" result="hardAlpha"/>
<feOffset dx="-5" dy="-5"/>
<feGaussianBlur stdDeviation="5"/>
<feComposite in2="hardAlpha" operator="out"/>
<feColorMatrix type="matrix" values="0 0 0 0 1 0 0 0 0 1 0 0 0 0 1 0 0 0 1 0"/>
<feBlend mode="normal" in2="effect3_dropShadow_299_824" result="effect4_dropShadow_299_824"/>
<feBlend mode="normal" in="SourceGraphic" in2="effect4_dropShadow_299_824" result="shape"/>
</filter>
<filter id="filter12_dd_299_824" x="890.898" y="475.94" width="53.2546" height="53.209" filterUnits="userSpaceOnUse" color-interpolation-filters="sRGB">
<feFlood flood-opacity="0" result="BackgroundImageFix"/>
<feColorMatrix in="SourceAlpha" type="matrix" values="0 0 0 0 0 0 0 0 0 0 0 0 0 0 0 0 0 0 127 0" result="hardAlpha"/>
<feOffset dx="5" dy="5"/>
<feGaussianBlur stdDeviation="5"/>
<feComposite in2="hardAlpha" operator="out"/>
<feColorMatrix type="matrix" values="0 0 0 0 0.692222 0 0 0 0 0.716944 0 0 0 0 0.741667 0 0 0 1 0"/>
<feBlend mode="normal" in2="BackgroundImageFix" result="effect1_dropShadow_299_824"/>
<feColorMatrix in="SourceAlpha" type="matrix" values="0 0 0 0 0 0 0 0 0 0 0 0 0 0 0 0 0 0 127 0" result="hardAlpha"/>
<feOffset dx="-5" dy="-5"/>
<feGaussianBlur stdDeviation="5"/>
<feComposite in2="hardAlpha" operator="out"/>
<feColorMatrix type="matrix" values="0 0 0 0 1 0 0 0 0 1 0 0 0 0 1 0 0 0 1 0"/>
<feBlend mode="normal" in2="effect1_dropShadow_299_824" result="effect2_dropShadow_299_824"/>
<feBlend mode="normal" in="SourceGraphic" in2="effect2_dropShadow_299_824" result="shape"/>
</filter>
<filter id="filter13_dd_299_824" x="561" y="561" width="53.2546" height="53.209" filterUnits="userSpaceOnUse" color-interpolation-filters="sRGB">
<feFlood flood-opacity="0" result="BackgroundImageFix"/>
<feColorMatrix in="SourceAlpha" type="matrix" values="0 0 0 0 0 0 0 0 0 0 0 0 0 0 0 0 0 0 127 0" result="hardAlpha"/>
<feOffset dx="5" dy="5"/>
<feGaussianBlur stdDeviation="5"/>
<feComposite in2="hardAlpha" operator="out"/>
<feColorMatrix type="matrix" values="0 0 0 0 0.692222 0 0 0 0 0.716944 0 0 0 0 0.741667 0 0 0 1 0"/>
<feBlend mode="normal" in2="BackgroundImageFix" result="effect1_dropShadow_299_824"/>
<feColorMatrix in="SourceAlpha" type="matrix" values="0 0 0 0 0 0 0 0 0 0 0 0 0 0 0 0 0 0 127 0" result="hardAlpha"/>
<feOffset dx="-5" dy="-5"/>
<feGaussianBlur stdDeviation="5"/>
<feComposite in2="hardAlpha" operator="out"/>
<feColorMatrix type="matrix" values="0 0 0 0 1 0 0 0 0 1 0 0 0 0 1 0 0 0 1 0"/>
<feBlend mode="normal" in2="effect1_dropShadow_299_824" result="effect2_dropShadow_299_824"/>
<feBlend mode="normal" in="SourceGraphic" in2="effect2_dropShadow_299_824" result="shape"/>
</filter>
<filter id="filter14_dd_299_824" x="412" y="667" width="53.2546" height="53.209" filterUnits="userSpaceOnUse" color-interpolation-filters="sRGB">
<feFlood flood-opacity="0" result="BackgroundImageFix"/>
<feColorMatrix in="SourceAlpha" type="matrix" values="0 0 0 0 0 0 0 0 0 0 0 0 0 0 0 0 0 0 127 0" result="hardAlpha"/>
<feOffset dx="5" dy="5"/>
<feGaussianBlur stdDeviation="5"/>
<feComposite in2="hardAlpha" operator="out"/>
<feColorMatrix type="matrix" values="0 0 0 0 0.692222 0 0 0 0 0.716944 0 0 0 0 0.741667 0 0 0 1 0"/>
<feBlend mode="normal" in2="BackgroundImageFix" result="effect1_dropShadow_299_824"/>
<feColorMatrix in="SourceAlpha" type="matrix" values="0 0 0 0 0 0 0 0 0 0 0 0 0 0 0 0 0 0 127 0" result="hardAlpha"/>
<feOffset dx="-5" dy="-5"/>
<feGaussianBlur stdDeviation="5"/>
<feComposite in2="hardAlpha" operator="out"/>
<feColorMatrix type="matrix" values="0 0 0 0 1 0 0 0 0 1 0 0 0 0 1 0 0 0 1 0"/>
<feBlend mode="normal" in2="effect1_dropShadow_299_824" result="effect2_dropShadow_299_824"/>
<feBlend mode="normal" in="SourceGraphic" in2="effect2_dropShadow_299_824" result="shape"/>
</filter>
<filter id="filter15_dd_299_824" x="93.956" y="629.46" width="308.721" height="459.906" filterUnits="userSpaceOnUse" color-interpolation-filters="sRGB">
<feFlood flood-opacity="0" result="BackgroundImageFix"/>
<feColorMatrix in="SourceAlpha" type="matrix" values="0 0 0 0 0 0 0 0 0 0 0 0 0 0 0 0 0 0 127 0" result="hardAlpha"/>
<feOffset dx="10" dy="10"/>
<feGaussianBlur stdDeviation="10"/>
<feComposite in2="hardAlpha" operator="out"/>
<feColorMatrix type="matrix" values="0 0 0 0 0.692222 0 0 0 0 0.716944 0 0 0 0 0.741667 0 0 0 1 0"/>
<feBlend mode="normal" in2="BackgroundImageFix" result="effect1_dropShadow_299_824"/>
<feColorMatrix in="SourceAlpha" type="matrix" values="0 0 0 0 0 0 0 0 0 0 0 0 0 0 0 0 0 0 127 0" result="hardAlpha"/>
<feOffset dx="-10" dy="-10"/>
<feGaussianBlur stdDeviation="10"/>
<feComposite in2="hardAlpha" operator="out"/>
<feColorMatrix type="matrix" values="0 0 0 0 1 0 0 0 0 1 0 0 0 0 1 0 0 0 1 0"/>
<feBlend mode="normal" in2="effect1_dropShadow_299_824" result="effect2_dropShadow_299_824"/>
<feBlend mode="normal" in="SourceGraphic" in2="effect2_dropShadow_299_824" result="shape"/>
</filter>
<filter id="filter16_dd_299_824" x="286.078" y="665.061" width="84.5517" height="159.061" filterUnits="userSpaceOnUse" color-interpolation-filters="sRGB">
<feFlood flood-opacity="0" result="BackgroundImageFix"/>
<feColorMatrix in="SourceAlpha" type="matrix" values="0 0 0 0 0 0 0 0 0 0 0 0 0 0 0 0 0 0 127 0" result="hardAlpha"/>
<feOffset dx="5" dy="5"/>
<feGaussianBlur stdDeviation="5"/>
<feComposite in2="hardAlpha" operator="out"/>
<feColorMatrix type="matrix" values="0 0 0 0 0.692222 0 0 0 0 0.716944 0 0 0 0 0.741667 0 0 0 1 0"/>
<feBlend mode="normal" in2="BackgroundImageFix" result="effect1_dropShadow_299_824"/>
<feColorMatrix in="SourceAlpha" type="matrix" values="0 0 0 0 0 0 0 0 0 0 0 0 0 0 0 0 0 0 127 0" result="hardAlpha"/>
<feOffset dx="-5" dy="-5"/>
<feGaussianBlur stdDeviation="5"/>
<feComposite in2="hardAlpha" operator="out"/>
<feColorMatrix type="matrix" values="0 0 0 0 1 0 0 0 0 1 0 0 0 0 1 0 0 0 1 0"/>
<feBlend mode="normal" in2="effect1_dropShadow_299_824" result="effect2_dropShadow_299_824"/>
<feBlend mode="normal" in="SourceGraphic" in2="effect2_dropShadow_299_824" result="shape"/>
</filter>
<filter id="filter17_dd_299_824" x="113.194" y="240.91" width="301.153" height="301.149" filterUnits="userSpaceOnUse" color-interpolation-filters="sRGB">
<feFlood flood-opacity="0" result="BackgroundImageFix"/>
<feColorMatrix in="SourceAlpha" type="matrix" values="0 0 0 0 0 0 0 0 0 0 0 0 0 0 0 0 0 0 127 0" result="hardAlpha"/>
<feOffset dx="10" dy="10"/>
<feGaussianBlur stdDeviation="10"/>
<feComposite in2="hardAlpha" operator="out"/>
<feColorMatrix type="matrix" values="0 0 0 0 0.692222 0 0 0 0 0.716944 0 0 0 0 0.741667 0 0 0 1 0"/>
<feBlend mode="normal" in2="BackgroundImageFix" result="effect1_dropShadow_299_824"/>
<feColorMatrix in="SourceAlpha" type="matrix" values="0 0 0 0 0 0 0 0 0 0 0 0 0 0 0 0 0 0 127 0" result="hardAlpha"/>
<feOffset dx="-10" dy="-10"/>
<feGaussianBlur stdDeviation="10"/>
<feComposite in2="hardAlpha" operator="out"/>
<feColorMatrix type="matrix" values="0 0 0 0 1 0 0 0 0 1 0 0 0 0 1 0 0 0 1 0"/>
<feBlend mode="normal" in2="effect1_dropShadow_299_824" result="effect2_dropShadow_299_824"/>
<feBlend mode="normal" in="SourceGraphic" in2="effect2_dropShadow_299_824" result="shape"/>
</filter>
<filter id="filter18_dd_299_824" x="308.306" y="270.374" width="80.4996" height="110.006" filterUnits="userSpaceOnUse" color-interpolation-filters="sRGB">
<feFlood flood-opacity="0" result="BackgroundImageFix"/>
<feColorMatrix in="SourceAlpha" type="matrix" values="0 0 0 0 0 0 0 0 0 0 0 0 0 0 0 0 0 0 127 0" result="hardAlpha"/>
<feOffset dx="5" dy="5"/>
<feGaussianBlur stdDeviation="5"/>
<feComposite in2="hardAlpha" operator="out"/>
<feColorMatrix type="matrix" values="0 0 0 0 0.692222 0 0 0 0 0.716944 0 0 0 0 0.741667 0 0 0 1 0"/>
<feBlend mode="normal" in2="BackgroundImageFix" result="effect1_dropShadow_299_824"/>
<feColorMatrix in="SourceAlpha" type="matrix" values="0 0 0 0 0 0 0 0 0 0 0 0 0 0 0 0 0 0 127 0" result="hardAlpha"/>
<feOffset dx="-5" dy="-5"/>
<feGaussianBlur stdDeviation="5"/>
<feComposite in2="hardAlpha" operator="out"/>
<feColorMatrix type="matrix" values="0 0 0 0 1 0 0 0 0 1 0 0 0 0 1 0 0 0 1 0"/>
<feBlend mode="normal" in2="effect1_dropShadow_299_824" result="effect2_dropShadow_299_824"/>
<feBlend mode="normal" in="SourceGraphic" in2="effect2_dropShadow_299_824" result="shape"/>
</filter>
<filter id="filter19_dd_299_824" x="293.206" y="357.731" width="51.2663" height="51.3525" filterUnits="userSpaceOnUse" color-interpolation-filters="sRGB">
<feFlood flood-opacity="0" result="BackgroundImageFix"/>
<feColorMatrix in="SourceAlpha" type="matrix" values="0 0 0 0 0 0 0 0 0 0 0 0 0 0 0 0 0 0 127 0" result="hardAlpha"/>
<feOffset dx="5" dy="5"/>
<feGaussianBlur stdDeviation="5"/>
<feComposite in2="hardAlpha" operator="out"/>
<feColorMatrix type="matrix" values="0 0 0 0 0.692222 0 0 0 0 0.716944 0 0 0 0 0.741667 0 0 0 1 0"/>
<feBlend mode="normal" in2="BackgroundImageFix" result="effect1_dropShadow_299_824"/>
<feColorMatrix in="SourceAlpha" type="matrix" values="0 0 0 0 0 0 0 0 0 0 0 0 0 0 0 0 0 0 127 0" result="hardAlpha"/>
<feOffset dx="-5" dy="-5"/>
<feGaussianBlur stdDeviation="5"/>
<feComposite in2="hardAlpha" operator="out"/>
<feColorMatrix type="matrix" values="0 0 0 0 1 0 0 0 0 1 0 0 0 0 1 0 0 0 1 0"/>
<feBlend mode="normal" in2="effect1_dropShadow_299_824" result="effect2_dropShadow_299_824"/>
<feBlend mode="normal" in="SourceGraphic" in2="effect2_dropShadow_299_824" result="shape"/>
</filter>
<filter id="filter20_dddd_299_824" x="714.191" y="43.752" width="255.901" height="124.19" filterUnits="userSpaceOnUse" color-interpolation-filters="sRGB">
<feFlood flood-opacity="0" result="BackgroundImageFix"/>
<feColorMatrix in="SourceAlpha" type="matrix" values="0 0 0 0 0 0 0 0 0 0 0 0 0 0 0 0 0 0 127 0" result="hardAlpha"/>
<feOffset dx="10" dy="10"/>
<feGaussianBlur stdDeviation="10"/>
<feComposite in2="hardAlpha" operator="out"/>
<feColorMatrix type="matrix" values="0 0 0 0 0.692222 0 0 0 0 0.716944 0 0 0 0 0.741667 0 0 0 1 0"/>
<feBlend mode="normal" in2="BackgroundImageFix" result="effect1_dropShadow_299_824"/>
<feColorMatrix in="SourceAlpha" type="matrix" values="0 0 0 0 0 0 0 0 0 0 0 0 0 0 0 0 0 0 127 0" result="hardAlpha"/>
<feOffset dx="-10" dy="-10"/>
<feGaussianBlur stdDeviation="10"/>
<feComposite in2="hardAlpha" operator="out"/>
<feColorMatrix type="matrix" values="0 0 0 0 1 0 0 0 0 1 0 0 0 0 1 0 0 0 1 0"/>
<feBlend mode="normal" in2="effect1_dropShadow_299_824" result="effect2_dropShadow_299_824"/>
<feColorMatrix in="SourceAlpha" type="matrix" values="0 0 0 0 0 0 0 0 0 0 0 0 0 0 0 0 0 0 127 0" result="hardAlpha"/>
<feOffset dx="10" dy="10"/>
<feGaussianBlur stdDeviation="10"/>
<feComposite in2="hardAlpha" operator="out"/>
<feColorMatrix type="matrix" values="0 0 0 0 0.692222 0 0 0 0 0.716944 0 0 0 0 0.741667 0 0 0 1 0"/>
<feBlend mode="normal" in2="effect2_dropShadow_299_824" result="effect3_dropShadow_299_824"/>
<feColorMatrix in="SourceAlpha" type="matrix" values="0 0 0 0 0 0 0 0 0 0 0 0 0 0 0 0 0 0 127 0" result="hardAlpha"/>
<feOffset dx="-10" dy="-10"/>
<feGaussianBlur stdDeviation="10"/>
<feComposite in2="hardAlpha" operator="out"/>
<feColorMatrix type="matrix" values="0 0 0 0 1 0 0 0 0 1 0 0 0 0 1 0 0 0 1 0"/>
<feBlend mode="normal" in2="effect3_dropShadow_299_824" result="effect4_dropShadow_299_824"/>
<feBlend mode="normal" in="SourceGraphic" in2="effect4_dropShadow_299_824" result="shape"/>
</filter>
<filter id="filter21_dd_299_824" x="866.343" y="82.1035" width="81.3564" height="55.2441" filterUnits="userSpaceOnUse" color-interpolation-filters="sRGB">
<feFlood flood-opacity="0" result="BackgroundImageFix"/>
<feColorMatrix in="SourceAlpha" type="matrix" values="0 0 0 0 0 0 0 0 0 0 0 0 0 0 0 0 0 0 127 0" result="hardAlpha"/>
<feOffset dx="5" dy="5"/>
<feGaussianBlur stdDeviation="5"/>
<feComposite in2="hardAlpha" operator="out"/>
<feColorMatrix type="matrix" values="0 0 0 0 0.692222 0 0 0 0 0.716944 0 0 0 0 0.741667 0 0 0 1 0"/>
<feBlend mode="normal" in2="BackgroundImageFix" result="effect1_dropShadow_299_824"/>
<feColorMatrix in="SourceAlpha" type="matrix" values="0 0 0 0 0 0 0 0 0 0 0 0 0 0 0 0 0 0 127 0" result="hardAlpha"/>
<feOffset dx="-5" dy="-5"/>
<feGaussianBlur stdDeviation="5"/>
<feComposite in2="hardAlpha" operator="out"/>
<feColorMatrix type="matrix" values="0 0 0 0 1 0 0 0 0 1 0 0 0 0 1 0 0 0 1 0"/>
<feBlend mode="normal" in2="effect1_dropShadow_299_824" result="effect2_dropShadow_299_824"/>
<feBlend mode="normal" in="SourceGraphic" in2="effect2_dropShadow_299_824" result="shape"/>
</filter>
<filter id="filter22_dd_299_824" x="848.878" y="102.778" width="42.9394" height="42.8623" filterUnits="userSpaceOnUse" color-interpolation-filters="sRGB">
<feFlood flood-opacity="0" result="BackgroundImageFix"/>
<feColorMatrix in="SourceAlpha" type="matrix" values="0 0 0 0 0 0 0 0 0 0 0 0 0 0 0 0 0 0 127 0" result="hardAlpha"/>
<feOffset dx="5" dy="5"/>
<feGaussianBlur stdDeviation="5"/>
<feComposite in2="hardAlpha" operator="out"/>
<feColorMatrix type="matrix" values="0 0 0 0 0.692222 0 0 0 0 0.716944 0 0 0 0 0.741667 0 0 0 1 0"/>
<feBlend mode="normal" in2="BackgroundImageFix" result="effect1_dropShadow_299_824"/>
<feColorMatrix in="SourceAlpha" type="matrix" values="0 0 0 0 0 0 0 0 0 0 0 0 0 0 0 0 0 0 127 0" result="hardAlpha"/>
<feOffset dx="-5" dy="-5"/>
<feGaussianBlur stdDeviation="5"/>
<feComposite in2="hardAlpha" operator="out"/>
<feColorMatrix type="matrix" values="0 0 0 0 1 0 0 0 0 1 0 0 0 0 1 0 0 0 1 0"/>
<feBlend mode="normal" in2="effect1_dropShadow_299_824" result="effect2_dropShadow_299_824"/>
<feBlend mode="normal" in="SourceGraphic" in2="effect2_dropShadow_299_824" result="shape"/>
</filter>
<filter id="filter23_dddd_299_824" x="1119.58" y="73.1523" width="170.439" height="101.157" filterUnits="userSpaceOnUse" color-interpolation-filters="sRGB">
<feFlood flood-opacity="0" result="BackgroundImageFix"/>
<feColorMatrix in="SourceAlpha" type="matrix" values="0 0 0 0 0 0 0 0 0 0 0 0 0 0 0 0 0 0 127 0" result="hardAlpha"/>
<feOffset dx="10" dy="10"/>
<feGaussianBlur stdDeviation="10"/>
<feComposite in2="hardAlpha" operator="out"/>
<feColorMatrix type="matrix" values="0 0 0 0 0.692222 0 0 0 0 0.716944 0 0 0 0 0.741667 0 0 0 1 0"/>
<feBlend mode="normal" in2="BackgroundImageFix" result="effect1_dropShadow_299_824"/>
<feColorMatrix in="SourceAlpha" type="matrix" values="0 0 0 0 0 0 0 0 0 0 0 0 0 0 0 0 0 0 127 0" result="hardAlpha"/>
<feOffset dx="-10" dy="-10"/>
<feGaussianBlur stdDeviation="10"/>
<feComposite in2="hardAlpha" operator="out"/>
<feColorMatrix type="matrix" values="0 0 0 0 1 0 0 0 0 1 0 0 0 0 1 0 0 0 1 0"/>
<feBlend mode="normal" in2="effect1_dropShadow_299_824" result="effect2_dropShadow_299_824"/>
<feColorMatrix in="SourceAlpha" type="matrix" values="0 0 0 0 0 0 0 0 0 0 0 0 0 0 0 0 0 0 127 0" result="hardAlpha"/>
<feOffset dx="10" dy="10"/>
<feGaussianBlur stdDeviation="10"/>
<feComposite in2="hardAlpha" operator="out"/>
<feColorMatrix type="matrix" values="0 0 0 0 0.692222 0 0 0 0 0.716944 0 0 0 0 0.741667 0 0 0 1 0"/>
<feBlend mode="normal" in2="effect2_dropShadow_299_824" result="effect3_dropShadow_299_824"/>
<feColorMatrix in="SourceAlpha" type="matrix" values="0 0 0 0 0 0 0 0 0 0 0 0 0 0 0 0 0 0 127 0" result="hardAlpha"/>
<feOffset dx="-10" dy="-10"/>
<feGaussianBlur stdDeviation="10"/>
<feComposite in2="hardAlpha" operator="out"/>
<feColorMatrix type="matrix" values="0 0 0 0 1 0 0 0 0 1 0 0 0 0 1 0 0 0 1 0"/>
<feBlend mode="normal" in2="effect3_dropShadow_299_824" result="effect4_dropShadow_299_824"/>
<feBlend mode="normal" in="SourceGraphic" in2="effect4_dropShadow_299_824" result="shape"/>
</filter>
<filter id="filter24_dd_299_824" x="1209.74" y="114.675" width="60.875" height="40.8311" filterUnits="userSpaceOnUse" color-interpolation-filters="sRGB">
<feFlood flood-opacity="0" result="BackgroundImageFix"/>
<feColorMatrix in="SourceAlpha" type="matrix" values="0 0 0 0 0 0 0 0 0 0 0 0 0 0 0 0 0 0 127 0" result="hardAlpha"/>
<feOffset dx="5" dy="5"/>
<feGaussianBlur stdDeviation="5"/>
<feComposite in2="hardAlpha" operator="out"/>
<feColorMatrix type="matrix" values="0 0 0 0 0.692222 0 0 0 0 0.716944 0 0 0 0 0.741667 0 0 0 1 0"/>
<feBlend mode="normal" in2="BackgroundImageFix" result="effect1_dropShadow_299_824"/>
<feColorMatrix in="SourceAlpha" type="matrix" values="0 0 0 0 0 0 0 0 0 0 0 0 0 0 0 0 0 0 127 0" result="hardAlpha"/>
<feOffset dx="-5" dy="-5"/>
<feGaussianBlur stdDeviation="5"/>
<feComposite in2="hardAlpha" operator="out"/>
<feColorMatrix type="matrix" values="0 0 0 0 1 0 0 0 0 1 0 0 0 0 1 0 0 0 1 0"/>
<feBlend mode="normal" in2="effect1_dropShadow_299_824" result="effect2_dropShadow_299_824"/>
<feBlend mode="normal" in="SourceGraphic" in2="effect2_dropShadow_299_824" result="shape"/>
</filter>
<filter id="filter25_dd_299_824" x="1199.12" y="119.213" width="37.3925" height="37.3594" filterUnits="userSpaceOnUse" color-interpolation-filters="sRGB">
<feFlood flood-opacity="0" result="BackgroundImageFix"/>
<feColorMatrix in="SourceAlpha" type="matrix" values="0 0 0 0 0 0 0 0 0 0 0 0 0 0 0 0 0 0 127 0" result="hardAlpha"/>
<feOffset dx="5" dy="5"/>
<feGaussianBlur stdDeviation="5"/>
<feComposite in2="hardAlpha" operator="out"/>
<feColorMatrix type="matrix" values="0 0 0 0 0.692222 0 0 0 0 0.716944 0 0 0 0 0.741667 0 0 0 1 0"/>
<feBlend mode="normal" in2="BackgroundImageFix" result="effect1_dropShadow_299_824"/>
<feColorMatrix in="SourceAlpha" type="matrix" values="0 0 0 0 0 0 0 0 0 0 0 0 0 0 0 0 0 0 127 0" result="hardAlpha"/>
<feOffset dx="-5" dy="-5"/>
<feGaussianBlur stdDeviation="5"/>
<feComposite in2="hardAlpha" operator="out"/>
<feColorMatrix type="matrix" values="0 0 0 0 1 0 0 0 0 1 0 0 0 0 1 0 0 0 1 0"/>
<feBlend mode="normal" in2="effect1_dropShadow_299_824" result="effect2_dropShadow_299_824"/>
<feBlend mode="normal" in="SourceGraphic" in2="effect2_dropShadow_299_824" result="shape"/>
</filter>
<filter id="filter26_dddd_299_824" x="-65.9999" y="568" width="174.818" height="325.576" filterUnits="userSpaceOnUse" color-interpolation-filters="sRGB">
<feFlood flood-opacity="0" result="BackgroundImageFix"/>
<feColorMatrix in="SourceAlpha" type="matrix" values="0 0 0 0 0 0 0 0 0 0 0 0 0 0 0 0 0 0 127 0" result="hardAlpha"/>
<feOffset dx="5" dy="5"/>
<feGaussianBlur stdDeviation="5"/>
<feComposite in2="hardAlpha" operator="out"/>
<feColorMatrix type="matrix" values="0 0 0 0 0.692222 0 0 0 0 0.716944 0 0 0 0 0.741667 0 0 0 1 0"/>
<feBlend mode="normal" in2="BackgroundImageFix" result="effect1_dropShadow_299_824"/>
<feColorMatrix in="SourceAlpha" type="matrix" values="0 0 0 0 0 0 0 0 0 0 0 0 0 0 0 0 0 0 127 0" result="hardAlpha"/>
<feOffset dx="-5" dy="-5"/>
<feGaussianBlur stdDeviation="5"/>
<feComposite in2="hardAlpha" operator="out"/>
<feColorMatrix type="matrix" values="0 0 0 0 1 0 0 0 0 1 0 0 0 0 1 0 0 0 1 0"/>
<feBlend mode="normal" in2="effect1_dropShadow_299_824" result="effect2_dropShadow_299_824"/>
<feColorMatrix in="SourceAlpha" type="matrix" values="0 0 0 0 0 0 0 0 0 0 0 0 0 0 0 0 0 0 127 0" result="hardAlpha"/>
<feOffset dx="5" dy="5"/>
<feGaussianBlur stdDeviation="5"/>
<feComposite in2="hardAlpha" operator="out"/>
<feColorMatrix type="matrix" values="0 0 0 0 0.692222 0 0 0 0 0.716944 0 0 0 0 0.741667 0 0 0 1 0"/>
<feBlend mode="normal" in2="effect2_dropShadow_299_824" result="effect3_dropShadow_299_824"/>
<feColorMatrix in="SourceAlpha" type="matrix" values="0 0 0 0 0 0 0 0 0 0 0 0 0 0 0 0 0 0 127 0" result="hardAlpha"/>
<feOffset dx="-5" dy="-5"/>
<feGaussianBlur stdDeviation="5"/>
<feComposite in2="hardAlpha" operator="out"/>
<feColorMatrix type="matrix" values="0 0 0 0 1 0 0 0 0 1 0 0 0 0 1 0 0 0 1 0"/>
<feBlend mode="normal" in2="effect3_dropShadow_299_824" result="effect4_dropShadow_299_824"/>
<feBlend mode="normal" in="SourceGraphic" in2="effect4_dropShadow_299_824" result="shape"/>
</filter>
<filter id="filter27_dd_299_824" x="25" y="610" width="80.4996" height="110.006" filterUnits="userSpaceOnUse" color-interpolation-filters="sRGB">
<feFlood flood-opacity="0" result="BackgroundImageFix"/>
<feColorMatrix in="SourceAlpha" type="matrix" values="0 0 0 0 0 0 0 0 0 0 0 0 0 0 0 0 0 0 127 0" result="hardAlpha"/>
<feOffset dx="5" dy="5"/>
<feGaussianBlur stdDeviation="5"/>
<feComposite in2="hardAlpha" operator="out"/>
<feColorMatrix type="matrix" values="0 0 0 0 0.692222 0 0 0 0 0.716944 0 0 0 0 0.741667 0 0 0 1 0"/>
<feBlend mode="normal" in2="BackgroundImageFix" result="effect1_dropShadow_299_824"/>
<feColorMatrix in="SourceAlpha" type="matrix" values="0 0 0 0 0 0 0 0 0 0 0 0 0 0 0 0 0 0 127 0" result="hardAlpha"/>
<feOffset dx="-5" dy="-5"/>
<feGaussianBlur stdDeviation="5"/>
<feComposite in2="hardAlpha" operator="out"/>
<feColorMatrix type="matrix" values="0 0 0 0 1 0 0 0 0 1 0 0 0 0 1 0 0 0 1 0"/>
<feBlend mode="normal" in2="effect1_dropShadow_299_824" result="effect2_dropShadow_299_824"/>
<feBlend mode="normal" in="SourceGraphic" in2="effect2_dropShadow_299_824" result="shape"/>
</filter>
<filter id="filter28_dd_299_824" x="1158" y="385" width="81.3564" height="55.2441" filterUnits="userSpaceOnUse" color-interpolation-filters="sRGB">
<feFlood flood-opacity="0" result="BackgroundImageFix"/>
<feColorMatrix in="SourceAlpha" type="matrix" values="0 0 0 0 0 0 0 0 0 0 0 0 0 0 0 0 0 0 127 0" result="hardAlpha"/>
<feOffset dx="5" dy="5"/>
<feGaussianBlur stdDeviation="5"/>
<feComposite in2="hardAlpha" operator="out"/>
<feColorMatrix type="matrix" values="0 0 0 0 0.692222 0 0 0 0 0.716944 0 0 0 0 0.741667 0 0 0 1 0"/>
<feBlend mode="normal" in2="BackgroundImageFix" result="effect1_dropShadow_299_824"/>
<feColorMatrix in="SourceAlpha" type="matrix" values="0 0 0 0 0 0 0 0 0 0 0 0 0 0 0 0 0 0 127 0" result="hardAlpha"/>
<feOffset dx="-5" dy="-5"/>
<feGaussianBlur stdDeviation="5"/>
<feComposite in2="hardAlpha" operator="out"/>
<feColorMatrix type="matrix" values="0 0 0 0 1 0 0 0 0 1 0 0 0 0 1 0 0 0 1 0"/>
<feBlend mode="normal" in2="effect1_dropShadow_299_824" result="effect2_dropShadow_299_824"/>
<feBlend mode="normal" in="SourceGraphic" in2="effect2_dropShadow_299_824" result="shape"/>
</filter>
<filter id="filter29_dd_299_824" x="748" y="209" width="51.2663" height="51.3525" filterUnits="userSpaceOnUse" color-interpolation-filters="sRGB">
<feFlood flood-opacity="0" result="BackgroundImageFix"/>
<feColorMatrix in="SourceAlpha" type="matrix" values="0 0 0 0 0 0 0 0 0 0 0 0 0 0 0 0 0 0 127 0" result="hardAlpha"/>
<feOffset dx="5" dy="5"/>
<feGaussianBlur stdDeviation="5"/>
<feComposite in2="hardAlpha" operator="out"/>
<feColorMatrix type="matrix" values="0 0 0 0 0.692222 0 0 0 0 0.716944 0 0 0 0 0.741667 0 0 0 1 0"/>
<feBlend mode="normal" in2="BackgroundImageFix" result="effect1_dropShadow_299_824"/>
<feColorMatrix in="SourceAlpha" type="matrix" values="0 0 0 0 0 0 0 0 0 0 0 0 0 0 0 0 0 0 127 0" result="hardAlpha"/>
<feOffset dx="-5" dy="-5"/>
<feGaussianBlur stdDeviation="5"/>
<feComposite in2="hardAlpha" operator="out"/>
<feColorMatrix type="matrix" values="0 0 0 0 1 0 0 0 0 1 0 0 0 0 1 0 0 0 1 0"/>
<feBlend mode="normal" in2="effect1_dropShadow_299_824" result="effect2_dropShadow_299_824"/>
<feBlend mode="normal" in="SourceGraphic" in2="effect2_dropShadow_299_824" result="shape"/>
</filter>
<filter id="filter30_dd_299_824" x="645" y="587" width="80.4996" height="110.006" filterUnits="userSpaceOnUse" color-interpolation-filters="sRGB">
<feFlood flood-opacity="0" result="BackgroundImageFix"/>
<feColorMatrix in="SourceAlpha" type="matrix" values="0 0 0 0 0 0 0 0 0 0 0 0 0 0 0 0 0 0 127 0" result="hardAlpha"/>
<feOffset dx="5" dy="5"/>
<feGaussianBlur stdDeviation="5"/>
<feComposite in2="hardAlpha" operator="out"/>
<feColorMatrix type="matrix" values="0 0 0 0 0.692222 0 0 0 0 0.716944 0 0 0 0 0.741667 0 0 0 1 0"/>
<feBlend mode="normal" in2="BackgroundImageFix" result="effect1_dropShadow_299_824"/>
<feColorMatrix in="SourceAlpha" type="matrix" values="0 0 0 0 0 0 0 0 0 0 0 0 0 0 0 0 0 0 127 0" result="hardAlpha"/>
<feOffset dx="-5" dy="-5"/>
<feGaussianBlur stdDeviation="5"/>
<feComposite in2="hardAlpha" operator="out"/>
<feColorMatrix type="matrix" values="0 0 0 0 1 0 0 0 0 1 0 0 0 0 1 0 0 0 1 0"/>
<feBlend mode="normal" in2="effect1_dropShadow_299_824" result="effect2_dropShadow_299_824"/>
<feBlend mode="normal" in="SourceGraphic" in2="effect2_dropShadow_299_824" result="shape"/>
</filter>
<filter id="filter31_dd_299_824" x="306" y="441" width="174" height="173.998" filterUnits="userSpaceOnUse" color-interpolation-filters="sRGB">
<feFlood flood-opacity="0" result="BackgroundImageFix"/>
<feColorMatrix in="SourceAlpha" type="matrix" values="0 0 0 0 0 0 0 0 0 0 0 0 0 0 0 0 0 0 127 0" result="hardAlpha"/>
<feOffset dx="10" dy="10"/>
<feGaussianBlur stdDeviation="10"/>
<feComposite in2="hardAlpha" operator="out"/>
<feColorMatrix type="matrix" values="0 0 0 0 0.692222 0 0 0 0 0.716944 0 0 0 0 0.741667 0 0 0 1 0"/>
<feBlend mode="normal" in2="BackgroundImageFix" result="effect1_dropShadow_299_824"/>
<feColorMatrix in="SourceAlpha" type="matrix" values="0 0 0 0 0 0 0 0 0 0 0 0 0 0 0 0 0 0 127 0" result="hardAlpha"/>
<feOffset dx="-10" dy="-10"/>
<feGaussianBlur stdDeviation="10"/>
<feComposite in2="hardAlpha" operator="out"/>
<feColorMatrix type="matrix" values="0 0 0 0 1 0 0 0 0 1 0 0 0 0 1 0 0 0 1 0"/>
<feBlend mode="normal" in2="effect1_dropShadow_299_824" result="effect2_dropShadow_299_824"/>
<feBlend mode="normal" in="SourceGraphic" in2="effect2_dropShadow_299_824" result="shape"/>
</filter>
<filter id="filter32_dd_299_824" x="406.144" y="462.837" width="53.8727" height="67.8213" filterUnits="userSpaceOnUse" color-interpolation-filters="sRGB">
<feFlood flood-opacity="0" result="BackgroundImageFix"/>
<feColorMatrix in="SourceAlpha" type="matrix" values="0 0 0 0 0 0 0 0 0 0 0 0 0 0 0 0 0 0 127 0" result="hardAlpha"/>
<feOffset dx="5" dy="5"/>
<feGaussianBlur stdDeviation="5"/>
<feComposite in2="hardAlpha" operator="out"/>
<feColorMatrix type="matrix" values="0 0 0 0 0.692222 0 0 0 0 0.716944 0 0 0 0 0.741667 0 0 0 1 0"/>
<feBlend mode="normal" in2="BackgroundImageFix" result="effect1_dropShadow_299_824"/>
<feColorMatrix in="SourceAlpha" type="matrix" values="0 0 0 0 0 0 0 0 0 0 0 0 0 0 0 0 0 0 127 0" result="hardAlpha"/>
<feOffset dx="-5" dy="-5"/>
<feGaussianBlur stdDeviation="5"/>
<feComposite in2="hardAlpha" operator="out"/>
<feColorMatrix type="matrix" values="0 0 0 0 1 0 0 0 0 1 0 0 0 0 1 0 0 0 1 0"/>
<feBlend mode="normal" in2="effect1_dropShadow_299_824" result="effect2_dropShadow_299_824"/>
<feBlend mode="normal" in="SourceGraphic" in2="effect2_dropShadow_299_824" result="shape"/>
</filter>
<filter id="filter33_dd_299_824" x="399.006" y="504.134" width="40.0532" height="40.0938" filterUnits="userSpaceOnUse" color-interpolation-filters="sRGB">
<feFlood flood-opacity="0" result="BackgroundImageFix"/>
<feColorMatrix in="SourceAlpha" type="matrix" values="0 0 0 0 0 0 0 0 0 0 0 0 0 0 0 0 0 0 127 0" result="hardAlpha"/>
<feOffset dx="5" dy="5"/>
<feGaussianBlur stdDeviation="5"/>
<feComposite in2="hardAlpha" operator="out"/>
<feColorMatrix type="matrix" values="0 0 0 0 0.692222 0 0 0 0 0.716944 0 0 0 0 0.741667 0 0 0 1 0"/>
<feBlend mode="normal" in2="BackgroundImageFix" result="effect1_dropShadow_299_824"/>
<feColorMatrix in="SourceAlpha" type="matrix" values="0 0 0 0 0 0 0 0 0 0 0 0 0 0 0 0 0 0 127 0" result="hardAlpha"/>
<feOffset dx="-5" dy="-5"/>
<feGaussianBlur stdDeviation="5"/>
<feComposite in2="hardAlpha" operator="out"/>
<feColorMatrix type="matrix" values="0 0 0 0 1 0 0 0 0 1 0 0 0 0 1 0 0 0 1 0"/>
<feBlend mode="normal" in2="effect1_dropShadow_299_824" result="effect2_dropShadow_299_824"/>
<feBlend mode="normal" in="SourceGraphic" in2="effect2_dropShadow_299_824" result="shape"/>
</filter>
<radialGradient id="paint0_radial_299_824" cx="0" cy="0" r="1" gradientUnits="userSpaceOnUse" gradientTransform="translate(841.554 768.552) scale(877.351 768.238)">
<stop stop-color="#E6ECF1"/>
<stop offset="1" stop-color="white" stop-opacity="0.3"/>
</radialGradient>
<linearGradient id="paint1_linear_299_824" x1="717.797" y1="632.871" x2="93.9997" y2="632.871" gradientUnits="userSpaceOnUse">
<stop stop-color="#E6ECF1"/>
<stop offset="1" stop-color="#E6ECF1"/>
</linearGradient>
<linearGradient id="paint2_linear_299_824" x1="1387.65" y1="687.642" x2="371" y2="687.642" gradientUnits="userSpaceOnUse">
<stop stop-color="#E6ECF1"/>
<stop offset="1" stop-color="#E6ECF1"/>
</linearGradient>
<linearGradient id="paint3_linear_299_824" x1="473.557" y1="477.079" x2="53.9999" y2="477.079" gradientUnits="userSpaceOnUse">
<stop stop-color="#E6ECF1"/>
<stop offset="1" stop-color="#E6ECF1"/>
</linearGradient>
<linearGradient id="paint4_linear_299_824" x1="1120.73" y1="677.261" x2="248.971" y2="677.261" gradientUnits="userSpaceOnUse">
<stop stop-color="#E6ECF1"/>
<stop offset="1" stop-color="#E6ECF1"/>
</linearGradient>
<linearGradient id="paint5_linear_299_824" x1="93.8176" y1="730.788" x2="-50.9999" y2="730.788" gradientUnits="userSpaceOnUse">
<stop stop-color="#E6ECF1"/>
<stop offset="1" stop-color="#E6ECF1"/>
</linearGradient>
</defs>
</svg>
