<svg width="67" height="67" viewBox="0 0 67 67" fill="none" xmlns="http://www.w3.org/2000/svg">
<g filter="url(#filter0_dddd_461_30)">
<path d="M24.3323 9.62458C25.0184 9.92042 25.795 9.88532 26.5261 9.7506C28.0428 9.47125 29.5407 9.16623 31.0682 8.94176C31.4102 8.89135 36.5565 8.18215 36.5576 8.21065C36.5244 7.20019 36.4914 6.18974 36.4582 5.17928C36.4512 4.96424 36.4449 4.74354 36.5129 4.5405C36.6705 4.06872 37.1816 3.82659 37.6582 3.77453C38.6419 3.66713 39.6235 4.15681 40.3218 4.88721C41.02 5.61762 41.4697 6.56613 41.8209 7.53042C41.8776 7.68611 41.9397 7.85334 42.0732 7.9452C42.1922 8.0274 42.3435 8.03211 42.4861 8.03635C43.9639 8.0804 45.4349 8.35998 46.8323 8.86238C47.7898 9.20674 48.7506 9.68559 49.3686 10.522C49.9868 11.3586 50.1568 12.6312 49.524 13.4558C49.3349 13.7024 49.0603 13.9057 48.7574 13.8996C48.5376 13.8951 48.335 13.7825 48.1394 13.678C47.0557 13.0985 45.8921 12.683 44.6957 12.4449C43.467 12.2002 42.6405 11.975 42.8849 13.6544C43.3687 16.9792 42.9348 20.342 42.5086 23.6459C42.29 25.3408 42.0657 27.0372 41.96 28.7451C41.855 30.4407 41.8627 32.0325 42.5186 33.6266C42.6419 33.9262 42.7912 34.23 43.043 34.4239C43.4923 34.7699 44.1324 34.6644 44.6372 34.4145C45.6531 33.9121 46.3714 32.9407 47.032 31.9917C48.1902 30.3281 49.2963 28.6247 50.4882 26.9865C51.8355 25.135 53.3122 22.6604 55.4601 21.7253C56.2527 21.38 57.2571 21.4059 57.8764 22.0266C58.3749 22.5264 58.5267 23.2954 58.5425 24.0162C58.5782 25.6374 58.0517 27.2341 57.2483 28.6226C56.575 29.7861 55.7124 30.8053 54.7983 31.7677C53.9378 32.6738 53.2202 33.7189 52.2682 34.5355C50.81 35.7867 49.1782 36.8172 47.4406 37.5881C46.2937 38.0971 45.0842 38.4989 43.8388 38.5517C42.5936 38.6044 41.3023 38.2813 40.3302 37.468C38.7324 36.1311 38.3001 33.823 37.9744 31.714C37.4348 28.221 37.6065 24.8855 37.489 21.3708C37.3937 18.5215 37.2221 15.6751 36.9743 12.8357C36.9513 12.5735 36.921 12.2937 36.7591 12.0916C36.4297 11.6813 35.5701 11.8325 35.1267 11.8071C34.0844 11.7475 33.0393 11.7725 31.9981 11.8412C29.8442 11.9835 27.7087 12.3248 25.5641 12.5632C24.772 12.651 23.9632 12.724 23.1851 12.5457C22.407 12.3672 21.6519 11.8973 21.3021 11.1511C20.6376 9.73411 21.942 8.52486 23.0396 7.93413C23.4997 7.68635 24.0574 7.58224 24.5387 7.78127C24.824 7.89927 25.0876 8.16354 25.0799 8.48317C25.0686 8.95236 24.5297 9.19967 24.3323 9.62458Z" fill="#7500CB"/>
<path d="M26.6549 29.2047C26.6581 29.5844 26.7473 29.9462 27.0071 30.2013C27.3316 30.5202 27.8421 30.5617 28.2635 30.4102C28.6852 30.2587 29.034 29.9455 29.3499 29.6171C30.0876 28.8507 32.8461 25.3412 31.8421 24.3484C31.2361 23.749 28.8226 24.6468 28.3189 25.1558C27.4642 26.0193 26.9928 27.2222 26.7414 28.4352C26.6904 28.6816 26.6529 28.9473 26.6549 29.2047ZM29.7691 33.63C28.6676 34.8435 27.377 35.938 25.8443 36.4263C24.3118 36.9143 22.5006 36.6969 21.3331 35.5522C20.569 34.803 20.1478 33.7383 19.956 32.6631C19.185 28.3356 21.8865 24.0738 25.2408 21.4023C27.6162 19.5102 29.628 19.2928 32.3198 20.3803C32.6541 16.8491 29.3018 16.6809 27.054 17.6452C26.0185 18.0897 24.7048 18.3846 23.8786 17.5962C23.1041 16.8569 23.2223 15.4625 23.8949 14.6214C24.5675 13.7805 25.6268 13.3919 26.6576 13.1839C29.2842 12.6535 32.2868 13.1966 34.0508 15.2941C36.033 17.6514 35.9257 21.1484 35.7067 24.2754C35.4982 27.2521 35.2897 30.2288 35.0812 33.2056C35.0446 33.7289 35.0042 34.2674 34.7806 34.7375C34.2866 35.776 33.0846 36.1698 32.0086 36.4614C31.1548 36.6925 29.9797 36.7662 29.663 35.9076C29.3969 35.1864 30.0208 34.3569 29.7691 33.63Z" fill="#7500CB"/>
<path d="M13.0637 22.2796C14.0589 22.2851 16.9081 19.7507 16.5174 19.2775C15.9552 18.5273 13.6074 20.7696 12.9072 22.0316C12.8676 22.103 12.8437 22.1598 12.8688 22.242C12.928 22.2672 12.9932 22.2792 13.0637 22.2796ZM10.4281 36.3304C10.4173 36.3309 10.4064 36.3311 10.3956 36.3316C8.28126 36.3968 6.06644 35.2045 5.26214 33.1643C4.84678 32.1105 4.82442 30.9338 4.91296 29.7982C5.22984 25.7329 6.93579 21.7999 9.65429 18.8674C11.5676 16.8032 14.2384 14.9321 16.8589 14.0429C20.3591 12.8553 23.329 15.1339 21.7972 19.1901C21.0636 21.1321 19.6031 22.7083 17.92 23.838C16.7109 24.6494 15.3885 25.2408 14.0363 25.7423C13.6426 25.8874 10.2348 26.9094 10.9887 27.8478C11.5109 28.4981 15.4217 26.2445 15.9767 25.9913C17.3402 25.369 20.2943 24.5867 19.9991 27.1475C19.7172 29.59 17.7086 31.9614 16.0282 33.6133C14.4968 35.1186 12.5304 36.2546 10.4281 36.3304Z" fill="#7500CB"/>
<path d="M36.3545 43.0607C37.3824 41.1366 39.2363 39.7144 41.3038 39.2638C42.8216 38.9331 44.5104 39.1475 45.7269 40.1501C46.5644 40.8405 48.2681 44.9257 46.1497 44.7257C45.7215 44.6852 45.2937 44.6301 44.8691 44.5606C42.5996 44.1901 40.1725 46.1707 38.9343 47.9457C36.5462 51.3697 35.8696 56.4227 36.3547 60.5347C36.4365 61.2282 36.5487 61.9645 36.2702 62.5999C35.875 63.5011 34.7854 63.8843 33.8476 63.7244C32.9098 63.5647 32.0936 62.9839 31.3297 62.3946C30.8884 62.0542 30.431 61.6755 30.2469 61.1361C30.0235 60.4817 30.2562 59.7655 30.4619 59.105C31.2211 56.666 31.6215 54.1239 32.003 51.5907C32.1376 50.697 32.27 49.8027 32.3748 48.9048C32.5993 46.9828 32.6469 45.0651 32.6743 43.1344C32.6774 42.8977 32.6248 42.6355 32.4412 42.4961C31.6452 41.8915 30.8655 43.3782 30.5539 43.8879C30.2196 44.4343 29.6696 44.9803 29.0638 44.8357C28.4423 44.6873 28.1789 43.902 28.1897 43.2373C28.2182 41.4809 29.3728 39.9589 30.6618 38.8281C31.3832 38.1949 32.2293 37.6132 33.1721 37.6042C34.3199 37.5931 35.3485 38.4712 35.8499 39.5479C36.3511 40.6245 36.4116 41.8653 36.3545 43.0607Z" fill="#7500CB"/>
<path d="M21.0185 46.8577C20.9953 46.7399 21.3219 46.4912 21.3869 46.4238C21.6959 46.1035 22.0051 45.7697 22.2454 45.3889C22.764 44.5664 23.2022 43.5649 23.4188 42.6064C23.4687 42.3867 23.503 42.1443 23.403 41.9441C23.185 41.5081 22.7267 41.8261 22.5052 42.0631C21.3695 43.278 20.6872 45.174 21.0185 46.8577ZM30.5459 53.423C30.653 54.2743 30.451 55.1583 30.239 55.9996C29.8362 57.597 29.3861 59.2112 28.5258 60.5978C27.6655 61.9844 26.3277 63.1338 24.7593 63.3627C23.0768 63.6082 21.3679 62.7461 20.2208 61.4393C19.0736 60.1326 18.4195 58.4336 17.9917 56.7192C16.9146 52.4006 17.1621 47.7339 18.6894 43.5656C19.2441 42.0522 19.9845 40.5733 21.124 39.4719C22.263 38.3708 23.8556 37.6915 25.3845 37.9774C26.1382 38.1183 26.884 38.5215 27.2682 39.2121C27.7366 40.0546 27.5785 41.1148 27.3321 42.0541C26.6981 44.47 25.5001 46.7955 23.7183 48.5003C23.2968 48.9035 22.8437 49.2712 22.3606 49.5908C21.9421 49.8676 21.1735 50.0615 20.85 50.4279C20.2178 51.144 20.6011 52.7011 20.9693 53.4614C21.4233 54.3991 22.4844 55.0746 23.4502 54.7762C23.8441 54.6547 24.1815 54.3918 24.5097 54.1339C25.4328 53.4087 26.3557 52.6835 27.2788 51.9582C27.5851 51.7178 27.902 51.4716 28.2737 51.3739C29.2275 51.123 30.1884 51.9823 30.4567 52.9692C30.4976 53.1192 30.5267 53.2707 30.5459 53.423Z" fill="#7500CB"/>
<path d="M50.7961 43.426C51.5896 42.8765 52.7245 42.2629 52.9355 42.0799C53.8191 41.3121 54.7901 40.1582 54.5296 38.8592C54.4375 38.3999 54.1642 38.0949 53.6817 38.1683C53.3339 38.2211 53.041 38.4597 52.7805 38.7058C52.1793 39.2742 51.6544 39.9304 51.2259 40.6495C50.6872 41.5535 49.6788 44.2699 50.0119 44.245C49.9595 44.069 50.315 43.7593 50.7961 43.426ZM49.8877 44.7768C49.6788 46.1542 49.6718 48.8356 50.9355 49.9196C51.5803 50.4724 52.5459 50.5626 53.3303 50.3369C54.274 50.0658 55.0679 49.4054 55.778 48.7025C57.4715 47.0257 58.8513 44.9634 59.6583 42.6709C60.0646 41.5165 60.3224 40.3037 60.3885 39.0749C60.4581 37.7863 60.1112 36.5036 60.3384 35.2218C60.5112 34.2476 61.0503 33.2878 61.9224 32.8935C62.1557 32.788 62.553 32.7286 62.9485 33.2166C63.0081 33.2901 63.3164 33.4114 63.4564 34.1418C63.9082 36.4972 63.7797 37.8482 63.5551 39.9448C63.3435 41.919 62.8563 43.3869 62.2688 45.2729C61.3141 48.3372 59.7581 51.2324 57.4695 53.4291C56.4298 54.427 55.1668 55.303 53.7545 55.3574C52.4094 55.409 51.1071 54.6814 50.2161 53.6295C49.3251 52.5774 48.8069 51.2317 48.5043 49.864C47.6051 45.8005 48.4957 41.1514 51.136 37.9594C52.1739 36.7049 53.6418 35.7444 55.2303 35.7122C56.8188 35.6801 58.466 36.7676 58.8027 38.3869C58.9615 39.1494 58.8314 39.9474 58.613 40.6938C58.0461 42.6315 56.8716 44.3705 55.3127 45.58C54.433 46.2624 53.3804 46.7911 52.2852 46.736C51.1898 46.6809 50.1305 45.9187 49.8877 44.7768Z" fill="#7500CB"/>
<path d="M12.5821 47.16C12.6865 47.0894 12.7007 46.9895 12.6826 46.8597C12.3373 44.3649 12.1286 41.8369 12.3068 39.3232C12.3235 39.0867 12.3472 38.8397 12.4726 38.642C12.6194 38.4108 12.8782 38.2895 13.126 38.1893C13.6161 37.9915 14.12 37.8306 14.6323 37.7084C15.3083 37.547 16.0945 37.4792 16.6224 37.9484C17.3117 38.5615 17.1685 39.6883 16.9903 40.6144C15.9838 45.8479 15.8108 51.2544 16.4805 56.5462C16.5607 57.1798 16.5133 58.0402 15.9149 58.1787C15.6886 58.2313 15.4549 58.1467 15.243 58.0485C13.975 57.461 12.9936 56.3679 12.1044 55.2571C8.21977 50.4062 5.37705 44.6534 3.84321 38.5394C3.76935 38.2452 3.70182 37.9175 3.83982 37.6497C4.06795 37.2067 4.67191 37.217 5.14735 37.3011C6.26357 37.4988 7.4498 37.8151 8.18386 38.7139C8.47342 39.0684 8.6724 39.4921 8.86823 39.9107C9.94582 42.214 11.0871 44.461 12.2837 46.6456C12.4129 46.8816 12.3461 47.046 12.5821 47.16Z" fill="#7500CB"/>
<path d="M44.0391 48.5535C43.7986 48.5558 43.554 48.6347 43.3564 48.7972C42.9778 49.1093 42.7687 49.5882 42.5733 50.0484C42.5193 50.1749 42.4644 50.3078 42.4716 50.446C42.4922 50.845 42.9627 51.0097 43.3396 51.0815C45.2575 51.4478 47.2012 52.0663 48.6745 53.398C50.1481 54.7297 51.045 56.9143 50.4494 58.8505C49.1746 62.9948 43.6179 64.5604 40.0208 63.3419C39.2362 63.076 38.4707 62.6822 37.9063 62.0547C36.9387 60.9793 36.7196 59.2466 37.3866 57.9462C37.6052 57.5199 37.934 57.1228 38.3783 56.9843C39.1847 56.7327 39.9594 57.3911 40.627 57.926C41.0887 58.296 41.5942 58.6335 42.1638 58.7596C42.7337 58.8858 43.3812 58.7661 43.7848 58.3283C44.4464 57.6108 44.1771 56.3575 43.5081 55.6481C42.8389 54.9384 41.8966 54.608 41.0257 54.2012C40.1547 53.7944 39.2633 53.2176 38.9337 52.2837C38.7119 51.655 38.7822 50.9519 38.961 50.3085C39.6328 47.8907 41.8121 46.1072 44.1835 45.6366C44.8041 45.5131 45.4562 45.471 46.0599 45.6658C47.5089 46.1336 47.5997 47.4947 47.2448 48.8187C47.1211 49.2801 46.9797 49.7568 46.668 50.109C45.1578 51.8166 45.1999 48.5422 44.0391 48.5535Z" fill="#7500CB"/>
<path d="M53.7572 14.7096C55.2466 14.7143 56.7856 16.5628 56.5028 18.0669C56.3549 18.8534 55.8966 19.5461 55.3396 20.0984C54.779 20.6543 54.007 21.1094 53.259 20.904C52.6812 20.7452 52.265 20.2346 51.8878 19.7513C51.6992 19.5094 51.5076 19.2623 51.401 18.9712C51.2248 18.4902 51.3019 17.9513 51.4164 17.4505C51.6203 16.5585 51.9693 15.647 52.6699 15.0928C53.0092 14.8245 53.3816 14.7084 53.7572 14.7096Z" fill="#7500CB"/>
<path d="M57.1078 19.9966C57.1058 19.9255 57.11 19.8532 57.1146 19.7825C57.1365 19.4436 57.1586 19.1044 57.1805 18.7655C57.2279 18.0362 57.7427 17.3094 58.4589 17.1852C59.347 17.0312 60.0117 17.9908 60.5007 18.6484C61.2845 19.7022 59.8782 21.5717 58.6947 21.2546C58.2606 21.1383 57.8796 20.8731 57.5076 20.6126C57.3732 20.5181 57.2327 20.4168 57.1627 20.2644C57.1243 20.1808 57.1105 20.0897 57.1078 19.9966Z" fill="#7500CB"/>
<path d="M60.7864 25.8866C60.3618 25.9019 59.9279 25.7066 59.6797 25.3476C59.3108 24.8146 59.4023 24.0868 59.5098 23.4393C59.5398 23.2577 59.5717 23.0716 59.6611 22.9129C59.7494 22.7565 59.8874 22.638 60.0293 22.533C60.5635 22.1377 61.1816 21.7637 61.7727 22.2395C62.2927 22.6578 62.4223 23.6228 62.334 24.2463C62.2931 24.5341 62.2041 24.8163 62.0591 25.0648C61.8138 25.4852 61.396 25.8032 60.9287 25.8734C60.8817 25.8804 60.834 25.8849 60.7864 25.8866Z" fill="#7500CB"/>
<path d="M60.8107 27.7794C60.8423 27.5566 60.9336 27.3406 61.0727 27.1679C62.0026 26.0129 63.8847 27.15 63.0576 28.4827C62.7538 28.9724 62.1094 29.1794 61.5777 28.9981C61.2986 28.9029 61.0451 28.7067 60.9085 28.4356C60.8073 28.2347 60.7789 28.0036 60.8107 27.7794Z" fill="#7500CB"/>
<path d="M61.1047 31.3464C60.7483 29.6319 63.3577 29.2929 63.1863 30.7903C63.1438 31.1608 62.9071 31.4969 62.5974 31.6839C61.649 32.2572 61.1296 31.466 61.1047 31.3464Z" fill="#7500CB"/>
</g>
<defs>
<filter id="filter0_dddd_461_30" x="0.759949" y="0.759766" width="65.9996" height="66" filterUnits="userSpaceOnUse" color-interpolation-filters="sRGB">
<feFlood flood-opacity="0" result="BackgroundImageFix"/>
<feColorMatrix in="SourceAlpha" type="matrix" values="0 0 0 0 0 0 0 0 0 0 0 0 0 0 0 0 0 0 127 0" result="hardAlpha"/>
<feOffset dx="1" dy="1"/>
<feGaussianBlur stdDeviation="1"/>
<feComposite in2="hardAlpha" operator="out"/>
<feColorMatrix type="matrix" values="0 0 0 0 0.692222 0 0 0 0 0.716944 0 0 0 0 0.741667 0 0 0 1 0"/>
<feBlend mode="normal" in2="BackgroundImageFix" result="effect1_dropShadow_461_30"/>
<feColorMatrix in="SourceAlpha" type="matrix" values="0 0 0 0 0 0 0 0 0 0 0 0 0 0 0 0 0 0 127 0" result="hardAlpha"/>
<feOffset dx="-1" dy="-1"/>
<feGaussianBlur stdDeviation="1"/>
<feComposite in2="hardAlpha" operator="out"/>
<feColorMatrix type="matrix" values="0 0 0 0 1 0 0 0 0 1 0 0 0 0 1 0 0 0 1 0"/>
<feBlend mode="normal" in2="effect1_dropShadow_461_30" result="effect2_dropShadow_461_30"/>
<feColorMatrix in="SourceAlpha" type="matrix" values="0 0 0 0 0 0 0 0 0 0 0 0 0 0 0 0 0 0 127 0" result="hardAlpha"/>
<feOffset dx="1" dy="1"/>
<feGaussianBlur stdDeviation="1"/>
<feComposite in2="hardAlpha" operator="out"/>
<feColorMatrix type="matrix" values="0 0 0 0 0.692222 0 0 0 0 0.716944 0 0 0 0 0.741667 0 0 0 1 0"/>
<feBlend mode="normal" in2="effect2_dropShadow_461_30" result="effect3_dropShadow_461_30"/>
<feColorMatrix in="SourceAlpha" type="matrix" values="0 0 0 0 0 0 0 0 0 0 0 0 0 0 0 0 0 0 127 0" result="hardAlpha"/>
<feOffset dx="-1" dy="-1"/>
<feGaussianBlur stdDeviation="1"/>
<feComposite in2="hardAlpha" operator="out"/>
<feColorMatrix type="matrix" values="0 0 0 0 1 0 0 0 0 1 0 0 0 0 1 0 0 0 1 0"/>
<feBlend mode="normal" in2="effect3_dropShadow_461_30" result="effect4_dropShadow_461_30"/>
<feBlend mode="normal" in="SourceGraphic" in2="effect4_dropShadow_461_30" result="shape"/>
</filter>
</defs>
</svg>
