<svg width="162" height="162" viewBox="0 0 162 162" fill="none" xmlns="http://www.w3.org/2000/svg">
<g filter="url(#filter0_dddd_222_567)">
<path d="M57.4313 20.6621C59.1467 21.4017 61.088 21.3139 62.9158 20.9771C66.7075 20.2787 70.4523 19.5162 74.2711 18.955C75.126 18.829 87.9918 17.056 87.9947 17.1272C87.9117 14.6011 87.8292 12.0749 87.7462 9.54878C87.7287 9.01116 87.7129 8.45941 87.8829 7.95183C88.277 6.77237 89.5548 6.16704 90.7463 6.0369C93.2053 5.76839 95.6594 6.9926 97.4053 8.81861C99.1507 10.6446 100.275 13.0159 101.153 15.4266C101.295 15.8159 101.45 16.2339 101.784 16.4636C102.081 16.6691 102.46 16.6809 102.816 16.6915C106.51 16.8016 110.188 17.5006 113.682 18.7566C116.075 19.6175 118.477 20.8146 120.022 22.9056C121.568 24.9972 121.993 28.1787 120.411 30.2402C119.938 30.8568 119.251 31.3649 118.494 31.3496C117.945 31.3384 117.438 31.057 116.949 30.7955C114.24 29.347 111.331 28.3082 108.34 27.7129C105.268 27.1011 103.202 26.5382 103.813 30.7366C105.023 39.0488 103.938 47.4557 102.872 55.7155C102.326 59.9528 101.765 64.1937 101.501 68.4634C101.238 72.7025 101.257 76.6819 102.897 80.6672C103.205 81.4163 103.579 82.1759 104.208 82.6605C105.331 83.5255 106.932 83.2617 108.194 82.6369C110.734 81.3809 112.529 78.9525 114.181 76.5801C117.076 72.421 119.842 68.1625 122.821 64.0671C126.189 59.4382 129.881 53.2518 135.251 50.914C137.233 50.0508 139.744 50.1156 141.292 51.6672C142.538 52.9167 142.918 54.8393 142.957 56.6412C143.046 60.6942 141.73 64.686 139.722 68.1572C138.038 71.0661 135.882 73.614 133.597 76.0201C131.445 78.2854 129.651 80.8981 127.271 82.9396C123.626 86.0676 119.546 88.6438 115.202 90.571C112.335 91.8435 109.311 92.8481 106.198 92.98C103.085 93.1119 99.8565 92.304 97.4262 90.2707C93.4318 86.9284 92.351 81.1583 91.5368 75.8858C90.1878 67.1532 90.6169 58.8146 90.3233 50.0278C90.085 42.9046 89.6559 35.7883 89.0365 28.6898C88.9789 28.0344 88.9032 27.3349 88.4983 26.8296C87.6751 25.8039 85.526 26.1819 84.4175 26.1183C81.8116 25.9693 79.1989 26.0318 76.5958 26.2037C71.2112 26.5594 65.8724 27.4126 60.5109 28.0085C58.5307 28.2281 56.5086 28.4107 54.5633 27.9649C52.6181 27.5186 50.7304 26.3438 49.8558 24.4784C48.1945 20.9359 51.4555 17.9128 54.1997 16.4359C55.3499 15.8165 56.7441 15.5562 57.9474 16.0538C58.6605 16.3488 59.3195 17.0095 59.3003 17.8085C59.2721 18.9815 57.9248 19.5998 57.4313 20.6621Z" fill="#7500CB"/>
<path d="M63.237 69.6124C63.2449 70.5616 63.468 71.4661 64.1173 72.1038C64.9288 72.9011 66.2049 73.0048 67.2586 72.6261C68.3128 72.2475 69.1846 71.4643 69.9746 70.6435C71.8188 68.7274 78.715 59.9536 76.205 57.4716C74.6901 55.973 68.6561 58.2177 67.3969 59.4902C65.2602 61.6489 64.0818 64.6561 63.4533 67.6887C63.3257 68.3046 63.232 68.9688 63.237 69.6124ZM71.0226 80.6757C68.2687 83.7094 65.0423 86.4458 61.2105 87.6664C57.3792 88.8865 52.8512 88.343 49.9325 85.4812C48.0223 83.6081 46.9692 80.9465 46.4898 78.2584C44.562 67.4396 51.3159 56.785 59.7017 50.1063C65.6402 45.3761 70.6697 44.8326 77.3993 47.5513C78.235 38.7233 69.8543 38.3029 64.2348 40.7136C61.6458 41.8248 58.3618 42.562 56.2962 40.5911C54.36 38.7428 54.6553 35.2568 56.3369 33.154C58.0184 31.0518 60.6667 30.0802 63.2438 29.5603C69.8103 28.2342 77.3169 29.5921 81.7269 34.8358C86.6823 40.7289 86.4141 49.4715 85.8664 57.2891C85.3452 64.7309 84.824 72.1727 84.3028 79.6146C84.2114 80.923 84.1103 82.2691 83.5513 83.4444C82.3164 86.0406 79.3112 87.0252 76.6212 87.7542C74.4868 88.3318 71.5488 88.5161 70.7572 86.3698C70.092 84.5667 71.6516 82.4928 71.0226 80.6757Z" fill="#7500CB"/>
<path d="M29.2594 52.2996C31.7473 52.3132 38.8705 45.9772 37.8936 44.7942C36.4882 42.9187 30.6185 48.5245 28.8681 51.6796C28.7693 51.858 28.7094 51.9999 28.7721 52.2054C28.92 52.2684 29.0832 52.2984 29.2594 52.2996ZM22.6704 87.4266C22.6432 87.4278 22.6161 87.4284 22.589 87.4296C17.3032 87.5927 11.7662 84.612 9.75543 79.5114C8.71702 76.8769 8.66112 73.935 8.88246 71.0962C9.67468 60.9327 13.9396 51.1001 20.7358 43.769C25.5191 38.6084 32.1962 33.9306 38.7474 31.7077C47.4979 28.7387 54.9226 34.4352 51.0931 44.5757C49.2591 49.4308 45.608 53.3713 41.4002 56.1954C38.3775 58.224 35.0714 59.7026 31.6908 60.9562C30.7066 61.319 22.187 63.874 24.0718 66.2199C25.3773 67.8457 35.1544 62.2117 36.5418 61.5787C39.9507 60.0229 47.3359 58.0674 46.5979 64.4693C45.8932 70.5756 40.8716 76.5041 36.6705 80.6337C32.8421 84.397 27.9262 87.237 22.6704 87.4266Z" fill="#7500CB"/>
<path d="M87.4868 104.252C90.0566 99.4419 94.6913 95.8865 99.8602 94.76C103.655 93.9333 107.877 94.4691 110.918 96.9758C113.012 98.7017 117.271 108.915 111.975 108.415C110.904 108.313 109.835 108.176 108.773 108.002C103.1 107.076 97.0318 112.027 93.9364 116.465C87.9662 125.025 86.2745 137.657 87.4874 147.938C87.6918 149.671 87.9724 151.512 87.2762 153.101C86.288 155.353 83.5641 156.311 81.2196 155.912C78.8752 155.512 76.8345 154.06 74.9248 152.587C73.8214 151.736 72.678 150.789 72.2178 149.441C71.6593 147.805 72.2409 146.014 72.7554 144.363C74.6532 138.266 75.6543 131.91 76.608 125.577C76.9446 123.343 77.2755 121.107 77.5375 118.863C78.0987 114.058 78.2179 109.263 78.2862 104.437C78.2941 103.845 78.1625 103.189 77.7035 102.841C75.7136 101.329 73.7644 105.046 72.9852 106.32C72.1495 107.686 70.7745 109.051 69.2601 108.69C67.7062 108.319 67.0478 106.356 67.0749 104.694C67.146 100.303 70.0326 96.4977 73.2551 93.6706C75.0586 92.0878 77.1738 90.6334 79.5307 90.611C82.4003 90.5833 84.9718 92.7785 86.2253 95.4701C87.4783 98.1618 87.6297 101.264 87.4868 104.252Z" fill="#7500CB"/>
<path d="M49.1469 113.745C49.0888 113.451 49.9053 112.829 50.0679 112.661C50.8404 111.86 51.6134 111.025 52.2142 110.073C53.5106 108.017 54.6061 105.513 55.1476 103.117C55.2724 102.568 55.3582 101.962 55.1081 101.461C54.5632 100.371 53.4175 101.166 52.8635 101.759C50.0244 104.796 48.3186 109.536 49.1469 113.745ZM72.9655 130.159C73.2331 132.287 72.7283 134.497 72.1981 136.6C71.1913 140.594 70.0659 144.629 67.9151 148.096C65.7643 151.562 62.4199 154.436 58.4989 155.008C54.2927 155.622 50.0205 153.467 47.1526 150.2C44.2846 146.933 42.6494 142.685 41.5799 138.399C38.8871 127.603 39.5059 115.936 43.3242 105.515C44.711 101.732 46.5619 98.0343 49.4106 95.2809C52.2582 92.528 56.2396 90.8298 60.0618 91.5446C61.9461 91.8968 63.8106 92.9049 64.7711 94.6314C65.9422 96.7377 65.5469 99.3881 64.9309 101.736C63.3459 107.776 60.3509 113.59 55.8963 117.852C54.8427 118.86 53.71 119.779 52.5022 120.578C51.4558 121.27 49.5343 121.755 48.7257 122.671C47.1452 124.461 48.1034 128.354 49.0238 130.255C50.1588 132.599 52.8116 134.288 55.2261 133.542C56.2108 133.238 57.0545 132.581 57.8749 131.936C60.1827 130.123 62.4899 128.31 64.7976 126.497C65.5633 125.896 66.3555 125.28 67.285 125.036C69.6695 124.409 72.0716 126.557 72.7424 129.024C72.8446 129.399 72.9175 129.778 72.9655 130.159Z" fill="#7500CB"/>
<path d="M123.591 105.166C125.575 103.792 128.413 102.258 128.94 101.801C131.149 99.881 133.576 96.9962 132.925 93.7487C132.695 92.6005 132.012 91.8379 130.806 92.0216C129.936 92.1535 129.204 92.75 128.553 93.3654C127.049 94.7863 125.737 96.4268 124.666 98.2245C123.319 100.485 120.798 107.276 121.631 107.213C121.5 106.773 122.389 105.999 123.591 105.166ZM121.32 108.543C120.798 111.986 120.781 118.69 123.94 121.4C125.552 122.782 127.966 123.007 129.927 122.443C132.286 121.765 134.271 120.114 136.046 118.357C140.28 114.165 143.73 109.009 145.747 103.278C146.763 100.392 147.407 97.3601 147.573 94.2881C147.747 91.0665 146.879 87.8597 147.447 84.6552C147.879 82.2197 149.227 79.8202 151.407 78.8344C151.991 78.5706 152.984 78.4222 153.972 79.6423C154.122 79.8261 154.892 80.1293 155.242 81.9553C156.372 87.8438 156.05 91.2214 155.489 96.4627C154.96 101.398 153.742 105.068 152.273 109.783C149.887 117.444 145.997 124.682 140.275 130.174C137.676 132.669 134.518 134.858 130.987 134.994C127.625 135.123 124.369 133.304 122.141 130.675C119.914 128.044 118.618 124.68 117.862 121.261C115.614 111.102 117.84 99.4794 124.441 91.4993C127.036 88.3631 130.706 85.9618 134.677 85.8812C138.648 85.8011 142.766 88.5198 143.608 92.5681C144.005 94.4742 143.68 96.4692 143.134 98.3353C141.717 103.18 138.78 107.527 134.883 110.551C132.684 112.257 130.052 113.579 127.314 113.441C124.576 113.303 121.927 111.398 121.32 108.543Z" fill="#7500CB"/>
<path d="M28.0555 114.501C28.3163 114.324 28.3519 114.075 28.3067 113.75C27.4434 107.513 26.9216 101.193 27.3671 94.9089C27.4089 94.3177 27.4682 93.7 27.7816 93.206C28.1486 92.6277 28.7957 92.3245 29.4152 92.0742C30.6405 91.5796 31.9002 91.1774 33.1809 90.8718C34.8709 90.4684 36.8365 90.2988 38.1561 91.4718C39.8795 93.0046 39.5215 95.8216 39.0759 98.137C36.5598 111.221 36.1273 124.737 37.8015 137.967C38.002 139.551 37.8834 141.702 36.3876 142.048C35.8218 142.179 35.2374 141.968 34.7077 141.722C31.5377 140.254 29.0843 137.521 26.8612 134.744C17.1496 122.616 10.0428 108.234 6.20816 92.9492C6.02351 92.2138 5.85468 91.3947 6.19969 90.7252C6.76999 89.6175 8.2799 89.6435 9.46851 89.8537C12.2591 90.3477 15.2247 91.1385 17.0598 93.3856C17.7837 94.2718 18.2812 95.3311 18.7707 96.3775C21.4647 102.136 24.318 107.753 27.3095 113.215C27.6325 113.805 27.4654 114.216 28.0555 114.501Z" fill="#7500CB"/>
<path d="M106.698 117.984C106.097 117.99 105.485 118.188 104.991 118.594C104.045 119.374 103.522 120.571 103.034 121.722C102.899 122.038 102.761 122.37 102.779 122.716C102.831 123.713 104.007 124.125 104.949 124.304C109.744 125.22 114.603 126.766 118.287 130.096C121.971 133.425 124.213 138.887 122.724 143.727C119.537 154.088 105.645 158.002 96.6523 154.956C94.6907 154.291 92.7771 153.306 91.366 151.738C88.947 149.049 88.3992 144.717 90.0667 141.466C90.6133 140.401 91.4354 139.408 92.5461 139.062C94.562 138.433 96.4987 140.078 98.1679 141.416C99.322 142.341 100.586 143.185 102.01 143.5C103.434 143.815 105.053 143.516 106.062 142.422C107.716 140.628 107.043 137.495 105.371 135.721C103.698 133.947 101.342 133.121 99.1645 132.104C96.9872 131.087 94.7585 129.645 93.9346 127.31C93.3801 125.738 93.5557 123.981 94.0029 122.372C95.6822 116.327 101.131 111.869 107.059 110.692C108.611 110.384 110.241 110.278 111.75 110.765C115.373 111.935 115.6 115.338 114.712 118.647C114.403 119.801 114.05 120.993 113.27 121.873C109.495 126.142 109.6 117.956 106.698 117.984Z" fill="#7500CB"/>
<path d="M130.994 33.3744C134.717 33.3862 138.565 38.0075 137.858 41.7678C137.488 43.734 136.342 45.4658 134.95 46.8466C133.548 48.2363 131.618 49.374 129.748 48.8605C128.304 48.4636 127.263 47.187 126.32 45.9787C125.848 45.3739 125.37 44.7562 125.103 44.0284C124.663 42.826 124.855 41.4787 125.141 40.2268C125.651 37.9969 126.524 35.718 128.275 34.3325C129.123 33.6618 130.055 33.3715 130.994 33.3744Z" fill="#7500CB"/>
<path d="M139.37 46.5921C139.365 46.4143 139.375 46.2335 139.387 46.0569C139.441 45.2095 139.497 44.3616 139.552 43.5142C139.67 41.6912 140.957 39.874 142.748 39.5637C144.968 39.1786 146.63 41.5775 147.852 43.2216C149.811 45.8561 146.296 50.5297 143.337 49.7372C142.252 49.4463 141.299 48.7832 140.369 48.132C140.033 47.8958 139.682 47.6426 139.507 47.2616C139.411 47.0526 139.376 46.8247 139.37 46.5921Z" fill="#7500CB"/>
<path d="M148.567 61.3173C147.505 61.3555 146.42 60.8674 145.8 59.97C144.878 58.6374 145.106 56.8179 145.375 55.1992C145.45 54.7452 145.53 54.28 145.753 53.8831C145.974 53.4921 146.319 53.1959 146.674 52.9333C148.009 51.9452 149.555 51.0101 151.032 52.1996C152.332 53.2454 152.656 55.6579 152.436 57.2166C152.333 57.9361 152.111 58.6416 151.748 59.2628C151.135 60.3139 150.091 61.1088 148.922 61.2843C148.805 61.302 148.686 61.3132 148.567 61.3173Z" fill="#7500CB"/>
<path d="M148.627 66.0492C148.706 65.4921 148.934 64.9522 149.282 64.5206C151.607 61.6329 156.312 64.4758 154.244 67.8075C153.485 69.0317 151.874 69.5493 150.545 69.0959C149.847 68.858 149.213 68.3675 148.872 67.6897C148.619 67.1874 148.547 66.6098 148.627 66.0492Z" fill="#7500CB"/>
<path d="M149.362 74.9665C148.471 70.6803 154.995 69.833 154.566 73.5763C154.46 74.5025 153.868 75.3428 153.094 75.8103C150.723 77.2436 149.424 75.2657 149.362 74.9665Z" fill="#7500CB"/>
</g>
<defs>
<filter id="filter0_dddd_222_567" x="0" y="0" width="162" height="162" filterUnits="userSpaceOnUse" color-interpolation-filters="sRGB">
<feFlood flood-opacity="0" result="BackgroundImageFix"/>
<feColorMatrix in="SourceAlpha" type="matrix" values="0 0 0 0 0 0 0 0 0 0 0 0 0 0 0 0 0 0 127 0" result="hardAlpha"/>
<feOffset dx="2" dy="2"/>
<feGaussianBlur stdDeviation="2"/>
<feComposite in2="hardAlpha" operator="out"/>
<feColorMatrix type="matrix" values="0 0 0 0 0.692222 0 0 0 0 0.716944 0 0 0 0 0.741667 0 0 0 1 0"/>
<feBlend mode="normal" in2="BackgroundImageFix" result="effect1_dropShadow_222_567"/>
<feColorMatrix in="SourceAlpha" type="matrix" values="0 0 0 0 0 0 0 0 0 0 0 0 0 0 0 0 0 0 127 0" result="hardAlpha"/>
<feOffset dx="-2" dy="-2"/>
<feGaussianBlur stdDeviation="2"/>
<feComposite in2="hardAlpha" operator="out"/>
<feColorMatrix type="matrix" values="0 0 0 0 1 0 0 0 0 1 0 0 0 0 1 0 0 0 1 0"/>
<feBlend mode="normal" in2="effect1_dropShadow_222_567" result="effect2_dropShadow_222_567"/>
<feColorMatrix in="SourceAlpha" type="matrix" values="0 0 0 0 0 0 0 0 0 0 0 0 0 0 0 0 0 0 127 0" result="hardAlpha"/>
<feOffset dx="2" dy="2"/>
<feGaussianBlur stdDeviation="2"/>
<feComposite in2="hardAlpha" operator="out"/>
<feColorMatrix type="matrix" values="0 0 0 0 0.692222 0 0 0 0 0.716944 0 0 0 0 0.741667 0 0 0 1 0"/>
<feBlend mode="normal" in2="effect2_dropShadow_222_567" result="effect3_dropShadow_222_567"/>
<feColorMatrix in="SourceAlpha" type="matrix" values="0 0 0 0 0 0 0 0 0 0 0 0 0 0 0 0 0 0 127 0" result="hardAlpha"/>
<feOffset dx="-2" dy="-2"/>
<feGaussianBlur stdDeviation="2"/>
<feComposite in2="hardAlpha" operator="out"/>
<feColorMatrix type="matrix" values="0 0 0 0 1 0 0 0 0 1 0 0 0 0 1 0 0 0 1 0"/>
<feBlend mode="normal" in2="effect3_dropShadow_222_567" result="effect4_dropShadow_222_567"/>
<feBlend mode="normal" in="SourceGraphic" in2="effect4_dropShadow_222_567" result="shape"/>
</filter>
</defs>
</svg>
