<svg width="32" height="32" viewBox="0 0 32 32" fill="none" xmlns="http://www.w3.org/2000/svg">
<g filter="url(#filter0_dddd_281_433)">
<path d="M25.3014 21.8885C25.3014 22.2233 25.2268 22.5675 25.0685 22.9024C24.9807 23.088 24.8787 23.2678 24.7592 23.4419C24.7176 23.5025 24.6739 23.5624 24.628 23.6216C24.5677 23.6993 24.5034 23.7759 24.435 23.8512C24.2584 24.0456 24.0749 24.2191 23.8832 24.3722C23.5796 24.6148 23.2557 24.8063 22.9073 24.9489C22.3484 25.1815 21.7429 25.3024 21.0908 25.3024C20.1407 25.3024 19.1253 25.0791 18.054 24.6233C16.9828 24.1675 15.9115 23.5536 14.8496 22.7815C13.7783 22.0001 12.7629 21.135 11.7942 20.1768C10.8347 19.2094 9.96835 18.1954 9.19518 17.135C8.43132 16.0745 7.81651 15.014 7.36937 13.9629C6.92224 12.9024 6.69867 11.8885 6.69867 10.921C6.69867 10.2885 6.81045 9.6838 7.03402 9.12566C7.25759 8.55822 7.61157 8.03729 8.10528 7.57217C8.70146 6.98613 9.35354 6.69775 10.0429 6.69775C10.3037 6.69775 10.5645 6.75357 10.7974 6.8652C11.0396 6.97682 11.2539 7.14427 11.4215 7.38613L13.5827 10.428C13.7504 10.6605 13.8715 10.8745 13.9553 11.0791C14.0391 11.2745 14.0857 11.4698 14.0857 11.6466C14.0857 11.8698 14.0205 12.0931 13.8901 12.3071C13.769 12.521 13.592 12.7443 13.3684 12.9675L12.6605 13.7024C12.558 13.8047 12.5114 13.9257 12.5114 14.0745C12.5114 14.1489 12.5207 14.214 12.5394 14.2885C12.5673 14.3629 12.5953 14.4187 12.6139 14.4745C12.7816 14.7815 13.0704 15.1815 13.4802 15.6652C13.8994 16.1489 14.3465 16.6419 14.8309 17.135C15.334 17.628 15.8184 18.0838 16.3121 18.5024C16.7965 18.9117 17.197 19.1908 17.5138 19.3582C17.5603 19.3768 17.6162 19.4047 17.6814 19.4326C17.756 19.4605 17.8305 19.4698 17.9143 19.4698C18.0727 19.4698 18.1938 19.414 18.2962 19.3117L19.0042 18.614C19.2371 18.3815 19.4607 18.2047 19.6749 18.0931C19.8892 17.9629 20.1034 17.8978 20.3363 17.8978C20.5133 17.8978 20.6996 17.935 20.9045 18.0187C21.1095 18.1024 21.3237 18.2233 21.5566 18.3815L24.64 20.5675C24.8822 20.735 25.0499 20.9303 25.1523 21.1629C25.2455 21.3954 25.3014 21.628 25.3014 21.8885Z" fill="#F05C5C"/>
<path fill-rule="evenodd" clip-rule="evenodd" d="M7.62048 7.06967C8.32094 6.38324 9.13981 6 10.0429 6C10.3998 6 10.763 6.0757 11.0949 6.23386C11.4379 6.39283 11.7504 6.63621 11.9934 6.98532L14.1512 10.0223C14.3422 10.2875 14.4916 10.5469 14.5997 10.8096C14.7095 11.0671 14.7844 11.3548 14.7844 11.6465C14.7844 12.0064 14.6794 12.3504 14.4928 12.6599C14.3342 12.9375 14.1176 13.2053 13.8674 13.4558L13.2258 14.1218C13.2323 14.1371 13.241 14.1579 13.2504 14.1819C13.3898 14.426 13.6367 14.7695 14.0111 15.2115C14.4211 15.6846 14.8559 16.1638 15.325 16.6416C15.8205 17.1271 16.2898 17.5682 16.7637 17.97C17.2117 18.3486 17.5609 18.5899 17.8146 18.7276C17.8351 18.7365 17.854 18.745 17.8694 18.752L18.5119 18.1189C18.7667 17.8647 19.0398 17.6407 19.3313 17.4852C19.636 17.3041 19.968 17.2 20.3363 17.2C20.6156 17.2 20.8917 17.2595 21.1691 17.3728C21.4326 17.4806 21.6906 17.6287 21.9494 17.8045L21.9553 17.8085L25.0414 19.9964C25.3717 20.2256 25.6306 20.5158 25.7918 20.8818L25.7966 20.8927L25.801 20.9037C25.9197 21.2 26 21.521 26 21.8884C26 22.3279 25.9019 22.7737 25.7002 23.2003C25.5975 23.4175 25.4771 23.6299 25.3354 23.8363C25.2863 23.908 25.2346 23.9789 25.1803 24.0488C25.1089 24.1408 25.0331 24.2311 24.9527 24.3196C24.7531 24.5393 24.5425 24.7389 24.3197 24.9168C23.9665 25.1992 23.5857 25.4249 23.1742 25.5936C22.5274 25.8624 21.8309 26 21.0908 26C20.0302 26 18.9216 25.7508 17.7802 25.2651C16.6553 24.7865 15.5384 24.1452 14.4384 23.3454L14.4374 23.3447C13.3374 22.5424 12.2955 21.6545 11.3025 20.6725L11.2977 20.6677C10.3144 19.6762 9.42503 18.6355 8.63035 17.5455L8.62798 17.5423C7.83953 16.4477 7.19711 15.3423 6.72632 14.2355L6.72545 14.2335C6.2489 13.1033 6 11.9972 6 10.9209C6 10.2064 6.12632 9.51379 6.38459 8.8683C6.64729 8.20235 7.05993 7.59911 7.62048 7.06967Z" fill="#F05C5C"/>
</g>
<defs>
<filter id="filter0_dddd_281_433" x="0" y="0" width="32" height="32" filterUnits="userSpaceOnUse" color-interpolation-filters="sRGB">
<feFlood flood-opacity="0" result="BackgroundImageFix"/>
<feColorMatrix in="SourceAlpha" type="matrix" values="0 0 0 0 0 0 0 0 0 0 0 0 0 0 0 0 0 0 127 0" result="hardAlpha"/>
<feOffset dx="2" dy="2"/>
<feGaussianBlur stdDeviation="2"/>
<feComposite in2="hardAlpha" operator="out"/>
<feColorMatrix type="matrix" values="0 0 0 0 0.692222 0 0 0 0 0.716944 0 0 0 0 0.741667 0 0 0 1 0"/>
<feBlend mode="normal" in2="BackgroundImageFix" result="effect1_dropShadow_281_433"/>
<feColorMatrix in="SourceAlpha" type="matrix" values="0 0 0 0 0 0 0 0 0 0 0 0 0 0 0 0 0 0 127 0" result="hardAlpha"/>
<feOffset dx="-2" dy="-2"/>
<feGaussianBlur stdDeviation="2"/>
<feComposite in2="hardAlpha" operator="out"/>
<feColorMatrix type="matrix" values="0 0 0 0 1 0 0 0 0 1 0 0 0 0 1 0 0 0 1 0"/>
<feBlend mode="normal" in2="effect1_dropShadow_281_433" result="effect2_dropShadow_281_433"/>
<feColorMatrix in="SourceAlpha" type="matrix" values="0 0 0 0 0 0 0 0 0 0 0 0 0 0 0 0 0 0 127 0" result="hardAlpha"/>
<feOffset dx="2" dy="2"/>
<feGaussianBlur stdDeviation="2"/>
<feComposite in2="hardAlpha" operator="out"/>
<feColorMatrix type="matrix" values="0 0 0 0 0.692222 0 0 0 0 0.716944 0 0 0 0 0.741667 0 0 0 1 0"/>
<feBlend mode="normal" in2="effect2_dropShadow_281_433" result="effect3_dropShadow_281_433"/>
<feColorMatrix in="SourceAlpha" type="matrix" values="0 0 0 0 0 0 0 0 0 0 0 0 0 0 0 0 0 0 127 0" result="hardAlpha"/>
<feOffset dx="-2" dy="-2"/>
<feGaussianBlur stdDeviation="2"/>
<feComposite in2="hardAlpha" operator="out"/>
<feColorMatrix type="matrix" values="0 0 0 0 1 0 0 0 0 1 0 0 0 0 1 0 0 0 1 0"/>
<feBlend mode="normal" in2="effect3_dropShadow_281_433" result="effect4_dropShadow_281_433"/>
<feBlend mode="normal" in="SourceGraphic" in2="effect4_dropShadow_281_433" result="shape"/>
</filter>
</defs>
</svg>
