<svg width="34" height="26" viewBox="0 0 34 26" fill="none" xmlns="http://www.w3.org/2000/svg">
<g filter="url(#filter0_dd_254_152)">
<path d="M30.5998 18.8552C30.6598 19.1041 30.6916 19.3634 30.6916 19.6301C30.6916 21.4912 29.1479 23 27.2432 23C25.4118 23 23.9136 21.6048 23.8014 19.8428L24.9657 19.6742C24.9894 20.8817 26.0022 21.8566 27.2432 21.8566C28.4993 21.8566 29.5214 20.8578 29.5214 19.6301C29.5214 19.4199 29.4914 19.217 29.4359 19.0242L30.5998 18.8552Z" fill="white"/>
<path d="M6.76699 18.7614C6.93764 18.6541 7.14077 18.5918 7.35884 18.5918C7.66929 18.5918 7.94968 18.718 8.14924 18.9206C8.27273 19.0461 8.36533 19.201 8.41474 19.3735C8.44114 19.4656 8.45526 19.5627 8.45526 19.6631C8.45526 20.2548 7.96441 20.7344 7.35884 20.7344C6.75338 20.7344 6.26253 20.2548 6.26253 19.6631C6.26253 19.5627 6.27666 19.4656 6.30305 19.3735C6.37629 19.1182 6.54401 18.9013 6.76699 18.7614Z" fill="white"/>
<path d="M26.1503 19.6629C26.1503 19.6076 26.1547 19.553 26.1629 19.4998L28.2345 19.1988C28.2623 19.2545 28.2849 19.3128 28.3023 19.3736C28.3286 19.4658 28.3427 19.5627 28.3427 19.6629C28.3427 20.2547 27.8521 20.7344 27.2465 20.7344C26.6408 20.7344 26.1503 20.2547 26.1503 19.6629Z" fill="white"/>
<path d="M5.16748 13.9967C5.15119 12.6399 5.44365 11.4906 6.44656 11.3658C9.02129 11.0457 13.8432 10.8171 13.6089 12.4637C13.3749 14.1103 11.3151 15.9859 11.8301 16.8844C12.345 17.7826 19.6946 17.724 20.8182 17.0838C21.9418 16.4435 23.2993 11.869 22.2694 9.03226C21.9111 8.04447 21.8027 7.17987 21.813 6.47137H20.7007C20.5891 6.59723 20.4248 6.67721 20.2409 6.67721H18.1499C17.8138 6.67721 17.5413 6.41098 17.5413 6.08258C17.5413 5.75414 17.8138 5.48791 18.1499 5.48791H20.2409C20.4248 5.48791 20.5891 5.56788 20.7007 5.69375H21.9025C22.0005 5.36751 22.1876 5.08024 22.4356 4.85714C22.5182 4.78299 22.607 4.71606 22.7022 4.65709C22.8825 3.69273 23.5055 3 24.2671 3C25.174 3 25.8844 3.98248 25.8844 5.23626C25.8844 6.30953 25.3643 7.18349 24.6458 7.41315C25.0167 7.88813 25.5079 8.42241 26.1551 9.01857C28.4319 11.1152 28.7991 13.6918 28.7761 15.2444C29.8122 15.665 30.6373 16.5206 30.9781 17.6127C31.0671 17.8976 30.8749 18.1933 30.5734 18.2372L30.3958 18.263L29.1681 18.4413L28.5107 18.5368L26.9669 18.7611L25.0463 19.0404L23.8198 19.2183L23.6418 19.2442C23.3421 19.2878 23.0685 19.0627 23.0687 18.7666C23.0687 18.7648 23.0687 18.7629 23.0687 18.7611H10.6476C10.7298 19.0479 10.7739 19.3503 10.7739 19.6629C10.7739 21.5059 9.24494 22.9999 7.35872 22.9999C5.4729 22.9999 3.94398 21.5059 3.94398 19.6629C3.94398 19.3503 3.98804 19.0479 4.07021 18.7611H4.02543C3.6423 18.7611 3.29949 18.5234 3.17732 18.1682C3.06219 17.8339 2.99998 17.4761 2.99998 17.1039C2.99994 15.6915 3.89847 14.4836 5.16748 13.9967ZM24.0053 6.45348C24.0901 6.52764 24.1801 6.56814 24.2671 6.56814C24.5936 6.56814 24.959 5.9984 24.959 5.23622C24.959 4.47405 24.5936 3.90427 24.2671 3.90427C23.9454 3.90427 23.5855 4.45813 23.5755 5.20402C23.5752 5.21452 23.5752 5.22537 23.5752 5.23622C23.5752 5.79511 23.7717 6.25055 24.0053 6.45348ZM7.35872 21.8644C8.6011 21.8644 9.61181 20.8769 9.61181 19.6629C9.61181 19.3421 9.54111 19.0368 9.41411 18.7611H9.3793C9.38558 18.7503 9.39226 18.739 9.39854 18.7282C9.03799 17.9805 8.25906 17.4618 7.35872 17.4618C6.75158 17.4618 6.2 17.6973 5.79458 18.0804C5.58988 18.2735 5.42252 18.5043 5.30406 18.7611C5.1767 19.0368 5.10604 19.3421 5.10604 19.6629C5.10604 20.8769 6.11671 21.8644 7.35872 21.8644Z" fill="white"/>
<path d="M18.9865 16.8335C18.3086 16.9 17.4275 16.9474 16.378 16.9474C14.1327 16.9474 12.7419 16.7213 12.3768 16.543C12.3787 16.4862 12.3983 16.3647 12.4968 16.1411C12.6256 15.8502 12.8347 15.5052 13.0591 15.1387C14.3748 16.0911 16.4157 15.8767 17.5412 15.9512C18.3656 16.0058 18.7791 16.4272 18.9865 16.8335Z" fill="white"/>
<path d="M6.12892 10.8001L6.59426 10.1808C6.89264 9.78394 7.35315 9.53508 7.85555 9.49891C8.69738 9.43816 10.0446 9.38932 11.1237 9.57271C12.1062 9.73982 12.5712 10.3523 12.7885 10.8406C12.0914 10.6279 11.1367 10.5234 9.91017 10.5234C8.4538 10.5234 7.06515 10.6691 6.36694 10.756C6.28843 10.7657 6.20888 10.7802 6.12892 10.8001Z" fill="white"/>
</g>
<defs>
<filter id="filter0_dd_254_152" x="-3.05176e-05" y="0" width="34" height="26" filterUnits="userSpaceOnUse" color-interpolation-filters="sRGB">
<feFlood flood-opacity="0" result="BackgroundImageFix"/>
<feColorMatrix in="SourceAlpha" type="matrix" values="0 0 0 0 0 0 0 0 0 0 0 0 0 0 0 0 0 0 127 0" result="hardAlpha"/>
<feOffset dx="1" dy="1"/>
<feGaussianBlur stdDeviation="1"/>
<feComposite in2="hardAlpha" operator="out"/>
<feColorMatrix type="matrix" values="0 0 0 0 0.329599 0 0 0 0 0.00417628 0 0 0 0 0.529053 0 0 0 1 0"/>
<feBlend mode="normal" in2="BackgroundImageFix" result="effect1_dropShadow_254_152"/>
<feColorMatrix in="SourceAlpha" type="matrix" values="0 0 0 0 0 0 0 0 0 0 0 0 0 0 0 0 0 0 127 0" result="hardAlpha"/>
<feOffset dx="-1" dy="-1"/>
<feGaussianBlur stdDeviation="1"/>
<feComposite in2="hardAlpha" operator="out"/>
<feColorMatrix type="matrix" values="0 0 0 0 0.854493 0 0 0 0 0.456998 0 0 0 0 0.994157 0 0 0 1 0"/>
<feBlend mode="normal" in2="effect1_dropShadow_254_152" result="effect2_dropShadow_254_152"/>
<feBlend mode="normal" in="SourceGraphic" in2="effect2_dropShadow_254_152" result="shape"/>
</filter>
</defs>
</svg>
