<svg width="17" height="16" viewBox="0 0 17 16" fill="none" xmlns="http://www.w3.org/2000/svg">
<g clip-path="url(#clip0_254_48)">
<path d="M8.01607 1.44062C10.1579 1.44062 10.4115 1.45 11.2538 1.4875C12.0366 1.52187 12.4593 1.65313 12.7412 1.7625C13.1138 1.90625 13.3831 2.08125 13.6618 2.35938C13.9436 2.64062 14.1158 2.90625 14.2598 3.27813C14.3694 3.55938 14.5009 3.98438 14.5354 4.7625C14.573 5.60625 14.5824 5.85938 14.5824 7.99375C14.5824 10.1313 14.573 10.3844 14.5354 11.225C14.5009 12.0063 14.3694 12.4281 14.2598 12.7094C14.1158 13.0813 13.9404 13.35 13.6618 13.6281C13.3799 13.9094 13.1138 14.0813 12.7412 14.225C12.4593 14.3344 12.0335 14.4656 11.2538 14.5C10.4084 14.5375 10.1547 14.5469 8.01607 14.5469C5.87428 14.5469 5.62064 14.5375 4.77833 14.5C3.99551 14.4656 3.57279 14.3344 3.29097 14.225C2.91835 14.0813 2.64906 13.9063 2.37038 13.6281C2.08856 13.3469 1.91634 13.0813 1.7723 12.7094C1.66271 12.4281 1.53119 12.0031 1.49675 11.225C1.45917 10.3813 1.44978 10.1281 1.44978 7.99375C1.44978 5.85625 1.45917 5.60313 1.49675 4.7625C1.53119 3.98125 1.66271 3.55938 1.7723 3.27813C1.91634 2.90625 2.09169 2.6375 2.37038 2.35938C2.65219 2.07812 2.91835 1.90625 3.29097 1.7625C3.57279 1.65313 3.99864 1.52187 4.77833 1.4875C5.62064 1.45 5.87428 1.44062 8.01607 1.44062ZM8.01607 0C5.83983 0 5.56741 0.009375 4.71257 0.046875C3.86086 0.084375 3.27532 0.221875 2.76805 0.41875C2.23886 0.625 1.79109 0.896875 1.34645 1.34375C0.898676 1.7875 0.626255 2.23438 0.419591 2.75938C0.222321 3.26875 0.0845445 3.85 0.0469692 4.7C0.00939383 5.55625 0 5.82812 0 8C0 10.1719 0.00939383 10.4438 0.0469692 11.2969C0.0845445 12.1469 0.222321 12.7313 0.419591 13.2375C0.626255 13.7656 0.898676 14.2125 1.34645 14.6562C1.79109 15.1 2.23886 15.375 2.76492 15.5781C3.27532 15.775 3.85773 15.9125 4.70944 15.95C5.56428 15.9875 5.8367 15.9969 8.01294 15.9969C10.1892 15.9969 10.4616 15.9875 11.3164 15.95C12.1681 15.9125 12.7537 15.775 13.261 15.5781C13.787 15.375 14.2348 15.1 14.6794 14.6562C15.1241 14.2125 15.3996 13.7656 15.6032 13.2406C15.8004 12.7313 15.9382 12.15 15.9758 11.3C16.0133 10.4469 16.0227 10.175 16.0227 8.00313C16.0227 5.83125 16.0133 5.55938 15.9758 4.70625C15.9382 3.85625 15.8004 3.27188 15.6032 2.76562C15.4059 2.23438 15.1335 1.7875 14.6857 1.34375C14.241 0.9 13.7933 0.625 13.2672 0.421875C12.7568 0.225 12.1744 0.0875 11.3227 0.05C10.4647 0.009375 10.1923 0 8.01607 0Z" fill="#000100"/>
<path d="M8.01607 3.89062C5.74276 3.89062 3.89844 5.73125 3.89844 8C3.89844 10.2688 5.74276 12.1094 8.01607 12.1094C10.2894 12.1094 12.1337 10.2688 12.1337 8C12.1337 5.73125 10.2894 3.89062 8.01607 3.89062ZM8.01607 10.6656C6.54124 10.6656 5.34509 9.47188 5.34509 8C5.34509 6.52813 6.54124 5.33437 8.01607 5.33437C9.4909 5.33437 10.687 6.52813 10.687 8C10.687 9.47188 9.4909 10.6656 8.01607 10.6656Z" fill="#000100"/>
<path d="M13.2578 3.72815C13.2578 4.2594 12.8257 4.68752 12.2965 4.68752C11.7642 4.68752 11.3352 4.25627 11.3352 3.72815C11.3352 3.19689 11.7673 2.76877 12.2965 2.76877C12.8257 2.76877 13.2578 3.20002 13.2578 3.72815Z" fill="#000100"/>
</g>
<defs>
<clipPath id="clip0_254_48">
<rect width="16.0321" height="16" fill="white"/>
</clipPath>
</defs>
</svg>
