<svg width="17" height="16" viewBox="0 0 17 16" fill="none" xmlns="http://www.w3.org/2000/svg">
<g clip-path="url(#clip0_254_19)">
<path d="M16.0321 8C16.0321 3.58176 12.4432 0 8.01607 0C3.58895 0 0 3.58176 0 8C0 11.7517 2.58823 14.8998 6.07971 15.7645V10.4448H4.42679V8H6.07971V6.94656C6.07971 4.22368 7.3145 2.9616 9.99315 2.9616C10.501 2.9616 11.3774 3.06112 11.7358 3.16032V5.37632C11.5467 5.35648 11.218 5.34656 10.8098 5.34656C9.49551 5.34656 8.98762 5.84352 8.98762 7.13536V8H11.606L11.1561 10.4448H8.98762V15.9414C12.9569 15.463 16.0325 12.0902 16.0325 8H16.0321Z" fill="#0866FF"/>
<path d="M11.1558 10.4448L11.6056 8.00001H8.98728V7.13537C8.98728 5.84353 9.49517 5.34657 10.8095 5.34657C11.2177 5.34657 11.5463 5.35649 11.7355 5.37633V3.16033C11.377 3.06081 10.5007 2.96161 9.99281 2.96161C7.31416 2.96161 6.07937 4.22369 6.07937 6.94657V8.00001H4.42645V10.4448H6.07937V15.7645C6.69949 15.9181 7.34815 16 8.01573 16C8.34439 16 8.66856 15.9798 8.98695 15.9414V10.4448H11.1555H11.1558Z" fill="white"/>
</g>
<defs>
<clipPath id="clip0_254_19">
<rect width="16.0321" height="16" fill="white"/>
</clipPath>
</defs>
</svg>
