<svg width="36" height="26" viewBox="0 0 36 26" fill="none" xmlns="http://www.w3.org/2000/svg">
<g filter="url(#filter0_dddd_348_1686)">
<path d="M32.5712 18.8552C32.6355 19.1041 32.6696 19.3634 32.6696 19.6301C32.6696 21.4912 31.0156 23 28.9748 23C27.0126 23 25.4074 21.6048 25.2872 19.8428L26.5347 19.6742C26.5601 20.8817 27.6452 21.8566 28.9748 21.8566C30.3206 21.8566 31.4158 20.8578 31.4158 19.6301C31.4158 19.4199 31.3837 19.217 31.3242 19.0242L32.5712 18.8552Z" fill="#7500CB"/>
<path d="M7.03604 18.7614C7.21889 18.6541 7.43653 18.5918 7.67017 18.5918C8.0028 18.5918 8.30322 18.718 8.51702 18.9206C8.64934 19.0461 8.74855 19.201 8.8015 19.3735C8.82978 19.4656 8.84491 19.5627 8.84491 19.6631C8.84491 20.2548 8.319 20.7344 7.67017 20.7344C7.02147 20.7344 6.49556 20.2548 6.49556 19.6631C6.49556 19.5627 6.51069 19.4656 6.53898 19.3735C6.61744 19.1182 6.79715 18.9013 7.03604 18.7614Z" fill="#7500CB"/>
<path d="M27.8038 19.6629C27.8038 19.6076 27.8086 19.553 27.8173 19.4998L30.037 19.1988C30.0667 19.2545 30.0909 19.3128 30.1096 19.3736C30.1377 19.4658 30.1528 19.5627 30.1528 19.6629C30.1528 20.2547 29.6272 20.7344 28.9783 20.7344C28.3294 20.7344 27.8038 20.2547 27.8038 19.6629Z" fill="#7500CB"/>
<path d="M5.32232 13.9967C5.30486 12.6399 5.61821 11.4906 6.69276 11.3658C9.45139 11.0457 14.6178 10.8171 14.3667 12.4637C14.116 14.1103 11.909 15.9859 12.4608 16.8844C13.0125 17.7826 20.8871 17.724 22.091 17.0838C23.2948 16.4435 24.7493 11.869 23.6458 9.03226C23.2619 8.04447 23.1458 7.17987 23.1568 6.47137H21.9651C21.8455 6.59723 21.6694 6.67721 21.4724 6.67721H19.2321C18.8719 6.67721 18.58 6.41098 18.58 6.08258C18.58 5.75414 18.8719 5.48791 19.2321 5.48791H21.4724C21.6694 5.48791 21.8455 5.56789 21.9651 5.69375H23.2527C23.3577 5.36751 23.5581 5.08024 23.8239 4.85714C23.9123 4.78299 24.0075 4.71607 24.1095 4.65709C24.3026 3.69273 24.9702 3 25.7861 3C26.7579 3 27.519 3.98248 27.519 5.23626C27.519 6.30953 26.9618 7.18349 26.1919 7.41316C26.5894 7.88814 27.1156 8.42241 27.809 9.01858C30.2484 11.1152 30.6419 13.6918 30.6173 15.2444C31.7273 15.665 32.6114 16.5206 32.9766 17.6127C33.0719 17.8977 32.866 18.1933 32.5429 18.2372L32.3526 18.263L31.0373 18.4413L30.3329 18.5368L28.6789 18.7611L26.621 19.0404L25.307 19.2183L25.1162 19.2442C24.7951 19.2878 24.502 19.0627 24.5022 18.7666C24.5022 18.7648 24.5022 18.7629 24.5022 18.7611H11.1939C11.2819 19.0479 11.3292 19.3503 11.3292 19.6629C11.3292 21.5059 9.69102 22.9999 7.67007 22.9999C5.64956 22.9999 4.01142 21.5059 4.01142 19.6629C4.01142 19.3503 4.05863 19.0479 4.14667 18.7611H4.09869C3.6882 18.7611 3.3209 18.5234 3.19001 18.1682C3.06665 17.8339 3 17.4761 3 17.1039C2.99996 15.6915 3.96266 14.4836 5.32232 13.9967ZM25.5057 6.45348C25.5966 6.52764 25.693 6.56814 25.7862 6.56814C26.136 6.56814 26.5275 5.9984 26.5275 5.23622C26.5275 4.47405 26.136 3.90427 25.7862 3.90427C25.4415 3.90427 25.0559 4.45813 25.0452 5.20402C25.0448 5.21452 25.0448 5.22537 25.0448 5.23622C25.0448 5.79511 25.2554 6.25055 25.5057 6.45348ZM7.67007 21.8645C9.00119 21.8645 10.0841 20.8769 10.0841 19.6629C10.0841 19.3421 10.0083 19.0368 9.87227 18.7612H9.83498C9.84171 18.7503 9.84887 18.7391 9.85559 18.7282C9.46929 17.9805 8.63472 17.4618 7.67007 17.4618C7.01956 17.4618 6.42859 17.6973 5.99422 18.0804C5.77489 18.2736 5.59558 18.5043 5.46865 18.7612C5.33219 19.0368 5.25648 19.3421 5.25648 19.6629C5.25648 20.8769 6.33935 21.8645 7.67007 21.8645Z" fill="#7500CB"/>
<path d="M20.1284 16.8335C19.4021 16.9001 18.4581 16.9474 17.3336 16.9474C14.9279 16.9474 13.4377 16.7213 13.0466 16.543C13.0486 16.4862 13.0697 16.3647 13.1751 16.1411C13.3132 15.8503 13.5372 15.5052 13.7776 15.1387C15.1873 16.0912 17.374 15.8767 18.5799 15.9512C19.4631 16.0058 19.9062 16.4273 20.1284 16.8335Z" fill="#7500CB"/>
<path d="M6.3524 10.8001L6.85097 10.1808C7.17067 9.78398 7.66407 9.53513 8.20236 9.49895C9.10431 9.43821 10.5477 9.38937 11.7039 9.57276C12.7567 9.73986 13.2549 10.3523 13.4877 10.8407C12.7408 10.6279 11.7179 10.5234 10.4037 10.5234C8.84334 10.5234 7.3555 10.6692 6.60742 10.756C6.5233 10.7658 6.43807 10.7802 6.3524 10.8001Z" fill="#7500CB"/>
</g>
<defs>
<filter id="filter0_dddd_348_1686" x="0" y="0" width="36" height="26" filterUnits="userSpaceOnUse" color-interpolation-filters="sRGB">
<feFlood flood-opacity="0" result="BackgroundImageFix"/>
<feColorMatrix in="SourceAlpha" type="matrix" values="0 0 0 0 0 0 0 0 0 0 0 0 0 0 0 0 0 0 127 0" result="hardAlpha"/>
<feOffset dx="1" dy="1"/>
<feGaussianBlur stdDeviation="1"/>
<feComposite in2="hardAlpha" operator="out"/>
<feColorMatrix type="matrix" values="0 0 0 0 0.692222 0 0 0 0 0.716944 0 0 0 0 0.741667 0 0 0 1 0"/>
<feBlend mode="normal" in2="BackgroundImageFix" result="effect1_dropShadow_348_1686"/>
<feColorMatrix in="SourceAlpha" type="matrix" values="0 0 0 0 0 0 0 0 0 0 0 0 0 0 0 0 0 0 127 0" result="hardAlpha"/>
<feOffset dx="-1" dy="-1"/>
<feGaussianBlur stdDeviation="1"/>
<feComposite in2="hardAlpha" operator="out"/>
<feColorMatrix type="matrix" values="0 0 0 0 1 0 0 0 0 1 0 0 0 0 1 0 0 0 1 0"/>
<feBlend mode="normal" in2="effect1_dropShadow_348_1686" result="effect2_dropShadow_348_1686"/>
<feColorMatrix in="SourceAlpha" type="matrix" values="0 0 0 0 0 0 0 0 0 0 0 0 0 0 0 0 0 0 127 0" result="hardAlpha"/>
<feOffset dx="1" dy="1"/>
<feGaussianBlur stdDeviation="1"/>
<feComposite in2="hardAlpha" operator="out"/>
<feColorMatrix type="matrix" values="0 0 0 0 0.692222 0 0 0 0 0.716944 0 0 0 0 0.741667 0 0 0 1 0"/>
<feBlend mode="normal" in2="effect2_dropShadow_348_1686" result="effect3_dropShadow_348_1686"/>
<feColorMatrix in="SourceAlpha" type="matrix" values="0 0 0 0 0 0 0 0 0 0 0 0 0 0 0 0 0 0 127 0" result="hardAlpha"/>
<feOffset dx="-1" dy="-1"/>
<feGaussianBlur stdDeviation="1"/>
<feComposite in2="hardAlpha" operator="out"/>
<feColorMatrix type="matrix" values="0 0 0 0 1 0 0 0 0 1 0 0 0 0 1 0 0 0 1 0"/>
<feBlend mode="normal" in2="effect3_dropShadow_348_1686" result="effect4_dropShadow_348_1686"/>
<feBlend mode="normal" in="SourceGraphic" in2="effect4_dropShadow_348_1686" result="shape"/>
</filter>
</defs>
</svg>
