<svg width="52" height="52" viewBox="0 0 52 52" fill="none" xmlns="http://www.w3.org/2000/svg">
<g filter="url(#filter0_dddd_274_359)">
<path fill-rule="evenodd" clip-rule="evenodd" d="M26 46C37.0456 46 46 37.0456 46 26C46 14.9543 37.0456 6 26 6C14.9543 6 6 14.9543 6 26C6 37.0456 14.9543 46 26 46ZM23.7226 20.7267L23.4604 21.197C23.1724 21.7135 23.0284 21.9718 22.804 22.1422C22.5794 22.3126 22.2998 22.376 21.7407 22.5024L21.2316 22.6176C19.2639 23.0628 18.28 23.2854 18.0459 24.0382C17.8119 24.791 18.4826 25.5752 19.8241 27.144L20.1711 27.5498C20.5523 27.9956 20.7429 28.2184 20.8287 28.4942C20.9144 28.77 20.8856 29.0672 20.828 29.662L20.7755 30.2036C20.5727 32.2964 20.4713 33.343 21.0841 33.8082C21.6969 34.2734 22.6182 33.8492 24.4606 33.001L24.9372 32.7814C25.4608 32.5404 25.7226 32.4198 26 32.4198C26.2774 32.4198 26.5392 32.5404 27.0628 32.7814L27.5394 33.001C29.3818 33.8492 30.303 34.2734 30.9158 33.8082C31.5288 33.343 31.4272 32.2964 31.2244 30.2036L31.172 29.662C31.1144 29.0672 31.0856 28.77 31.1714 28.4942C31.257 28.2184 31.4476 27.9956 31.8288 27.5498L32.176 27.144C33.5174 25.5752 34.1882 24.791 33.954 24.0382C33.72 23.2854 32.7362 23.0628 30.7684 22.6176L30.2592 22.5024C29.7002 22.376 29.4206 22.3126 29.196 22.1422C28.9716 21.9718 28.8276 21.7136 28.5396 21.197L28.2774 20.7267C27.2642 18.9089 26.7574 18 26 18C25.2426 18 24.7358 18.9089 23.7226 20.7267Z" fill="#F05C5C"/>
</g>
<defs>
<filter id="filter0_dddd_274_359" x="0" y="0" width="52" height="52" filterUnits="userSpaceOnUse" color-interpolation-filters="sRGB">
<feFlood flood-opacity="0" result="BackgroundImageFix"/>
<feColorMatrix in="SourceAlpha" type="matrix" values="0 0 0 0 0 0 0 0 0 0 0 0 0 0 0 0 0 0 127 0" result="hardAlpha"/>
<feOffset dx="2" dy="2"/>
<feGaussianBlur stdDeviation="2"/>
<feComposite in2="hardAlpha" operator="out"/>
<feColorMatrix type="matrix" values="0 0 0 0 0.692222 0 0 0 0 0.716944 0 0 0 0 0.741667 0 0 0 1 0"/>
<feBlend mode="normal" in2="BackgroundImageFix" result="effect1_dropShadow_274_359"/>
<feColorMatrix in="SourceAlpha" type="matrix" values="0 0 0 0 0 0 0 0 0 0 0 0 0 0 0 0 0 0 127 0" result="hardAlpha"/>
<feOffset dx="-2" dy="-2"/>
<feGaussianBlur stdDeviation="2"/>
<feComposite in2="hardAlpha" operator="out"/>
<feColorMatrix type="matrix" values="0 0 0 0 1 0 0 0 0 1 0 0 0 0 1 0 0 0 1 0"/>
<feBlend mode="normal" in2="effect1_dropShadow_274_359" result="effect2_dropShadow_274_359"/>
<feColorMatrix in="SourceAlpha" type="matrix" values="0 0 0 0 0 0 0 0 0 0 0 0 0 0 0 0 0 0 127 0" result="hardAlpha"/>
<feOffset dx="2" dy="2"/>
<feGaussianBlur stdDeviation="2"/>
<feComposite in2="hardAlpha" operator="out"/>
<feColorMatrix type="matrix" values="0 0 0 0 0.692222 0 0 0 0 0.716944 0 0 0 0 0.741667 0 0 0 1 0"/>
<feBlend mode="normal" in2="effect2_dropShadow_274_359" result="effect3_dropShadow_274_359"/>
<feColorMatrix in="SourceAlpha" type="matrix" values="0 0 0 0 0 0 0 0 0 0 0 0 0 0 0 0 0 0 127 0" result="hardAlpha"/>
<feOffset dx="-2" dy="-2"/>
<feGaussianBlur stdDeviation="2"/>
<feComposite in2="hardAlpha" operator="out"/>
<feColorMatrix type="matrix" values="0 0 0 0 1 0 0 0 0 1 0 0 0 0 1 0 0 0 1 0"/>
<feBlend mode="normal" in2="effect3_dropShadow_274_359" result="effect4_dropShadow_274_359"/>
<feBlend mode="normal" in="SourceGraphic" in2="effect4_dropShadow_274_359" result="shape"/>
</filter>
</defs>
</svg>
