<svg width="52" height="52" viewBox="0 0 52 52" fill="none" xmlns="http://www.w3.org/2000/svg">
<g filter="url(#filter0_dddd_274_357)">
<path d="M45.9577 6.03993C45.9577 6.03993 37.1676 5.04157 29.131 13.0285C25.1127 16.7724 21.8478 21.7642 19.3363 26.2568L13.0577 24.7593L9.03937 28.7527L16.0714 32.247C15.318 33.7446 15.0669 34.7429 15.0669 34.7429L17.076 36.7397C17.076 36.7397 18.0806 36.2405 19.5875 35.7413L23.1035 42.7298L27.1218 38.7364L25.8661 32.4966C30.1356 30.0007 35.4096 26.756 39.1768 23.0121C46.9623 15.0252 45.9577 6.03993 45.9577 6.03993ZM37.9211 18.0203C36.9165 19.0187 35.1585 19.0187 33.9028 18.0203C32.8982 17.0219 32.8982 15.2748 33.9028 14.0269C34.9073 13.0285 36.6653 13.0285 37.9211 14.0269C38.9257 15.0252 38.9257 16.7724 37.9211 18.0203Z" fill="#F05C5C"/>
<path d="M15.8203 41.4821C13.8111 43.4789 9.29052 42.4805 9.29052 42.4805C9.29052 42.4805 8.28593 37.9879 10.2951 35.9911C12.3043 33.9944 14.0623 33.7448 14.0623 33.7448C14.0623 33.7448 10.7974 32.996 8.78823 35.2424C4.7699 39.2358 6.27677 45.7252 6.27677 45.7252C6.27677 45.7252 12.8065 47.2227 16.8249 43.2293C19.0852 40.9829 18.3317 37.7383 18.3317 37.7383C18.3317 37.7383 17.8295 39.4854 15.8203 41.4821Z" fill="#F05C5C"/>
</g>
<defs>
<filter id="filter0_dddd_274_357" x="0" y="0" width="52" height="52" filterUnits="userSpaceOnUse" color-interpolation-filters="sRGB">
<feFlood flood-opacity="0" result="BackgroundImageFix"/>
<feColorMatrix in="SourceAlpha" type="matrix" values="0 0 0 0 0 0 0 0 0 0 0 0 0 0 0 0 0 0 127 0" result="hardAlpha"/>
<feOffset dx="2" dy="2"/>
<feGaussianBlur stdDeviation="2"/>
<feComposite in2="hardAlpha" operator="out"/>
<feColorMatrix type="matrix" values="0 0 0 0 0.692222 0 0 0 0 0.716944 0 0 0 0 0.741667 0 0 0 1 0"/>
<feBlend mode="normal" in2="BackgroundImageFix" result="effect1_dropShadow_274_357"/>
<feColorMatrix in="SourceAlpha" type="matrix" values="0 0 0 0 0 0 0 0 0 0 0 0 0 0 0 0 0 0 127 0" result="hardAlpha"/>
<feOffset dx="-2" dy="-2"/>
<feGaussianBlur stdDeviation="2"/>
<feComposite in2="hardAlpha" operator="out"/>
<feColorMatrix type="matrix" values="0 0 0 0 1 0 0 0 0 1 0 0 0 0 1 0 0 0 1 0"/>
<feBlend mode="normal" in2="effect1_dropShadow_274_357" result="effect2_dropShadow_274_357"/>
<feColorMatrix in="SourceAlpha" type="matrix" values="0 0 0 0 0 0 0 0 0 0 0 0 0 0 0 0 0 0 127 0" result="hardAlpha"/>
<feOffset dx="2" dy="2"/>
<feGaussianBlur stdDeviation="2"/>
<feComposite in2="hardAlpha" operator="out"/>
<feColorMatrix type="matrix" values="0 0 0 0 0.692222 0 0 0 0 0.716944 0 0 0 0 0.741667 0 0 0 1 0"/>
<feBlend mode="normal" in2="effect2_dropShadow_274_357" result="effect3_dropShadow_274_357"/>
<feColorMatrix in="SourceAlpha" type="matrix" values="0 0 0 0 0 0 0 0 0 0 0 0 0 0 0 0 0 0 127 0" result="hardAlpha"/>
<feOffset dx="-2" dy="-2"/>
<feGaussianBlur stdDeviation="2"/>
<feComposite in2="hardAlpha" operator="out"/>
<feColorMatrix type="matrix" values="0 0 0 0 1 0 0 0 0 1 0 0 0 0 1 0 0 0 1 0"/>
<feBlend mode="normal" in2="effect3_dropShadow_274_357" result="effect4_dropShadow_274_357"/>
<feBlend mode="normal" in="SourceGraphic" in2="effect4_dropShadow_274_357" result="shape"/>
</filter>
</defs>
</svg>
