<svg width="32" height="32" viewBox="0 0 32 32" fill="none" xmlns="http://www.w3.org/2000/svg">
<g filter="url(#filter0_dddd_313_17)">
<path d="M25 16C25 20.9706 20.9706 25 16 25C11.0294 25 7 20.9706 7 16C7 11.0294 11.0294 7 16 7C20.9706 7 25 11.0294 25 16Z" stroke="#7500CB" stroke-width="2" stroke-linecap="round" stroke-linejoin="round"/>
<path d="M21.8925 22.4612C21.246 23.0486 20.3734 23.5446 19.3661 23.9459C18.1809 24.4181 16.921 24.714 15.8889 24.8748V23.2222C15.8889 21.7388 14.6688 20.5556 13.2078 20.5556C12.8442 20.5556 12.5556 20.2586 12.5556 19.9178C12.5556 19.3089 12.3444 18.7187 11.9598 18.2482L11.9595 18.2479L7.69249 13.0326C8.28303 11.5911 9.46998 9.79031 11.3 8.58518C13.1526 7.36515 15.746 6.69893 19.2546 7.76539C19.2068 7.84077 19.1506 7.91126 19.0865 7.97537C18.8573 8.20458 18.5464 8.33335 18.2222 8.33335H17.6667C16.9594 8.33335 16.2811 8.6143 15.781 9.11439C15.281 9.61449 15 10.2928 15 11V11.5556C15 11.585 14.9883 11.6133 14.9675 11.6341C14.9466 11.655 14.9184 11.6667 14.8889 11.6667C14.329 11.6667 13.792 11.8891 13.3961 12.285C13.0002 12.6809 12.7778 13.2179 12.7778 13.7778V14.8889C12.7778 15.7435 13.1173 16.5631 13.7215 17.1674C14.3258 17.7716 15.1454 18.1111 16 18.1111H18.2222C18.5464 18.1111 18.8573 18.2399 19.0865 18.4691C19.3157 18.6983 19.4444 19.0092 19.4444 19.3333C19.4444 20.1879 19.7839 21.0075 20.3882 21.6118C20.8064 22.03 21.3278 22.3214 21.8925 22.4612Z" fill="#7500CB" stroke="#7500CB" stroke-width="2" stroke-linecap="round" stroke-linejoin="round"/>
</g>
<defs>
<filter id="filter0_dddd_313_17" x="0" y="0" width="32" height="32" filterUnits="userSpaceOnUse" color-interpolation-filters="sRGB">
<feFlood flood-opacity="0" result="BackgroundImageFix"/>
<feColorMatrix in="SourceAlpha" type="matrix" values="0 0 0 0 0 0 0 0 0 0 0 0 0 0 0 0 0 0 127 0" result="hardAlpha"/>
<feOffset dx="2" dy="2"/>
<feGaussianBlur stdDeviation="2"/>
<feComposite in2="hardAlpha" operator="out"/>
<feColorMatrix type="matrix" values="0 0 0 0 0.692222 0 0 0 0 0.716944 0 0 0 0 0.741667 0 0 0 1 0"/>
<feBlend mode="normal" in2="BackgroundImageFix" result="effect1_dropShadow_313_17"/>
<feColorMatrix in="SourceAlpha" type="matrix" values="0 0 0 0 0 0 0 0 0 0 0 0 0 0 0 0 0 0 127 0" result="hardAlpha"/>
<feOffset dx="-2" dy="-2"/>
<feGaussianBlur stdDeviation="2"/>
<feComposite in2="hardAlpha" operator="out"/>
<feColorMatrix type="matrix" values="0 0 0 0 1 0 0 0 0 1 0 0 0 0 1 0 0 0 1 0"/>
<feBlend mode="normal" in2="effect1_dropShadow_313_17" result="effect2_dropShadow_313_17"/>
<feColorMatrix in="SourceAlpha" type="matrix" values="0 0 0 0 0 0 0 0 0 0 0 0 0 0 0 0 0 0 127 0" result="hardAlpha"/>
<feOffset dx="2" dy="2"/>
<feGaussianBlur stdDeviation="2"/>
<feComposite in2="hardAlpha" operator="out"/>
<feColorMatrix type="matrix" values="0 0 0 0 0.692222 0 0 0 0 0.716944 0 0 0 0 0.741667 0 0 0 1 0"/>
<feBlend mode="normal" in2="effect2_dropShadow_313_17" result="effect3_dropShadow_313_17"/>
<feColorMatrix in="SourceAlpha" type="matrix" values="0 0 0 0 0 0 0 0 0 0 0 0 0 0 0 0 0 0 127 0" result="hardAlpha"/>
<feOffset dx="-2" dy="-2"/>
<feGaussianBlur stdDeviation="2"/>
<feComposite in2="hardAlpha" operator="out"/>
<feColorMatrix type="matrix" values="0 0 0 0 1 0 0 0 0 1 0 0 0 0 1 0 0 0 1 0"/>
<feBlend mode="normal" in2="effect3_dropShadow_313_17" result="effect4_dropShadow_313_17"/>
<feBlend mode="normal" in="SourceGraphic" in2="effect4_dropShadow_313_17" result="shape"/>
</filter>
</defs>
</svg>
