<svg width="17" height="16" viewBox="0 0 17 16" fill="none" xmlns="http://www.w3.org/2000/svg">
<g clip-path="url(#clip0_254_52)">
<path d="M14.8728 0H1.20765C0.893774 0 0.592751 0.124438 0.370804 0.34594C0.148858 0.567441 0.0241699 0.867861 0.0241699 1.18111V14.8189C0.0241699 15.1321 0.148858 15.4326 0.370804 15.6541C0.592751 15.8756 0.893774 16 1.20765 16H14.8728C15.1867 16 15.4877 15.8756 15.7097 15.6541C15.9316 15.4326 16.0563 15.1321 16.0563 14.8189V1.18111C16.0563 0.867861 15.9316 0.567441 15.7097 0.34594C15.4877 0.124438 15.1867 0 14.8728 0ZM4.80264 13.63H2.39225V5.98889H4.80264V13.63ZM3.59577 4.93C3.32236 4.92846 3.05552 4.84613 2.82895 4.69339C2.60237 4.54065 2.42621 4.32435 2.3227 4.07179C2.21918 3.81923 2.19295 3.54173 2.24731 3.2743C2.30168 3.00688 2.4342 2.76152 2.62816 2.56919C2.82212 2.37686 3.06882 2.24618 3.33712 2.19364C3.60543 2.1411 3.88331 2.16906 4.13571 2.27399C4.38811 2.37892 4.60371 2.55611 4.7553 2.78321C4.90688 3.01031 4.98767 3.27713 4.98745 3.55C4.99003 3.73269 4.95573 3.91403 4.88659 4.0832C4.81745 4.25238 4.71489 4.40593 4.58503 4.53471C4.45516 4.66349 4.30064 4.76486 4.13068 4.83277C3.96073 4.90068 3.77881 4.93375 3.59577 4.93ZM13.6871 13.6367H11.2778V9.46222C11.2778 8.23111 10.7535 7.85111 10.0765 7.85111C9.36178 7.85111 8.66037 8.38889 8.66037 9.49333V13.6367H6.24998V5.99445H8.56796V7.05333H8.59914C8.83183 6.58333 9.64679 5.78 10.8904 5.78C12.2353 5.78 13.6882 6.57667 13.6882 8.91L13.6871 13.6367Z" fill="#0A66C2"/>
</g>
<defs>
<clipPath id="clip0_254_52">
<rect width="16.0321" height="16" fill="white" transform="translate(0.0241699)"/>
</clipPath>
</defs>
</svg>
